{
.formatVersion = 3;
axes = (
{
name = Weight;
tag = wght;
}
);
classes = (
{
code = "S Sacute Scaron";
name = _S_Both;
},
{
code = "T Tcedilla Tcaron Tcommaaccent";
name = _T_Both;
},
{
code = "U Uogonek Umacron Uring Uhungarumlaut Ugrave Uacute Ucircumflex Udieresis";
name = _U_Both;
},
{
code = W;
name = _W_Both;
},
{
code = "Y Yacute Ydieresis";
name = _Y_Both;
},
{
code = "Z Zacute Zdotaccent Zcaron";
name = _Z_Both;
},
{
code = "i iogonek igrave iacute icircumflex idieresis imacron";
name = _i_Both;
},
{
code = "s scaron sacute";
name = _s_both;
},
{
code = "t tcedilla tcaron tcommaaccent";
name = _t_Both;
},
{
code = "u uogonek ugrave uacute ucircumflex udieresis umacron uring uhungarumlaut";
name = _u_Both;
},
{
code = "v w y ydieresis yacute";
name = _v_Both;
},
{
code = "z zacute zdotaccent zcaron";
name = _z_Both;
},
{
code = "quoteleft quotedblleft";
name = _quoteleft_Both;
},
{
code = "quoteright quotedblright";
name = _quoteright_Both;
},
{
code = "quotesingle quotedbl";
name = _quotesingl_Both;
},
{
code = "guilsinglleft guillemetleft";
name = _guilsinglleft_Both;
},
{
code = "guilsinglright guillemetright";
name = _guilsinglright_Both;
},
{
code = hyphen;
name = _hyphen_Both;
},
{
code = "period comma";
name = _period_Both;
},
{
code = B;
name = _B_Both;
},
{
code = F;
name = _F_Both;
},
{
code = "H I";
name = _H_Both;
},
{
code = J;
name = _J_Both;
},
{
code = M;
name = _M_Both;
},
{
code = P;
name = _P_Both;
},
{
code = V;
name = _V_Both;
},
{
code = X;
name = _X_Both;
},
{
code = j;
name = _j_Both;
},
{
code = x;
name = _x_Both;
},
{
code = exclam;
name = _exclam_Both;
},
{
code = question;
name = _question_Both;
},
{
code = ampersand;
name = _ampersand_Both;
},
{
code = asterisk;
name = _asterisk_Both;
},
{
code = questiondown;
name = _questiondown_Both;
},
{
code = exclamdown;
name = _exclamdown_Both;
}
);
familyName = Jenssen;
customParameters = (
{
name = glyphOrder;
value = (
.notdef,
NULL,
CR,
space,
slash,
quotesingle,
hyphen,
semicolon,

glyphs = (
{
glyphname = slash;
layers = (
{
layerId = "058F6230-00F9-460F-9C2D-4FC5E161CC93";
shapes = (
{
closed = 1;
nodes = (
(-20,-308,l),
(288,-308,l),
(1047,1602,l),
(739,1602,l)
);
}
);
width = 1014;
},
{
layerId = "797B86FC-FBE9-46CE-B0B3-DC44F7F86021";
shapes = (
{
closed = 1;
nodes = (
(-15,-308,l),
(260,-308,l),
(1019,1602,l),
(744,1602,l)
);
}
);
width = 991;
},
{
layerId = "C0B66080-0851-4CAD-97C1-7E69A4280B0F";
shapes = (
{
closed = 1;
nodes = (
(3,-308,l),
(167,-308,l),
(926,1602,l),
(762,1602,l)
);
}
);
width = 915;
},
{
layerId = "D16C0853-6864-4717-842E-4EFABF578FF1";
shapes = (
{
closed = 1;
nodes = (
(13,-308,l),
(109,-308,l),
(868,1602,l),
(772,1602,l)
);
}
);
width = 868;
}
);
unicode = 47;
},
{
glyphname = quotesingle;
layers = (
{
layerId = "058F6230-00F9-460F-9C2D-4FC5E161CC93";
shapes = (
{
closed = 1;
nodes = (
(287,682,l),
(656,972,o),
(741,1220,o),
(741,1377,cs),
(741,1544,o),
(633,1624,o),
(519,1624,cs),
(384,1624,o),
(230,1519,o),
(230,1343,cs),
(230,1315,o),
(232,1286,o),
(237,1262,c),
(302,1246,o),
(372,1204,o),
(409,1155,c),
(362,1019,o),
(273,901,o),
(146,773,c)
);
}
);
width = 774;
},
{
layerId = "797B86FC-FBE9-46CE-B0B3-DC44F7F86021";
shapes = (
{
closed = 1;
nodes = (
(277,747,l),
(614,1011,o),
(701,1243,o),
(701,1394,cs),
(701,1549,o),
(602,1622,o),
(498,1622,cs),
(371,1622,o),
(237,1520,o),
(237,1367,cs),
(237,1342,o),
(239,1314,o),
(244,1293,c),
(305,1278,o),
(372,1238,o),
(407,1194,c),
(364,1068,o),
(275,949,o),
(154,828,c)
);
}
);
width = 734;
},
{
layerId = "C0B66080-0851-4CAD-97C1-7E69A4280B0F";
shapes = (
{
closed = 1;
nodes = (
(245,963,l),
(476,1141,o),
(568,1319,o),
(568,1451,cs),
(568,1567,o),
(499,1615,o),
(430,1615,cs),
(328,1615,o),
(261,1524,o),
(261,1446,cs),
(261,1430,o),
(263,1408,o),
(268,1396,c),
(314,1385,o),
(372,1351,o),
(399,1322,c),
(370,1230,o),
(282,1107,o),
(182,1010,c)
);
}
);
width = 601;
},
{
layerId = "D16C0853-6864-4717-842E-4EFABF578FF1";
shapes = (
{
closed = 1;
nodes = (
(223,1117,l),
(383,1236,o),
(476,1377,o),
(476,1492,cs),
(476,1581,o),
(427,1612,o),
(380,1612,cs),
(297,1612,o),
(274,1530,o),
(274,1501,cs),
(274,1491,o),
(274,1473,o),
(279,1467,c),
(316,1459,o),
(366,1429,o),
(388,1410,c),
(367,1343,o),
(283,1221,o),
(199,1141,c)
);
}
);
width = 507;
}
);
unicode = 39;
},
{
glyphname = hyphen;
layers = (
{
layerId = "058F6230-00F9-460F-9C2D-4FC5E161CC93";
shapes = (
{
closed = 1;
nodes = (
(174,735,l),
(141,448,l),
(827,448,l),
(860,735,l)
);
}
);
width = 986;
},
{
layerId = "797B86FC-FBE9-46CE-B0B3-DC44F7F86021";
shapes = (
{
closed = 1;
nodes = (
(172,719,l),
(143,464,l),
(829,464,l),
(858,719,l)
);
}
);
width = 986;
},
{
layerId = "C0B66080-0851-4CAD-97C1-7E69A4280B0F";
shapes = (
{
closed = 1;
nodes = (
(166,665,l),
(149,518,l),
(835,518,l),
(852,665,l)
);
}
);
width = 987;
},
{
layerId = "D16C0853-6864-4717-842E-4EFABF578FF1";
shapes = (
{
closed = 1;
nodes = (
(161,632,l),
(151,551,l),
(838,551,l),
(848,632,l)
);
}
);
width = 987;
}
);
unicode = 45;
},
{
glyphname = semicolon;
layers = (
{
layerId = "058F6230-00F9-460F-9C2D-4FC5E161CC93";
shapes = (
{
closed = 1;
nodes = (
(569,608,o),
(719,722,o),
(719,888,cs),
(719,1018,o),
(623,1112,o),
(498,1112,cs),
(354,1112,o),
(208,998,o),
(208,832,cs),
(208,702,o),
(304,608,o),
(428,608,cs)
);
},
{
closed = 1;
nodes = (
(194,-458,l),
(563,-168,o),
(649,80,o),
(649,237,cs),
(649,404,o),
(541,484,o),
(426,484,cs),
(292,484,o),
(137,379,o),
(137,203,cs),
(137,175,o),
(139,146,o),
(144,122,c),
(210,106,o),
(280,64,o),
(317,15,c),
(270,-121,o),
(180,-239,o),
(53,-367,c)
);
}
);
width = 856;
},
{
layerId = "797B86FC-FBE9-46CE-B0B3-DC44F7F86021";
shapes = (
{
closed = 1;
nodes = (
(543,624,o),
(677,728,o),
(677,877,cs),
(677,994,o),
(590,1080,o),
(477,1080,cs),
(346,1080,o),
(215,976,o),
(215,827,cs),
(215,710,o),
(302,624,o),
(415,624,cs)
);
},
{
closed = 1;
nodes = (
(182,-439,l),
(519,-175,o),
(606,57,o),
(606,208,cs),
(606,363,o),
(507,436,o),
(403,436,cs),
(276,436,o),
(142,334,o),
(142,181,cs),
(142,156,o),
(144,128,o),
(149,107,c),
(210,92,o),
(277,52,o),
(312,8,c),
(269,-118,o),
(180,-237,o),
(59,-358,c)
);
}
);
width = 824;
},
{
layerId = "C0B66080-0851-4CAD-97C1-7E69A4280B0F";
shapes = (
{
closed = 1;
nodes = (
(457,677,o),
(539,748,o),
(539,840,cs),
(539,916,o),
(482,974,o),
(407,974,cs),
(320,974,o),
(239,903,o),
(239,811,cs),
(239,735,o),
(296,677,o),
(371,677,cs)
);
},
{
closed = 1;
nodes = (
(141,-375,l),
(373,-197,o),
(465,-19,o),
(465,113,cs),
(465,229,o),
(395,277,o),
(326,277,cs),
(224,277,o),
(158,186,o),
(158,108,cs),
(158,92,o),
(159,70,o),
(164,58,c),
(211,47,o),
(268,13,o),
(296,-16,c),
(266,-108,o),
(179,-231,o),
(78,-329,c)
);
}
);
width = 717;
},
{
layerId = "D16C0853-6864-4717-842E-4EFABF578FF1";
shapes = (
{
closed = 1;
nodes = (
(402,719,o),
(452,761,o),
(452,819,cs),
(452,866,o),
(414,899,o),
(369,899,cs),
(315,899,o),
(267,859,o),
(267,802,cs),
(267,753,o),
(303,719,o),
(350,719,cs)
);
},
{
closed = 1;
nodes = (
(120,-335,l),
(280,-216,o),
(373,-75,o),
(373,40,cs),
(373,129,o),
(322,160,o),
(277,160,cs),
(194,160,o),
(171,78,o),
(171,49,cs),
(171,39,o),
(172,21,o),
(177,15,c),
(213,7,o),
(263,-23,o),
(285,-42,c),
(264,-109,o),
(180,-231,o),
(96,-311,c)
);
}
);
width = 655;
}
);
unicode = 59;
},
{
glyphname = equal;
layers = (
{
layerId = "058F6230-00F9-460F-9C2D-4FC5E161CC93";
shapes = (
{
closed = 1;
nodes = (
(195,482,l),
(162,194,l),
(1186,194,l),
(1219,482,l)
);
},
{
closed = 1;
nodes = (
(253,991,l),
(220,704,l),
(1244,704,l),
(1277,991,l)
);
}
);
width = 1424;
},
{
layerId = "797B86FC-FBE9-46CE-B0B3-DC44F7F86021";
shapes = (
{
closed = 1;
nodes = (
(194,476,l),
(165,221,l),
(1178,221,l),
(1207,476,l)
);
},
{
closed = 1;
nodes = (
(250,964,l),
(221,709,l),
(1234,709,l),
(1263,964,l)
);
}
);
width = 1413;
},
{
layerId = "C0B66080-0851-4CAD-97C1-7E69A4280B0F";
shapes = (
{
closed = 1;
nodes = (
(192,456,l),
(175,309,l),
(1152,309,l),
(1169,456,l)
);
},
{
closed = 1;
nodes = (
(240,874,l),
(223,727,l),
(1200,727,l),
(1217,874,l)
);
}
);
width = 1377;
},
{
layerId = "D16C0853-6864-4717-842E-4EFABF578FF1";
shapes = (
{
closed = 1;
nodes = (
(190,443,l),
(181,363,l),
(1135,363,l),
(1145,443,l)
);
},
{
closed = 1;
nodes = (
(234,819,l),
(224,738,l),
(1179,738,l),
(1188,819,l)
);
}
);
width = 1355;
}
);
unicode = 61;
},
{
glyphname = bracketleft;
layers = (
{
layerId = "058F6230-00F9-460F-9C2D-4FC5E161CC93";
shapes = (
{
closed = 1;
nodes = (
(136,-358,l),
(790,-358,l),
(823,-70,l),
(482,-70,l),
(640,1314,l),
(980,1314,l),
(1013,1602,l),
(359,1602,l)
);
}
);
width = 996;
},
{
layerId = "797B86FC-FBE9-46CE-B0B3-DC44F7F86021";
shapes = (
{
closed = 1;
nodes = (
(139,-358,l),
(763,-358,l),
(792,-103,l),
(443,-103,l),
(608,1347,l),
(957,1347,l),
(986,1602,l),
(362,1602,l)
);
}
);
width = 974;
},
{
layerId = "C0B66080-0851-4CAD-97C1-7E69A4280B0F";
shapes = (
{
closed = 1;
nodes = (
(148,-358,l),
(673,-358,l),
(690,-211,l),
(314,-211,l),
(503,1455,l),
(880,1455,l),
(896,1602,l),
(371,1602,l)
);
}
);
width = 902;
},
{
layerId = "D16C0853-6864-4717-842E-4EFABF578FF1";
shapes = (
{
closed = 1;
nodes = (
(152,-358,l),
(617,-358,l),
(626,-278,l),
(233,-278,l),
(437,1522,l),
(830,1522,l),
(840,1602,l),
(375,1602,l)
);
}
);
width = 858;
}
);
rightKerningGroup = _parenleft_Left;
unicode = 91;
},
{
glyphname = asciitilde;
layers = (
{
layerId = "058F6230-00F9-460F-9C2D-4FC5E161CC93";
shapes = (
{
closed = 1;
nodes = (
(899,606,o),
(917,860,o),
(625,860,cs),
(431,860,o),
(226,746,o),
(172,316,c),
(460,316,l),
(483,500,o),
(509,570,o),
(573,570,cs),
(695,570,o),
(673,316,o),
(971,316,cs),
(1163,316,o),
(1368,432,o),
(1420,860,c),
(1133,860,l),
(1110,676,o),
(1084,606,o),
(1020,606,cs)
);
}
);
width = 1579;
},
{
layerId = "797B86FC-FBE9-46CE-B0B3-DC44F7F86021";
shapes = (
{
closed = 1;
nodes = (
(864,579,o),
(876,852,o),
(595,852,cs),
(412,852,o),
(204,737,o),
(157,324,c),
(412,324,l),
(434,516,o),
(476,597,o),
(547,597,cs),
(678,597,o),
(666,324,o),
(947,324,cs),
(1130,324,o),
(1338,439,o),
(1385,852,c),
(1130,852,l),
(1108,660,o),
(1066,579,o),
(995,579,cs)
);
}
);
width = 1528;
},
{
layerId = "C0B66080-0851-4CAD-97C1-7E69A4280B0F";
shapes = (
{
closed = 1;
nodes = (
(750,490,o),
(740,827,o),
(497,827,cs),
(350,827,o),
(132,708,o),
(107,351,c),
(254,351,l),
(272,568,o),
(366,687,o),
(462,687,cs),
(623,687,o),
(643,351,o),
(868,351,cs),
(1022,351,o),
(1240,461,o),
(1268,827,c),
(1121,827,l),
(1103,606,o),
(1007,490,o),
(913,490,cs)
);
}
);
width = 1361;
},
{
layerId = "D16C0853-6864-4717-842E-4EFABF578FF1";
shapes = (
{
closed = 1;
nodes = (
(676,435,o),
(654,811,o),
(434,811,cs),
(309,811,o),
(87,687,o),
(75,367,c),
(155,367,l),
(170,599,o),
(299,743,o),
(411,743,cs),
(591,743,o),
(628,367,o),
(818,367,cs),
(954,367,o),
(1178,475,o),
(1194,811,c),
(1114,811,l),
(1099,573,o),
(967,435,o),
(858,435,cs)
);
}
);
width = 1257;
}
);
unicode = 126;
},
{
glyphname = quoteleft;
layers = (
{
layerId = "058F6230-00F9-460F-9C2D-4FC5E161CC93";
shapes = (
{
closed = 1;
nodes = (
(631,1633,l),
(262,1343,o),
(177,1095,o),
(177,938,cs),
(177,771,o),
(285,690,o),
(399,690,cs),
(534,690,o),
(688,796,o),
(688,972,cs),
(688,999,o),
(686,1029,o),
(681,1053,c),
(616,1069,o),
(546,1111,o),
(509,1159,c),
(556,1296,o),
(645,1413,o),
(772,1542,c)
);
}
);
width = 774;
},
{
layerId = "797B86FC-FBE9-46CE-B0B3-DC44F7F86021";
shapes = (
{
closed = 1;
nodes = (
(608,1632,l),
(271,1368,o),
(184,1136,o),
(184,985,cs),
(184,830,o),
(283,757,o),
(387,757,cs),
(514,757,o),
(648,859,o),
(648,1012,cs),
(648,1037,o),
(646,1065,o),
(641,1086,c),
(580,1101,o),
(513,1141,o),
(478,1185,c),
(521,1311,o),
(610,1430,o),
(731,1551,c)
);
}
);
width = 734;
},
{
layerId = "C0B66080-0851-4CAD-97C1-7E69A4280B0F";
shapes = (
{
closed = 1;
nodes = (
(531,1628,l),
(300,1451,o),
(208,1272,o),
(208,1141,cs),
(208,1024,o),
(277,977,o),
(346,977,cs),
(448,977,o),
(515,1068,o),
(515,1145,cs),
(515,1161,o),
(513,1183,o),
(508,1196,c),
(462,1206,o),
(405,1241,o),
(377,1270,c),
(406,1361,o),
(495,1485,o),
(595,1582,c)
);
}
);
width = 601;
},
{
layerId = "D16C0853-6864-4717-842E-4EFABF578FF1";
shapes = (
{
closed = 1;
nodes = (
(473,1623,l),
(315,1503,o),
(222,1363,o),
(222,1248,cs),
(222,1158,o),
(271,1128,o),
(316,1128,cs),
(399,1128,o),
(424,1210,o),
(424,1239,cs),
(424,1248,o),
(422,1267,o),
(417,1273,c),
(381,1281,o),
(332,1311,o),
(308,1330,c),
(329,1397,o),
(415,1519,o),
(499,1599,c)
);
}
);
width = 507;
}
);
unicode = 8216;
},
{
glyphname = quotedblbase;
layers = (
{
layerId = "058F6230-00F9-460F-9C2D-4FC5E161CC93";
shapes = (
{
closed = 1;
nodes = (
(157,-458,l),
(526,-168,o),
(611,80,o),
(611,237,cs),
(611,404,o),
(504,484,o),
(389,484,cs),
(254,484,o),
(100,379,o),
(100,203,cs),
(100,175,o),
(102,146,o),
(107,122,c),
(172,106,o),
(242,64,o),
(280,15,c),
(232,-121,o),
(143,-239,o),
(16,-367,c)
);
},
{
closed = 1;
nodes = (
(834,-458,l),
(1203,-168,o),
(1289,80,o),
(1289,237,cs),
(1289,404,o),
(1181,484,o),
(1066,484,cs),
(931,484,o),
(777,379,o),
(777,203,cs),
(777,175,o),
(779,146,o),
(784,122,c),
(850,106,o),
(919,64,o),
(957,15,c),
(910,-121,o),
(820,-239,o),
(693,-367,c)
);
}
);
width = 1451;
},
{
layerId = "797B86FC-FBE9-46CE-B0B3-DC44F7F86021";
shapes = (
{
closed = 1;
nodes = (
(142,-439,l),
(479,-175,o),
(566,57,o),
(566,208,cs),
(566,363,o),
(467,436,o),
(363,436,cs),
(236,436,o),
(102,334,o),
(102,181,cs),
(102,156,o),
(104,128,o),
(109,107,c),
(170,92,o),
(237,52,o),
(272,8,c),
(229,-118,o),
(140,-237,o),
(19,-358,c)
);
},
{
closed = 1;
nodes = (
(765,-439,l),
(1102,-175,o),
(1189,57,o),
(1189,208,cs),
(1189,363,o),
(1090,436,o),
(986,436,cs),
(859,436,o),
(725,334,o),
(725,181,cs),
(725,156,o),
(727,128,o),
(732,107,c),
(793,92,o),
(860,52,o),
(895,8,c),
(852,-118,o),
(763,-237,o),
(642,-358,c)
);
}
);
width = 1357;
},
{
layerId = "C0B66080-0851-4CAD-97C1-7E69A4280B0F";
shapes = (
{
closed = 1;
nodes = (
(93,-375,l),
(324,-197,o),
(416,-19,o),
(416,113,cs),
(416,229,o),
(346,277,o),
(278,277,cs),
(176,277,o),
(109,186,o),
(109,108,cs),
(109,92,o),
(110,70,o),
(115,58,c),
(162,47,o),
(220,13,o),
(247,-16,c),
(218,-108,o),
(130,-231,o),
(30,-329,c)
);
},
{
closed = 1;
nodes = (
(537,-375,l),
(768,-197,o),
(860,-19,o),
(860,113,cs),
(860,229,o),
(791,277,o),
(722,277,cs),
(620,277,o),
(554,186,o),
(554,108,cs),
(554,92,o),
(555,70,o),
(560,58,c),
(606,47,o),
(664,13,o),
(691,-16,c),
(662,-108,o),
(574,-231,o),
(474,-329,c)
);
}
);
width = 1046;
},
{
layerId = "D16C0853-6864-4717-842E-4EFABF578FF1";
shapes = (
{
closed = 1;
nodes = (
(58,-335,l),
(218,-216,o),
(311,-75,o),
(311,40,cs),
(311,129,o),
(261,160,o),
(215,160,cs),
(132,160,o),
(110,78,o),
(110,49,cs),
(110,39,o),
(110,21,o),
(115,15,c),
(151,7,o),
(202,-23,o),
(223,-42,c),
(202,-109,o),
(119,-231,o),
(34,-311,c)
);
},
{
closed = 1;
nodes = (
(385,-335,l),
(545,-216,o),
(638,-75,o),
(638,40,cs),
(638,129,o),
(587,160,o),
(542,160,cs),
(459,160,o),
(436,78,o),
(436,49,cs),
(436,39,o),
(436,21,o),
(441,15,c),
(477,7,o),
(528,-23,o),
(550,-42,c),
(529,-109,o),
(445,-231,o),
(361,-311,c)
);
}
);
width = 834;
}
);
unicode = 8222;
},
{
glyphname = trademark;
layers = (
{
layerId = "058F6230-00F9-460F-9C2D-4FC5E161CC93";
shapes = (
{
closed = 1;
nodes = (
(793,1228,l),
(1008,1228,l),
(1072,1465,l),
(267,1465,l),
(204,1228,l),
(466,1228,l),
(390,557,l),
(717,557,l)
);
},
{
closed = 1;
nodes = (
(1324,557,l),
(1392,1025,l),
(1392,1025,o),
(1387,999,o),
(1387,999,c),
(1408,1239,l),
(1428,1239,l),
(1434,1143,l),
(1443,1025,l),
(1499,574,l),
(1843,574,l),
(1963,907,l),
(1995,998,l),
(2066,1239,l),
(2086,1239,l),
(2053,998,l),
(2016,557,l),
(2389,557,l),
(2417,1465,l),
(1883,1465,l),
(1823,1257,l),
(1787,1136,l),
(1761,1041,l),
(1741,1041,l),
(1740,1136,l),
(1738,1252,l),
(1721,1465,l),
(1202,1465,l),
(1024,557,l)
);
}
);
width = 2561;
},
{
layerId = "797B86FC-FBE9-46CE-B0B3-DC44F7F86021";
shapes = (
{
closed = 1;
nodes = (
(773,1250,l),
(1001,1250,l),
(1060,1465,l),
(270,1465,l),
(212,1250,l),
(480,1250,l),
(401,557,l),
(694,557,l)
);
},
{
closed = 1;
nodes = (
(1294,557,l),
(1364,1023,l),
(1364,1023,o),
(1364,1023,o),
(1364,1023,c),
(1386,1259,l),
(1406,1259,l),
(1418,1141,l),
(1430,1023,l),
(1494,574,l),
(1799,574,l),
(1933,928,l),
(1968,1022,l),
(2042,1259,l),
(2062,1259,l),
(2032,1022,l),
(1996,557,l),
(2325,557,l),
(2354,1465,l),
(1884,1465,l),
(1798,1212,l),
(1761,1096,l),
(1725,980,l),
(1705,980,l),
(1698,1096,l),
(1692,1212,l),
(1661,1465,l),
(1202,1465,l),
(1025,557,l)
);
}
);
width = 2502;
},
{
layerId = "C0B66080-0851-4CAD-97C1-7E69A4280B0F";
shapes = (
{
closed = 1;
nodes = (
(706,1321,l),
(977,1321,l),
(1019,1465,l),
(281,1465,l),
(239,1321,l),
(525,1321,l),
(438,557,l),
(619,557,l)
);
},
{
closed = 1;
nodes = (
(1194,557,l),
(1272,1017,l),
(1272,1017,o),
(1287,1103,o),
(1287,1103,c),
(1314,1324,l),
(1334,1324,l),
(1364,1133,l),
(1386,1017,l),
(1477,575,l),
(1653,575,l),
(1835,998,l),
(1880,1101,l),
(1963,1324,l),
(1983,1324,l),
(1962,1102,l),
(1931,557,l),
(2114,557,l),
(2146,1465,l),
(1888,1465,l),
(1716,1064,l),
(1676,965,l),
(1607,779,l),
(1587,779,l),
(1560,965,l),
(1540,1079,l),
(1462,1465,l),
(1201,1465,l),
(1027,557,l)
);
}
);
width = 2308;
},
{
layerId = "D16C0853-6864-4717-842E-4EFABF578FF1";
shapes = (
{
closed = 1;
nodes = (
(663,1365,l),
(962,1365,l),
(993,1465,l),
(287,1465,l),
(255,1365,l),
(553,1365,l),
(461,557,l),
(572,557,l)
);
},
{
closed = 1;
nodes = (
(1131,557,l),
(1217,1026,l),
(1217,1026,o),
(1240,1152,o),
(1240,1152,c),
(1270,1365,l),
(1290,1365,l),
(1328,1147,l),
(1357,1026,l),
(1466,576,l),
(1562,576,l),
(1805,1111,l),
(1856,1223,l),
(1914,1365,l),
(1934,1365,l),
(1919,1152,l),
(1891,557,l),
(1983,557,l),
(2017,1465,l),
(1890,1465,l),
(1622,870,l),
(1617,865,l),
(1532,654,l),
(1513,654,l),
(1473,865,l),
(1462,910,l),
(1338,1465,l),
(1199,1465,l),
(1028,557,l)
);
}
);
width = 2188;
}
);
unicode = 8482;
},
{
glyphname = greater;
layers = (
{
layerId = "058F6230-00F9-460F-9C2D-4FC5E161CC93";
shapes = (
{
closed = 1;
nodes = (
(1050,758,l),
(287,1185,l),
(250,860,l),
(711,602,l),
(192,344,l),
(155,19,l),
(1015,446,l)
);
}
);
width = 1174;
},
{
layerId = "797B86FC-FBE9-46CE-B0B3-DC44F7F86021";
shapes = (
{
closed = 1;
nodes = (
(1045,735,l),
(283,1174,l),
(250,885,l),
(739,602,l),
(186,319,l),
(153,30,l),
(1015,469,l)
);
}
);
width = 1172;
},
{
layerId = "C0B66080-0851-4CAD-97C1-7E69A4280B0F";
shapes = (
{
closed = 1;
nodes = (
(1029,659,l),
(270,1138,l),
(251,968,l),
(830,602,l),
(167,236,l),
(148,66,l),
(1016,545,l)
);
}
);
width = 1164;
},
{
layerId = "D16C0853-6864-4717-842E-4EFABF578FF1";
shapes = (
{
closed = 1;
nodes = (
(1019,612,l),
(261,1116,l),
(250,1020,l),
(885,602,l),
(154,184,l),
(144,88,l),
(1015,592,l)
);
}
);
width = 1159;
}
);
unicode = 62;
},
{
glyphname = ellipsis;
layers = (
{
layerId = "058F6230-00F9-460F-9C2D-4FC5E161CC93";
shapes = (
{
closed = 1;
nodes = (
(486,-20,o),
(636,94,o),
(636,260,cs),
(636,390,o),
(539,484,o),
(415,484,cs),
(270,484,o),
(124,370,o),
(124,204,cs),
(124,74,o),
(221,-20,o),
(345,-20,cs)
);
},
{
closed = 1;
nodes = (
(1149,-20,o),
(1298,94,o),
(1298,260,cs),
(1298,390,o),
(1202,484,o),
(1078,484,cs),
(933,484,o),
(787,370,o),
(787,204,cs),
(787,74,o),
(884,-20,o),
(1008,-20,cs)
);
},
{
closed = 1;
nodes = (
(1811,-20,o),
(1961,94,o),
(1961,260,cs),
(1961,390,o),
(1865,484,o),
(1740,484,cs),
(1596,484,o),
(1450,370,o),
(1450,204,cs),
(1450,74,o),
(1546,-20,o),
(1671,-20,cs)
);
}
);
width = 2143;
},
{
layerId = "797B86FC-FBE9-46CE-B0B3-DC44F7F86021";
shapes = (
{
closed = 1;
nodes = (
(450,-20,o),
(584,84,o),
(584,233,cs),
(584,350,o),
(497,436,o),
(384,436,cs),
(253,436,o),
(122,332,o),
(122,183,cs),
(122,66,o),
(209,-20,o),
(322,-20,cs)
);
},
{
closed = 1;
nodes = (
(1086,-20,o),
(1220,84,o),
(1220,233,cs),
(1220,350,o),
(1133,436,o),
(1020,436,cs),
(889,436,o),
(758,332,o),
(758,183,cs),
(758,66,o),
(845,-20,o),
(958,-20,cs)
);
},
{
closed = 1;
nodes = (
(1722,-20,o),
(1856,84,o),
(1856,233,cs),
(1856,350,o),
(1769,436,o),
(1656,436,cs),
(1525,436,o),
(1394,332,o),
(1394,183,cs),
(1394,66,o),
(1481,-20,o),
(1594,-20,cs)
);
}
);
width = 2050;
},
{
layerId = "C0B66080-0851-4CAD-97C1-7E69A4280B0F";
shapes = (
{
closed = 1;
nodes = (
(332,-20,o),
(414,51,o),
(414,143,cs),
(414,219,o),
(358,277,o),
(282,277,cs),
(196,277,o),
(114,206,o),
(114,113,cs),
(114,38,o),
(171,-20,o),
(246,-20,cs)
);
},
{
closed = 1;
nodes = (
(879,-20,o),
(961,51,o),
(961,143,cs),
(961,219,o),
(905,277,o),
(829,277,cs),
(743,277,o),
(661,206,o),
(661,113,cs),
(661,38,o),
(717,-20,o),
(793,-20,cs)
);
},
{
closed = 1;
nodes = (
(1427,-20,o),
(1510,51,o),
(1510,143,cs),
(1510,219,o),
(1453,277,o),
(1378,277,cs),
(1290,277,o),
(1210,206,o),
(1210,113,cs),
(1210,38,o),
(1266,-20,o),
(1341,-20,cs)
);
}
);
width = 1743;
},
{
layerId = "D16C0853-6864-4717-842E-4EFABF578FF1";
shapes = (
{
closed = 1;
nodes = (
(244,-20,o),
(293,22,o),
(293,80,cs),
(293,127,o),
(257,160,o),
(210,160,cs),
(158,160,o),
(108,120,o),
(108,62,cs),
(108,14,o),
(145,-20,o),
(191,-20,cs)
);
},
{
closed = 1;
nodes = (
(727,-20,o),
(777,22,o),
(777,80,cs),
(777,127,o),
(741,160,o),
(694,160,cs),
(642,160,o),
(592,120,o),
(592,62,cs),
(592,14,o),
(628,-20,o),
(675,-20,cs)
);
},
{
closed = 1;
nodes = (
(1214,-20,o),
(1265,22,o),
(1265,80,cs),
(1265,127,o),
(1227,160,o),
(1182,160,cs),
(1128,160,o),
(1080,120,o),
(1080,62,cs),
(1080,14,o),
(1116,-20,o),
(1163,-20,cs)
);
}
);
width = 1552;
}
);
unicode = 8230;
},
{
glyphname = c;
layers = (
{
layerId = "058F6230-00F9-460F-9C2D-4FC5E161CC93";
shapes = (
{
closed = 1;
nodes = (
(910,305,l),
(835,273,o),
(791,265,o),
(747,265,cs),
(638,265,o),
(542,322,o),
(542,497,cs),
(542,691,o),
(660,821,o),
(789,821,cs),
(854,821,o),
(902,790,o),
(937,771,c),
(955,781,l),
(1043,1047,l),
(931,1077,o),
(854,1080,o),
(804,1080,cs),
(417,1080,o),
(65,805,o),
(65,416,cs),
(65,167,o),
(211,-20,o),
(487,-20,cs),
(629,-20,o),
(781,30,o),
(910,137,c)
);
}
);
width = 1028;
},
{
layerId = "797B86FC-FBE9-46CE-B0B3-DC44F7F86021";
shapes = (
{
closed = 1;
nodes = (
(897,287,l),
(820,250,o),
(766,238,o),
(714,238,cs),
(590,238,o),
(488,307,o),
(488,494,cs),
(488,706,o),
(619,844,o),
(762,844,cs),
(830,844,o),
(887,813,o),
(925,792,c),
(944,802,l),
(1025,1044,l),
(924,1074,o),
(842,1080,o),
(786,1080,cs),
(409,1080,o),
(70,805,o),
(70,422,cs),
(70,167,o),
(221,-20,o),
(489,-20,cs),
(624,-20,o),
(768,28,o),
(897,132,c)
);
}
);
width = 1021;
},
{
layerId = "C0B66080-0851-4CAD-97C1-7E69A4280B0F";
shapes = (
{
closed = 1;
nodes = (
(854,227,l),
(770,173,o),
(682,150,o),
(604,150,cs),
(433,150,o),
(311,256,o),
(311,484,cs),
(311,754,o),
(483,919,o),
(674,919,cs),
(752,919,o),
(838,890,o),
(885,862,c),
(907,872,l),
(964,1033,l),
(900,1065,o),
(803,1080,o),
(726,1080,cs),
(384,1080,o),
(85,804,o),
(85,441,cs),
(85,168,o),
(253,-20,o),
(495,-20,cs),
(607,-20,o),
(726,20,o),
(854,114,c)
);
}
);
width = 997;
},
{
layerId = "D16C0853-6864-4717-842E-4EFABF578FF1";
shapes = (
{
closed = 1;
nodes = (
(827,190,l),
(739,124,o),
(629,95,o),
(538,95,cs),
(333,95,o),
(198,225,o),
(198,478,cs),
(198,784,o),
(395,966,o),
(621,966,cs),
(702,966,o),
(810,941,o),
(863,914,c),
(888,924,l),
(926,1027,l),
(885,1059,o),
(779,1080,o),
(688,1080,cs),
(368,1080,o),
(94,810,o),
(94,459,cs),
(94,175,o),
(273,-20,o),
(499,-20,cs),
(595,-20,o),
(700,15,o),
(827,96,c)
);
}
);
width = 981;
}
);
leftKerningGroup = _c_Right;
rightKerningGroup = _c_Left;
unicode = 99;
},
{
glyphname = h;
layers = (
{
layerId = "058F6230-00F9-460F-9C2D-4FC5E161CC93";
shapes = (
{
closed = 1;
nodes = (
(626,867,l),
(717,959,o),
(832,1080,o),
(1010,1080,cs),
(1205,1080,o),
(1315,935,o),
(1291,726,cs),
(1208,0,l),
(752,0,l),
(831,682,ls),
(840,763,o),
(799,795,o),
(756,795,cs),
(692,795,o),
(640,727,o),
(603,675,c),
(527,0,l),
(71,0,l),
(254,1602,l),
(710,1602,l)
);
}
);
width = 1398;
},
{
layerId = "797B86FC-FBE9-46CE-B0B3-DC44F7F86021";
shapes = (
{
closed = 1;
nodes = (
(578,856,l),
(677,960,o),
(794,1080,o),
(970,1080,cs),
(1168,1080,o),
(1273,928,o),
(1250,725,cs),
(1167,0,l),
(767,0,l),
(846,686,ls),
(856,773,o),
(815,822,o),
(756,822,cs),
(680,822,o),
(609,743,o),
(556,669,c),
(480,0,l),
(80,0,l),
(263,1602,l),
(663,1602,l)
);
}
);
width = 1366;
},
{
layerId = "C0B66080-0851-4CAD-97C1-7E69A4280B0F";
shapes = (
{
closed = 1;
nodes = (
(418,820,l),
(544,964,o),
(669,1080,o),
(839,1080,cs),
(1047,1080,o),
(1135,906,o),
(1114,721,cs),
(1031,0,l),
(815,0,l),
(896,700,ls),
(908,807,o),
(868,910,o),
(757,910,cs),
(641,910,o),
(506,796,o),
(402,648,c),
(326,0,l),
(110,0,l),
(293,1602,l),
(509,1602,l)
);
}
);
width = 1262;
},
{
layerId = "D16C0853-6864-4717-842E-4EFABF578FF1";
shapes = (
{
closed = 1;
nodes = (
(322,798,l),
(466,966,o),
(595,1080,o),
(762,1080,cs),
(976,1080,o),
(1052,893,o),
(1033,718,c),
(951,0,l),
(845,0,l),
(926,709,ls),
(939,824,o),
(905,964,o),
(761,964,cs),
(618,964,o),
(443,826,o),
(310,635,c),
(235,0,l),
(129,0,l),
(312,1602,l),
(418,1602,l)
);
}
);
width = 1201;
}
);
leftKerningGroup = _b_Right;
rightKerningGroup = _h_Left;
unicode = 104;
},
{
glyphname = i;
layers = (
{
layerId = "5171201B-12DC-4431-8FA8-A839D69F3129";
name = "#instance";
shapes = (
{
closed = 1;
nodes = (
(126,0,l),
(232,0,l),
(353,1060,l),
(247,1060,l)
);
},
{
closed = 1;
nodes = (
(379,1328,o),
(427,1376,o),
(427,1427,cs),
(427,1472,o),
(390,1509,o),
(341,1509,cs),
(289,1509,o),
(243,1464,o),
(243,1412,cs),
(243,1365,o),
(278,1328,o),
(323,1328,cs)
);
}
);
width = 480;
},
{
layerId = "058F6230-00F9-460F-9C2D-4FC5E161CC93";
shapes = (
{
closed = 1;
nodes = (
(71,0,l),
(527,0,l),
(648,1060,l),
(192,1060,l)
);
},
{
closed = 1;
nodes = (
(592,1183,o),
(715,1289,o),
(715,1416,cs),
(715,1521,o),
(633,1603,o),
(490,1603,cs),
(324,1603,o),
(202,1497,o),
(202,1370,cs),
(202,1266,o),
(284,1183,o),
(427,1183,cs)
);
}
);
width = 718;
},
{
layerId = "797B86FC-FBE9-46CE-B0B3-DC44F7F86021";
shapes = (
{
closed = 1;
nodes = (
(80,0,l),
(480,0,l),
(601,1060,l),
(201,1060,l)
);
},
{
closed = 1;
nodes = (
(558,1206,o),
(669,1302,o),
(669,1418,cs),
(669,1513,o),
(594,1588,o),
(467,1588,cs),
(320,1588,o),
(210,1492,o),
(210,1376,cs),
(210,1281,o),
(284,1206,o),
(411,1206,cs)
);
}
);
width = 680;
},
{
layerId = "C0B66080-0851-4CAD-97C1-7E69A4280B0F";
shapes = (
{
closed = 1;
nodes = (
(109,0,l),
(325,0,l),
(446,1060,l),
(230,1060,l)
);
},
{
closed = 1;
nodes = (
(445,1281,o),
(516,1345,o),
(516,1423,cs),
(516,1488,o),
(466,1539,o),
(392,1539,cs),
(306,1539,o),
(236,1475,o),
(236,1397,cs),
(236,1332,o),
(285,1281,o),
(359,1281,cs)
);
}
);
width = 555;
},
{
layerId = "D16C0853-6864-4717-842E-4EFABF578FF1";
shapes = (
{
closed = 1;
nodes = (
(126,0,l),
(232,0,l),
(353,1060,l),
(247,1060,l)
);
},
{
closed = 1;
nodes = (
(379,1328,o),
(427,1376,o),
(427,1427,cs),
(427,1472,o),
(390,1509,o),
(341,1509,cs),
(289,1509,o),
(243,1464,o),
(243,1412,cs),
(243,1365,o),
(278,1328,o),
(323,1328,cs)
);
}
);
width = 480;
}
);
unicode = 105;
},
{
glyphname = j;
layers = (
{
layerId = "5171201B-12DC-4431-8FA8-A839D69F3129";
name = "#instance";
shapes = (
{
closed = 1;
nodes = (
(-165,-560,l),
(72,-413,o),
(217,-158,o),
(243,79,c),
(355,1060,l),
(249,1060,l),
(136,68,l),
(115,-110,o),
(53,-338,o),
(-204,-505,c)
);
},
{
closed = 1;
nodes = (
(385,1328,o),
(433,1376,o),
(433,1427,cs),
(433,1472,o),
(396,1509,o),
(347,1509,cs),
(295,1509,o),
(249,1464,o),
(249,1412,cs),
(249,1365,o),
(284,1328,o),
(331,1328,cs)
);
}
);
width = 481;
},
{
layerId = "058F6230-00F9-460F-9C2D-4FC5E161CC93";
shapes = (
{
closed = 1;
nodes = (
(-43,-555,l),
(394,-410,o),
(512,-116,o),
(547,189,c),
(647,1060,l),
(191,1060,l),
(79,75,ls),
(57,-117,o),
(-31,-262,o),
(-165,-369,c)
);
},
{
closed = 1;
nodes = (
(592,1183,o),
(715,1289,o),
(715,1416,cs),
(715,1521,o),
(631,1603,o),
(489,1603,cs),
(323,1603,o),
(200,1497,o),
(200,1370,cs),
(200,1266,o),
(283,1183,o),
(426,1183,cs)
);
}
);
width = 718;
},
{
layerId = "797B86FC-FBE9-46CE-B0B3-DC44F7F86021";
shapes = (
{
closed = 1;
nodes = (
(-62,-556,l),
(344,-410,o),
(465,-122,o),
(499,172,cs),
(600,1060,l),
(200,1060,l),
(88,74,ls),
(66,-116,o),
(-18,-275,o),
(-171,-391,c)
);
},
{
closed = 1;
nodes = (
(558,1206,o),
(669,1302,o),
(669,1418,cs),
(669,1513,o),
(593,1588,o),
(467,1588,cs),
(320,1588,o),
(209,1492,o),
(209,1376,cs),
(209,1281,o),
(284,1206,o),
(411,1206,cs)
);
}
);
width = 680;
},
{
layerId = "C0B66080-0851-4CAD-97C1-7E69A4280B0F";
shapes = (
{
closed = 1;
nodes = (
(-125,-558,l),
(178,-411,o),
(310,-141,o),
(339,115,cs),
(446,1060,l),
(230,1060,l),
(117,70,ls),
(96,-112,o),
(26,-317,o),
(-190,-464,c)
);
},
{
closed = 1;
nodes = (
(447,1281,o),
(518,1345,o),
(518,1423,cs),
(518,1488,o),
(468,1539,o),
(394,1539,cs),
(309,1539,o),
(238,1475,o),
(238,1397,cs),
(238,1332,o),
(287,1281,o),
(362,1281,cs)
);
}
);
width = 555;
},
{
layerId = "D16C0853-6864-4717-842E-4EFABF578FF1";
shapes = (
{
closed = 1;
nodes = (
(-165,-560,l),
(72,-413,o),
(217,-158,o),
(243,79,c),
(355,1060,l),
(249,1060,l),
(136,68,l),
(115,-110,o),
(53,-338,o),
(-204,-505,c)
);
},
{
closed = 1;
nodes = (
(385,1328,o),
(433,1376,o),
(433,1427,cs),
(433,1472,o),
(396,1509,o),
(347,1509,cs),
(295,1509,o),
(249,1464,o),
(249,1412,cs),
(249,1365,o),
(284,1328,o),
(331,1328,cs)
);
}
);
width = 481;
}
);
unicode = 106;
},
{
glyphname = l;
layers = (
{
layerId = "5171201B-12DC-4431-8FA8-A839D69F3129";
name = "#instance";
shapes = (
{
closed = 1;
nodes = (
(129,0,l),
(235,0,l),
(418,1602,l),
(312,1602,l)
);
}
);
width = 485;
},
{
layerId = "058F6230-00F9-460F-9C2D-4FC5E161CC93";
shapes = (
{
closed = 1;
nodes = (
(71,0,l),
(527,0,l),
(710,1602,l),
(254,1602,l)
);
}
);
width = 717;
},
{
layerId = "797B86FC-FBE9-46CE-B0B3-DC44F7F86021";
shapes = (
{
closed = 1;
nodes = (
(80,0,l),
(480,0,l),
(663,1602,l),
(263,1602,l)
);
}
);
width = 680;
},
{
layerId = "C0B66080-0851-4CAD-97C1-7E69A4280B0F";
shapes = (
{
closed = 1;
nodes = (
(110,0,l),
(326,0,l),
(509,1602,l),
(293,1602,l)
);
}
);
width = 557;
},
{
layerId = "D16C0853-6864-4717-842E-4EFABF578FF1";
shapes = (
{
closed = 1;
nodes = (
(129,0,l),
(235,0,l),
(418,1602,l),
(312,1602,l)
);
}
);
width = 485;
}
);
leftKerningGroup = _b_Right;
unicode = 108;
},
{
glyphname = m;
layers = (
{
layerId = "058F6230-00F9-460F-9C2D-4FC5E161CC93";
shapes = (
{
closed = 1;
nodes = (
(192,1060,l),
(589,1060,l),
(614,854,l),
(721,964,o),
(836,1080,o),
(1002,1080,cs),
(1153,1080,o),
(1251,984,o),
(1272,842,c),
(1375,968,o),
(1505,1080,o),
(1664,1080,cs),
(1855,1080,o),
(1960,928,o),
(1937,726,cs),
(1853,0,l),
(1398,0,l),
(1476,682,ls),
(1486,762,o),
(1448,795,o),
(1409,795,cs),
(1355,795,o),
(1303,725,o),
(1266,675,c),
(1190,0,l),
(734,0,l),
(813,682,ls),
(822,761,o),
(786,795,o),
(747,795,cs),
(693,795,o),
(640,726,o),
(603,675,c),
(527,0,l),
(71,0,l)
);
}
);
width = 2043;
},
{
layerId = "797B86FC-FBE9-46CE-B0B3-DC44F7F86021";
shapes = (
{
closed = 1;
nodes = (
(201,1060,l),
(547,1060,l),
(566,843,l),
(678,962,o),
(794,1080,o),
(960,1080,cs),
(1114,1080,o),
(1210,978,o),
(1229,835,c),
(1338,966,o),
(1468,1080,o),
(1627,1080,cs),
(1818,1080,o),
(1920,924,o),
(1897,725,cs),
(1814,0,l),
(1414,0,l),
(1493,686,ls),
(1503,773,o),
(1464,822,o),
(1412,822,cs),
(1347,822,o),
(1276,743,o),
(1223,670,c),
(1147,0,l),
(747,0,l),
(826,686,ls),
(836,773,o),
(797,822,o),
(745,822,cs),
(680,822,o),
(609,743,o),
(556,669,c),
(480,0,l),
(80,0,l)
);
}
);
width = 2013;
},
{
layerId = "C0B66080-0851-4CAD-97C1-7E69A4280B0F";
shapes = (
{
closed = 1;
nodes = (
(231,1060,l),
(410,1060,l),
(407,808,l),
(535,955,o),
(657,1080,o),
(822,1080,cs),
(984,1080,o),
(1075,959,o),
(1088,811,c),
(1216,961,o),
(1345,1080,o),
(1504,1080,cs),
(1696,1080,o),
(1787,910,o),
(1766,721,cs),
(1684,0,l),
(1468,0,l),
(1548,700,ls),
(1560,810,o),
(1518,910,o),
(1421,910,cs),
(1319,910,o),
(1186,804,o),
(1080,653,c),
(1005,0,l),
(789,0,l),
(868,700,ls),
(881,814,o),
(834,910,o),
(738,910,cs),
(636,910,o),
(508,800,o),
(401,648,c),
(326,0,l),
(110,0,l)
);
}
);
width = 1914;
},
{
layerId = "D16C0853-6864-4717-842E-4EFABF578FF1";
shapes = (
{
closed = 1;
nodes = (
(250,1060,l),
(334,1060,l),
(312,786,l),
(449,951,o),
(575,1080,o),
(740,1080,cs),
(907,1080,o),
(994,948,o),
(1004,795,c),
(1145,961,o),
(1273,1080,o),
(1431,1080,cs),
(1622,1080,o),
(1708,904,o),
(1687,718,cs),
(1607,0,l),
(1500,0,l),
(1580,709,l),
(1595,833,o),
(1552,964,o),
(1428,964,cs),
(1306,964,o),
(1134,842,o),
(994,642,c),
(920,0,l),
(813,0,l),
(893,709,ls),
(908,842,o),
(855,964,o),
(735,964,cs),
(612,964,o),
(448,835,o),
(308,635,c),
(233,0,l),
(129,0,l)
);
}
);
width = 1855;
}
);
leftKerningGroup = _m_Right;
rightKerningGroup = _h_Left;
unicode = 109;
},
{
glyphname = p;
layers = (
{
layerId = "058F6230-00F9-460F-9C2D-4FC5E161CC93";
shapes = (
{
closed = 1;
nodes = (
(587,1060,l),
(190,1060,l),
(8,-536,l),
(463,-536,l),
(524,-2,l),
(564,-15,o),
(606,-20,o),
(651,-20,cs),
(962,-20,o),
(1321,258,o),
(1321,650,cs),
(1321,891,o),
(1186,1080,o),
(990,1080,cs),
(850,1080,o),
(717,982,o),
(613,872,c)
);
},
{
closed = 1;
nodes = (
(604,707,l),
(633,742,o),
(689,795,o),
(741,795,cs),
(787,795,o),
(847,753,o),
(847,606,cs),
(847,437,o),
(771,239,o),
(630,239,cs),
(596,239,o),
(574,250,o),
(555,260,c)
);
}
);
width = 1386;
},
{
layerId = "797B86FC-FBE9-46CE-B0B3-DC44F7F86021";
shapes = (
{
closed = 1;
nodes = (
(546,1060,l),
(200,1060,l),
(18,-536,l),
(418,-536,l),
(479,0,l),
(520,-13,o),
(568,-20,o),
(619,-20,cs),
(939,-20,o),
(1283,264,o),
(1283,647,cs),
(1283,884,o),
(1152,1080,o),
(950,1080,cs),
(807,1080,o),
(677,982,o),
(566,862,c)
);
},
{
closed = 1;
nodes = (
(558,698,l),
(604,759,o),
(674,822,o),
(739,822,cs),
(806,822,o),
(867,756,o),
(867,604,cs),
(867,411,o),
(768,216,o),
(610,216,cs),
(573,216,o),
(538,227,o),
(507,243,c)
);
}
);
width = 1353;
},
{
layerId = "C0B66080-0851-4CAD-97C1-7E69A4280B0F";
shapes = (
{
closed = 1;
nodes = (
(412,1060,l),
(233,1060,l),
(52,-536,l),
(268,-536,l),
(329,6,l),
(374,-7,o),
(441,-20,o),
(512,-20,cs),
(864,-20,o),
(1159,284,o),
(1159,637,cs),
(1159,862,o),
(1039,1080,o),
(817,1080,cs),
(664,1080,o),
(545,982,o),
(411,828,c)
);
},
{
closed = 1;
nodes = (
(405,669,l),
(508,816,o),
(625,910,o),
(734,910,cs),
(868,910,o),
(934,766,o),
(934,599,cs),
(934,325,o),
(759,141,o),
(545,141,cs),
(497,141,o),
(418,150,o),
(350,188,c)
);
}
);
width = 1244;
},
{
layerId = "D16C0853-6864-4717-842E-4EFABF578FF1";
shapes = (
{
closed = 1;
nodes = (
(338,1060,l),
(253,1060,l),
(73,-535,l),
(180,-535,l),
(240,10,l),
(282,-2,o),
(353,-20,o),
(443,-20,cs),
(809,-20,o),
(1085,273,o),
(1085,622,cs),
(1085,844,o),
(973,1080,o),
(738,1080,cs),
(579,1080,o),
(468,983,o),
(318,808,c)
);
},
{
closed = 1;
nodes = (
(314,651,l),
(452,851,o),
(599,965,o),
(734,965,cs),
(911,965,o),
(980,772,o),
(980,596,cs),
(980,271,o),
(758,94,o),
(508,94,cs),
(453,94,o),
(347,103,o),
(256,155,c)
);
}
);
width = 1180;
}
);
rightKerningGroup = _b_Left;
unicode = 112;
},
{
glyphname = u;
layers = (
{
layerId = "5171201B-12DC-4431-8FA8-A839D69F3129";
name = "#instance";
shapes = (
{
closed = 1;
nodes = (
(916,0,l),
(832,0,l),
(855,274,l),
(720,111,o),
(592,-20,o),
(429,-20,cs),
(235,-20,o),
(148,163,o),
(169,342,c),
(250,1060,l),
(356,1060,l),
(276,351,l),
(261,225,o),
(310,95,o),
(430,95,cs),
(553,95,o),
(719,227,o),
(859,425,c),
(932,1060,l),
(1039,1060,l)
);
}
);
width = 1165;
},
{
layerId = "058F6230-00F9-460F-9C2D-4FC5E161CC93";
shapes = (
{
closed = 1;
nodes = (
(1203,0,l),
(806,0,l),
(780,206,l),
(673,96,o),
(559,-20,o),
(386,-20,cs),
(192,-20,o),
(85,127,o),
(108,334,cs),
(192,1060,l),
(648,1060,l),
(569,378,ls),
(560,302,o),
(596,265,o),
(641,265,cs),
(699,265,o),
(751,329,o),
(791,385,c),
(868,1060,l),
(1323,1060,l)
);
}
);
width = 1395;
},
{
layerId = "797B86FC-FBE9-46CE-B0B3-DC44F7F86021";
shapes = (
{
closed = 1;
nodes = (
(1157,0,l),
(811,0,l),
(792,217,l),
(680,98,o),
(564,-20,o),
(393,-20,cs),
(199,-20,o),
(95,133,o),
(118,335,cs),
(201,1060,l),
(601,1060,l),
(522,374,ls),
(512,290,o),
(551,238,o),
(608,238,cs),
(676,238,o),
(746,313,o),
(802,391,c),
(878,1060,l),
(1278,1060,l)
);
}
);
width = 1358;
},
{
layerId = "C0B66080-0851-4CAD-97C1-7E69A4280B0F";
shapes = (
{
closed = 1;
nodes = (
(1006,0,l),
(828,0,l),
(831,252,l),
(704,106,o),
(581,-20,o),
(415,-20,cs),
(221,-20,o),
(128,152,o),
(150,339,cs),
(231,1060,l),
(447,1060,l),
(368,360,ls),
(355,250,o),
(401,150,o),
(498,150,cs),
(601,150,o),
(730,260,o),
(837,412,c),
(912,1060,l),
(1128,1060,l)
);
}
);
width = 1237;
},
{
layerId = "D16C0853-6864-4717-842E-4EFABF578FF1";
shapes = (
{
closed = 1;
nodes = (
(916,0,l),
(832,0,l),
(855,274,l),
(720,111,o),
(592,-20,o),
(429,-20,cs),
(235,-20,o),
(148,163,o),
(169,342,c),
(250,1060,l),
(356,1060,l),
(276,351,ls),
(261,225,o),
(310,95,o),
(430,95,cs),
(553,95,o),
(719,227,o),
(859,425,c),
(932,1060,l),
(1039,1060,l)
);
}
);
width = 1165;
}
);
unicode = 117;
},
{
glyphname = z;
layers = (
{
layerId = "5171201B-12DC-4431-8FA8-A839D69F3129";
name = "#instance";
shapes = (
{
closed = 1;
nodes = (
(-3,0,l),
(963,0,l),
(1048,259,l),
(759,259,l),
(579,251,l),
(581,269,l),
(697,408,l),
(1101,982,l),
(1101,1060,l),
(208,1060,l),
(123,801,l),
(337,801,l),
(518,806,l),
(515,786,l),
(390,640,l),
(-3,78,l)
);
}
);
width = 1127;
},
{
layerId = "058F6230-00F9-460F-9C2D-4FC5E161CC93";
shapes = (
{
closed = 1;
nodes = (
(-3,0,l),
(963,0,l),
(1048,259,l),
(759,259,l),
(579,251,l),
(581,269,l),
(697,408,l),
(1101,982,l),
(1101,1060,l),
(208,1060,l),
(123,801,l),
(337,801,l),
(518,806,l),
(515,786,l),
(390,640,l),
(-3,78,l)
);
}
);
width = 1127;
},
{
layerId = "797B86FC-FBE9-46CE-B0B3-DC44F7F86021";
shapes = (
{
closed = 1;
nodes = (
(9,0,l),
(942,0,l),
(1021,236,l),
(701,236,l),
(522,228,l),
(524,246,l),
(642,386,l),
(1078,984,l),
(1078,1060,l),
(213,1060,l),
(134,824,l),
(380,824,l),
(563,830,l),
(560,810,l),
(438,668,l),
(9,76,l)
);
}
);
width = 1115;
},
{
layerId = "C0B66080-0851-4CAD-97C1-7E69A4280B0F";
shapes = (
{
closed = 1;
nodes = (
(48,0,l),
(873,0,l),
(932,159,l),
(511,159,l),
(334,151,l),
(337,170,l),
(461,314,l),
(1001,989,l),
(1001,1060,l),
(230,1060,l),
(171,901,l),
(521,901,l),
(712,909,l),
(709,889,l),
(597,760,l),
(48,71,l)
);
}
);
width = 1076;
},
{
layerId = "D16C0853-6864-4717-842E-4EFABF578FF1";
shapes = (
{
closed = 1;
nodes = (
(70,0,l),
(841,0,l),
(887,108,l),
(404,108,l),
(229,100,l),
(232,120,l),
(361,270,l),
(967,997,l),
(967,1060,l),
(241,1060,l),
(194,952,l),
(610,952,l),
(804,960,l),
(802,940,l),
(696,819,l),
(70,63,l)
);
}
);
width = 1063;
}
);
unicode = 122;
},
{
glyphname = period;
layers = (
{
layerId = "058F6230-00F9-460F-9C2D-4FC5E161CC93";
shapes = (
{
closed = 1;
nodes = (
(486,-20,o),
(636,94,o),
(636,260,cs),
(636,390,o),
(539,484,o),
(415,484,cs),
(271,484,o),
(125,370,o),
(125,204,cs),
(125,74,o),
(221,-20,o),
(345,-20,cs)
);
}
);
width = 827;
},
{
layerId = "797B86FC-FBE9-46CE-B0B3-DC44F7F86021";
shapes = (
{
closed = 1;
nodes = (
(450,-20,o),
(584,84,o),
(584,233,cs),
(584,350,o),
(497,436,o),
(384,436,cs),
(253,436,o),
(122,332,o),
(122,183,cs),
(122,66,o),
(209,-20,o),
(322,-20,cs)
);
}
);
width = 778;
},
{
layerId = "C0B66080-0851-4CAD-97C1-7E69A4280B0F";
shapes = (
{
closed = 1;
nodes = (
(332,-20,o),
(413,51,o),
(413,143,cs),
(413,219,o),
(357,277,o),
(281,277,cs),
(195,277,o),
(113,206,o),
(113,113,cs),
(113,38,o),
(170,-20,o),
(245,-20,cs)
);
}
);
width = 617;
},
{
layerId = "D16C0853-6864-4717-842E-4EFABF578FF1";
shapes = (
{
closed = 1;
nodes = (
(242,-20,o),
(291,22,o),
(291,80,cs),
(291,127,o),
(255,160,o),
(208,160,cs),
(156,160,o),
(106,120,o),
(106,62,cs),
(106,14,o),
(144,-20,o),
(189,-20,cs)
);
}
);
width = 503;
}
);
unicode = 46;
},
{
glyphname = section;
layers = (
{
layerId = "058F6230-00F9-460F-9C2D-4FC5E161CC93";
shapes = (
{
closed = 1;
nodes = (
(135,-337,l),
(238,-361,o),
(386,-387,o),
(543,-387,cs),
(945,-387,o),
(1208,-220,o),
(1208,71,cs),
(1208,214,o),
(1130,286,o),
(1030,331,c),
(1148,422,o),
(1295,528,o),
(1295,707,cs),
(1295,1037,o),
(731,984,o),
(731,1148,cs),
(731,1209,o),
(801,1223,o),
(885,1223,cs),
(973,1223,o),
(1077,1204,o),
(1182,1159,c),
(1200,1168,l),
(1294,1448,l),
(1191,1475,o),
(1031,1485,o),
(934,1485,cs),
(552,1485,o),
(300,1334,o),
(300,1046,cs),
(300,900,o),
(383,827,o),
(487,783,c),
(365,689,o),
(212,590,o),
(212,407,cs),
(212,78,o),
(779,136,o),
(779,-29,cs),
(779,-90,o),
(708,-125,o),
(581,-125,cs),
(462,-125,o),
(355,-91,o),
(247,-48,c),
(229,-57,l)
);
},
{
closed = 1;
nodes = (
(898,486,o),
(847,419,o),
(818,398,c),
(702,426,o),
(612,460,o),
(612,559,cs),
(612,628,o),
(656,700,o),
(684,720,c),
(803,691,o),
(898,658,o),
(898,558,cs)
);
}
);
width = 1500;
},
{
layerId = "797B86FC-FBE9-46CE-B0B3-DC44F7F86021";
shapes = (
{
closed = 1;
nodes = (
(129,-329,l),
(234,-359,o),
(389,-387,o),
(541,-387,cs),
(922,-387,o),
(1174,-217,o),
(1174,58,cs),
(1174,193,o),
(1100,266,o),
(1004,312,c),
(1125,400,o),
(1265,508,o),
(1265,680,cs),
(1265,1011,o),
(680,959,o),
(680,1145,cs),
(680,1220,o),
(762,1246,o),
(867,1246,cs),
(957,1246,o),
(1059,1227,o),
(1163,1181,c),
(1182,1190,l),
(1267,1443,l),
(1161,1474,o),
(1011,1485,o),
(915,1485,cs),
(547,1485,o),
(302,1331,o),
(302,1055,cs),
(302,915,o),
(380,841,o),
(480,796,c),
(352,703,o),
(210,604,o),
(210,429,cs),
(210,97,o),
(796,155,o),
(796,-31,cs),
(796,-105,o),
(715,-148,o),
(578,-148,cs),
(460,-148,o),
(341,-115,o),
(233,-67,c),
(214,-76,l)
);
},
{
closed = 1;
nodes = (
(912,473,o),
(853,402,o),
(813,377,c),
(682,415,o),
(564,451,o),
(564,561,cs),
(564,638,o),
(621,710,o),
(661,734,c),
(793,696,o),
(912,661,o),
(912,551,cs)
);
}
);
width = 1468;
},
{
layerId = "C0B66080-0851-4CAD-97C1-7E69A4280B0F";
shapes = (
{
closed = 1;
nodes = (
(109,-304,l),
(221,-351,o),
(399,-387,o),
(534,-387,cs),
(845,-387,o),
(1063,-208,o),
(1063,14,cs),
(1063,125,o),
(1002,199,o),
(918,249,c),
(1048,328,o),
(1167,441,o),
(1167,590,cs),
(1167,926,o),
(511,876,o),
(511,1135,cs),
(511,1257,o),
(633,1323,o),
(807,1323,cs),
(905,1323,o),
(1000,1302,o),
(1100,1252,c),
(1123,1263,l),
(1179,1428,l),
(1063,1470,o),
(945,1485,o),
(852,1485,cs),
(530,1485,o),
(307,1321,o),
(307,1084,cs),
(307,966,o),
(369,888,o),
(456,838,c),
(309,750,o),
(202,651,o),
(202,502,cs),
(202,161,o),
(853,217,o),
(853,-39,cs),
(853,-154,o),
(739,-225,o),
(569,-225,cs),
(454,-225,o),
(294,-193,o),
(186,-129,c),
(166,-140,l)
);
},
{
closed = 1;
nodes = (
(959,429,o),
(872,347,o),
(795,307,c),
(615,380,o),
(405,422,o),
(405,566,cs),
(405,670,o),
(507,744,o),
(584,780,c),
(760,711,o),
(959,671,o),
(959,527,cs)
);
}
);
width = 1362;
},
{
layerId = "D16C0853-6864-4717-842E-4EFABF578FF1";
shapes = (
{
closed = 1;
nodes = (
(97,-285,l),
(214,-343,o),
(403,-387,o),
(531,-387,cs),
(794,-387,o),
(993,-205,o),
(993,-16,cs),
(993,81,o),
(940,156,o),
(864,209,c),
(999,283,o),
(1105,399,o),
(1105,532,cs),
(1105,866,o),
(405,827,o),
(405,1125,cs),
(405,1282,o),
(566,1370,o),
(781,1370,cs),
(886,1370,o),
(963,1348,o),
(1060,1296,c),
(1086,1308,l),
(1123,1410,l),
(998,1465,o),
(906,1485,o),
(807,1485,cs),
(522,1485,o),
(310,1318,o),
(310,1104,cs),
(310,1000,o),
(362,918,o),
(440,865,c),
(282,779,o),
(197,680,o),
(197,547,cs),
(197,202,o),
(888,253,o),
(888,-42,cs),
(888,-188,o),
(743,-274,o),
(546,-274,cs),
(443,-274,o),
(265,-252,o),
(155,-177,c),
(135,-188,l)
);
},
{
closed = 1;
nodes = (
(988,402,o),
(882,312,o),
(783,263,c),
(572,358,o),
(305,404,o),
(305,569,cs),
(305,690,o),
(436,764,o),
(536,809,c),
(739,720,o),
(988,677,o),
(988,513,cs)
);
}
);
width = 1295;
}
);
unicode = 167;
},
{
glyphname = degree;
layers = (
{
layerId = "058F6230-00F9-460F-9C2D-4FC5E161CC93";
shapes = (
{
closed = 1;
nodes = (
(218,930,o),
(377,784,o),
(583,784,cs),
(831,784,o),
(1064,979,o),
(1064,1254,cs),
(1064,1475,o),
(903,1622,o),
(697,1622,cs),
(451,1622,o),
(218,1427,o),
(218,1151,cs)
);
},
{
closed = 1;
nodes = (
(469,1324,o),
(571,1383,o),
(655,1383,cs),
(732,1383,o),
(813,1327,o),
(813,1218,cs),
(813,1080,o),
(709,1024,o),
(626,1024,cs),
(549,1024,o),
(469,1078,o),
(469,1187,cs)
);
}
);
width = 1127;
},
{
layerId = "797B86FC-FBE9-46CE-B0B3-DC44F7F86021";
shapes = (
{
closed = 1;
nodes = (
(224,941,o),
(380,797,o),
(585,797,cs),
(829,797,o),
(1057,987,o),
(1057,1259,cs),
(1057,1477,o),
(900,1622,o),
(695,1622,cs),
(452,1622,o),
(224,1432,o),
(224,1159,cs)
);
},
{
closed = 1;
nodes = (
(452,1331,o),
(556,1407,o),
(657,1407,cs),
(747,1407,o),
(829,1340,o),
(829,1226,cs),
(829,1087,o),
(723,1012,o),
(623,1012,cs),
(533,1012,o),
(452,1078,o),
(452,1192,cs)
);
}
);
width = 1125;
},
{
layerId = "C0B66080-0851-4CAD-97C1-7E69A4280B0F";
shapes = (
{
closed = 1;
nodes = (
(245,978,o),
(390,839,o),
(590,839,cs),
(823,839,o),
(1034,1013,o),
(1034,1276,cs),
(1034,1483,o),
(889,1622,o),
(689,1622,cs),
(456,1622,o),
(245,1449,o),
(245,1186,cs)
);
},
{
closed = 1;
nodes = (
(395,1353,o),
(507,1487,o),
(663,1487,cs),
(796,1487,o),
(882,1382,o),
(882,1254,cs),
(882,1109,o),
(770,974,o),
(614,974,cs),
(481,974,o),
(395,1079,o),
(395,1207,cs)
);
}
);
width = 1119;
},
{
layerId = "D16C0853-6864-4717-842E-4EFABF578FF1";
shapes = (
{
closed = 1;
nodes = (
(257,1001,o),
(395,866,o),
(593,866,cs),
(818,866,o),
(1018,1028,o),
(1018,1287,cs),
(1018,1487,o),
(881,1622,o),
(685,1622,cs),
(457,1622,o),
(257,1460,o),
(257,1201,cs)
);
},
{
closed = 1;
nodes = (
(352,1369,o),
(471,1543,o),
(668,1543,cs),
(831,1543,o),
(922,1415,o),
(922,1271,cs),
(922,1119,o),
(803,943,o),
(605,943,cs),
(443,943,o),
(352,1073,o),
(352,1217,cs)
);
}
);
width = 1114;
}
);
unicode = 176;
},
{
glyphname = quoteright;
layers = (
{
layerId = "058F6230-00F9-460F-9C2D-4FC5E161CC93";
shapes = (
{
closed = 1;
nodes = (
(287,682,l),
(656,972,o),
(741,1220,o),
(741,1377,cs),
(741,1544,o),
(633,1624,o),
(519,1624,cs),
(384,1624,o),
(230,1519,o),
(230,1343,cs),
(230,1315,o),
(232,1286,o),
(237,1262,c),
(302,1246,o),
(372,1204,o),
(409,1155,c),
(362,1019,o),
(273,901,o),
(146,773,c)
);
}
);
width = 774;
},
{
layerId = "797B86FC-FBE9-46CE-B0B3-DC44F7F86021";
shapes = (
{
closed = 1;
nodes = (
(277,747,l),
(614,1011,o),
(701,1243,o),
(701,1394,cs),
(701,1549,o),
(602,1622,o),
(498,1622,cs),
(371,1622,o),
(237,1520,o),
(237,1367,cs),
(237,1342,o),
(239,1314,o),
(244,1293,c),
(305,1278,o),
(372,1238,o),
(407,1194,c),
(364,1068,o),
(275,949,o),
(154,828,c)
);
}
);
width = 734;
},
{
layerId = "C0B66080-0851-4CAD-97C1-7E69A4280B0F";
shapes = (
{
closed = 1;
nodes = (
(245,963,l),
(476,1141,o),
(568,1319,o),
(568,1451,cs),
(568,1567,o),
(499,1615,o),
(430,1615,cs),
(328,1615,o),
(261,1524,o),
(261,1446,cs),
(261,1430,o),
(263,1408,o),
(268,1396,c),
(314,1385,o),
(372,1351,o),
(399,1322,c),
(370,1230,o),
(282,1107,o),
(182,1010,c)
);
}
);
width = 601;
},
{
layerId = "D16C0853-6864-4717-842E-4EFABF578FF1";
shapes = (
{
closed = 1;
nodes = (
(223,1117,l),
(383,1236,o),
(476,1377,o),
(476,1492,cs),
(476,1581,o),
(427,1612,o),
(380,1612,cs),
(297,1612,o),
(274,1530,o),
(274,1501,cs),
(274,1491,o),
(274,1473,o),
(279,1467,c),
(316,1459,o),
(366,1429,o),
(388,1410,c),
(367,1343,o),
(283,1221,o),
(199,1141,c)
);
}
);
width = 507;
}
);
unicode = 8217;
},
{
glyphname = f;
layers = (
{
layerId = "5171201B-12DC-4431-8FA8-A839D69F3129";
name = "#instance";
shapes = (
{
closed = 1;
nodes = (
(422,953,l),
(767,953,l),
(814,1060,l),
(433,1060,l),
(448,1180,l),
(465,1346,o),
(556,1508,o),
(737,1508,cs),
(798,1508,o),
(850,1505,o),
(897,1488,c),
(920,1498,l),
(955,1585,l),
(908,1606,o),
(864,1622,o),
(813,1622,cs),
(559,1622,o),
(364,1416,o),
(338,1141,c),
(329,1060,l),
(124,1029,l),
(103,953,l),
(317,953,l),
(150,-536,l),
(211,-536,l),
(269,-354,o),
(316,-7,o),
(340,209,cs)
);
}
);
width = 786;
},
{
layerId = "058F6230-00F9-460F-9C2D-4FC5E161CC93";
shapes = (
{
closed = 1;
nodes = (
(699,800,l),
(955,800,l),
(1040,1060,l),
(729,1060,l),
(734,1097,ls),
(755,1275,o),
(805,1363,o),
(909,1363,cs),
(945,1363,o),
(987,1351,o),
(1012,1331,c),
(1032,1341,l),
(1115,1591,l),
(1044,1613,o),
(955,1622,o),
(881,1622,cs),
(524,1622,o),
(310,1383,o),
(278,1079,cs),
(276,1060,l),
(79,980,l),
(32,800,l),
(243,800,l),
(91,-536,l),
(411,-536,l),
(504,-361,o),
(602,-54,o),
(631,209,cs)
);
}
);
width = 1015;
},
{
layerId = "797B86FC-FBE9-46CE-B0B3-DC44F7F86021";
shapes = (
{
closed = 1;
nodes = (
(656,824,l),
(926,824,l),
(1005,1060,l),
(683,1060,l),
(689,1110,ls),
(710,1286,o),
(766,1386,o),
(882,1386,cs),
(922,1386,o),
(965,1374,o),
(994,1354,c),
(1014,1364,l),
(1090,1591,l),
(1023,1612,o),
(941,1622,o),
(871,1622,cs),
(530,1622,o),
(320,1387,o),
(288,1088,cs),
(285,1060,l),
(87,988,l),
(44,824,l),
(256,824,l),
(101,-536,l),
(379,-536,l),
(467,-360,o),
(557,-47,o),
(586,209,cs)
);
}
);
width = 979;
},
{
layerId = "C0B66080-0851-4CAD-97C1-7E69A4280B0F";
shapes = (
{
closed = 1;
nodes = (
(513,902,l),
(830,902,l),
(889,1060,l),
(531,1060,l),
(542,1153,ls),
(561,1323,o),
(638,1461,o),
(794,1461,cs),
(847,1461,o),
(894,1451,o),
(934,1431,c),
(956,1441,l),
(1009,1590,l),
(954,1610,o),
(895,1622,o),
(837,1622,cs),
(549,1622,o),
(352,1401,o),
(322,1117,cs),
(316,1060,l),
(114,1013,l),
(84,902,l),
(298,902,l),
(135,-536,l),
(273,-536,l),
(345,-356,o),
(410,-23,o),
(436,209,cs)
);
}
);
width = 861;
},
{
layerId = "D16C0853-6864-4717-842E-4EFABF578FF1";
shapes = (
{
closed = 1;
nodes = (
(422,953,l),
(767,953,l),
(814,1060,l),
(433,1060,l),
(448,1180,l),
(465,1346,o),
(556,1508,o),
(737,1508,cs),
(798,1508,o),
(850,1505,o),
(897,1488,c),
(920,1498,l),
(955,1585,l),
(908,1606,o),
(864,1622,o),
(813,1622,cs),
(559,1622,o),
(364,1416,o),
(338,1141,c),
(329,1060,l),
(124,1029,l),
(103,953,l),
(317,953,l),
(150,-536,l),
(211,-536,l),
(269,-354,o),
(316,-7,o),
(340,209,cs)
);
}
);
width = 786;
}
);
leftKerningGroup = _f_Right;
rightKerningGroup = _f_Left;
unicode = 102;
},
{
glyphname = k;
layers = (
{
layerId = "5171201B-12DC-4431-8FA8-A839D69F3129";
name = "#instance";
shapes = (
{
closed = 1;
nodes = (
(129,0,l),
(235,0,l),
(418,1602,l),
(312,1602,l)
);
},
{
closed = 1;
nodes = (
(909,0,l),
(459,572,l),
(635,711,o),
(803,868,o),
(948,1060,c),
(827,1060,l),
(716,903,o),
(543,714,o),
(341,568,c),
(782,0,l)
);
}
);
width = 1015;
},
{
layerId = "058F6230-00F9-460F-9C2D-4FC5E161CC93";
shapes = (
{
closed = 1;
nodes = (
(71,0,l),
(527,0,l),
(710,1602,l),
(254,1602,l)
);
},
{
closed = 1;
nodes = (
(1289,0,l),
(1033,629,l),
(1105,697,o),
(1280,882,o),
(1356,1060,c),
(946,1060,l),
(876,861,o),
(773,712,o),
(616,561,c),
(778,0,l)
);
}
);
width = 1379;
},
{
layerId = "797B86FC-FBE9-46CE-B0B3-DC44F7F86021";
shapes = (
{
closed = 1;
nodes = (
(80,0,l),
(480,0,l),
(663,1602,l),
(263,1602,l)
);
},
{
closed = 1;
nodes = (
(1229,0,l),
(942,619,l),
(1030,698,o),
(1204,880,o),
(1291,1060,c),
(926,1060,l),
(850,868,o),
(736,712,o),
(572,562,c),
(778,0,l)
);
}
);
width = 1321;
},
{
layerId = "C0B66080-0851-4CAD-97C1-7E69A4280B0F";
shapes = (
{
closed = 1;
nodes = (
(110,0,l),
(326,0,l),
(509,1602,l),
(293,1602,l)
);
},
{
closed = 1;
nodes = (
(1030,0,l),
(642,586,l),
(784,702,o),
(954,873,o),
(1077,1060,c),
(860,1060,l),
(764,890,o),
(615,713,o),
(427,566,c),
(778,0,l)
);
}
);
width = 1129;
},
{
layerId = "D16C0853-6864-4717-842E-4EFABF578FF1";
shapes = (
{
closed = 1;
nodes = (
(129,0,l),
(235,0,l),
(418,1602,l),
(312,1602,l)
);
},
{
closed = 1;
nodes = (
(909,0,l),
(459,572,l),
(635,711,o),
(803,868,o),
(948,1060,c),
(827,1060,l),
(716,903,o),
(543,714,o),
(341,568,c),
(782,0,l)
);
}
);
width = 1015;
}
);
leftKerningGroup = _b_Right;
rightKerningGroup = _k_Left;
unicode = 107;
},
{
glyphname = v;
layers = (
{
layerId = "058F6230-00F9-460F-9C2D-4FC5E161CC93";
shapes = (
{
closed = 1;
nodes = (
(253,0,l),
(739,0,l),
(1004,331,o),
(1180,666,o),
(1279,1060,c),
(875,1060,l),
(836,792,o),
(771,540,o),
(641,309,c),
(621,309,l),
(621,389,o),
(621,453,o),
(621,534,c),
(598,1060,l),
(112,1060,l)
);
}
);
width = 1279;
},
{
layerId = "797B86FC-FBE9-46CE-B0B3-DC44F7F86021";
shapes = (
{
closed = 1;
nodes = (
(256,0,l),
(680,0,l),
(947,330,o),
(1129,664,o),
(1231,1060,c),
(872,1060,l),
(824,779,o),
(746,522,o),
(596,280,c),
(576,280,l),
(576,351,o),
(575,423,o),
(575,494,c),
(542,1060,l),
(115,1060,l)
);
}
);
width = 1231;
},
{
layerId = "C0B66080-0851-4CAD-97C1-7E69A4280B0F";
shapes = (
{
closed = 1;
nodes = (
(265,0,l),
(486,0,l),
(760,327,o),
(961,658,o),
(1074,1060,c),
(861,1060,l),
(783,735,o),
(662,462,o),
(447,185,c),
(427,185,l),
(426,224,o),
(424,323,o),
(423,363,c),
(356,1060,l),
(125,1060,l)
);
}
);
width = 1071;
},
{
layerId = "D16C0853-6864-4717-842E-4EFABF578FF1";
shapes = (
{
closed = 1;
nodes = (
(266,0,l),
(369,0,l),
(645,325,o),
(865,661,o),
(983,1060,c),
(868,1060,l),
(755,708,o),
(617,438,o),
(361,143,c),
(341,143,l),
(341,145,o),
(336,297,o),
(336,299,c),
(240,1060,l),
(131,1060,l)
);
}
);
width = 979;
}
);
unicode = 118;
},
{
glyphname = w;
layers = (
{
layerId = "058F6230-00F9-460F-9C2D-4FC5E161CC93";
shapes = (
{
closed = 1;
nodes = (
(942,0,l),
(1408,0,l),
(1673,331,o),
(1825,666,o),
(1924,1060,c),
(1521,1060,l),
(1482,792,o),
(1429,540,o),
(1310,309,c),
(1290,309,l),
(1291,346,o),
(1290,366,o),
(1290,404,c),
(1266,1060,l),
(799,1060,l),
(828,841,l),
(773,661,o),
(715,471,o),
(641,309,c),
(621,309,l),
(621,389,o),
(621,453,o),
(621,534,c),
(598,1060,l),
(112,1060,l),
(253,0,l),
(739,0,l),
(778,82,o),
(846,238,o),
(892,369,c),
(901,369,o),
(907,369,o),
(916,369,c)
);
}
);
width = 1922;
},
{
layerId = "797B86FC-FBE9-46CE-B0B3-DC44F7F86021";
shapes = (
{
closed = 1;
nodes = (
(933,0,l),
(1341,0,l),
(1608,330,o),
(1765,664,o),
(1867,1060,c),
(1508,1060,l),
(1460,779,o),
(1397,522,o),
(1257,280,c),
(1237,280,l),
(1237,315,o),
(1236,351,o),
(1236,387,c),
(1203,1060,l),
(792,1060,l),
(821,838,l),
(760,649,o),
(690,454,o),
(596,280,c),
(576,280,l),
(576,351,o),
(575,423,o),
(575,494,c),
(542,1060,l),
(115,1060,l),
(256,0,l),
(680,0,l),
(740,102,o),
(820,266,o),
(878,411,c),
(885,411,o),
(891,411,o),
(898,411,c)
);
}
);
width = 1867;
},
{
layerId = "C0B66080-0851-4CAD-97C1-7E69A4280B0F";
shapes = (
{
closed = 1;
nodes = (
(902,0,l),
(1120,0,l),
(1394,327,o),
(1566,658,o),
(1679,1060,c),
(1466,1060,l),
(1388,735,o),
(1293,462,o),
(1081,185,c),
(1061,185,l),
(1060,214,o),
(1057,302,o),
(1057,332,c),
(995,1060,l),
(770,1060,l),
(799,828,l),
(716,609,o),
(608,397,o),
(447,185,c),
(427,185,l),
(426,224,o),
(424,323,o),
(423,363,c),
(356,1060,l),
(125,1060,l),
(265,0,l),
(486,0,l),
(616,167,o),
(735,358,o),
(831,549,c),
(833,549,o),
(837,549,o),
(840,549,c)
);
}
);
width = 1686;
},
{
layerId = "D16C0853-6864-4717-842E-4EFABF578FF1";
shapes = (
{
closed = 1;
nodes = (
(872,0,l),
(981,0,l),
(1257,325,o),
(1443,661,o),
(1562,1060,c),
(1447,1060,l),
(1333,708,o),
(1228,438,o),
(973,143,c),
(953,143,l),
(952,145,o),
(948,295,o),
(948,299,c),
(864,1060,l),
(756,1060,l),
(780,835,l),
(683,578,o),
(564,372,o),
(360,143,c),
(341,143,l),
(341,145,o),
(336,297,o),
(336,299,c),
(240,1060,l),
(131,1060,l),
(266,0,l),
(368,0,l),
(539,212,o),
(682,401,o),
(803,624,c),
(803,624,o),
(804,624,o),
(804,624,c)
);
}
);
width = 1572;
}
);
unicode = 119;
},
{
glyphname = x;
layers = (
{
guides = (
{
angle = 90;
position = "{-11, 0}";
},
{
angle = 90;
position = "{1001, 0}";
}
);
layerId = "058F6230-00F9-460F-9C2D-4FC5E161CC93";
shapes = (
{
closed = 1;
nodes = (
(339,0,l),
(389,120,o),
(440,196,o),
(499,277,c),
(519,277,l),
(568,119,l),
(608,0,l),
(1113,0,l),
(826,571,l),
(993,719,o),
(1187,903,o),
(1261,1060,c),
(868,1060,l),
(836,958,o),
(788,873,o),
(714,776,c),
(693,776,l),
(638,968,l),
(605,1060,l),
(99,1060,l),
(385,500,l),
(206,343,o),
(52,185,o),
(-66,0,c)
);
}
);
width = 1238;
},
{
guides = (
{
angle = 90;
position = "{-11, 0}";
},
{
angle = 90;
position = "{1001, 0}";
}
);
layerId = "797B86FC-FBE9-46CE-B0B3-DC44F7F86021";
shapes = (
{
closed = 1;
nodes = (
(311,0,l),
(369,130,o),
(425,211,o),
(502,309,c),
(522,309,l),
(574,154,l),
(638,0,l),
(1084,0,l),
(789,566,l),
(951,712,o),
(1138,895,o),
(1224,1060,c),
(872,1060,l),
(830,948,o),
(773,856,o),
(689,752,c),
(668,752,l),
(612,934,l),
(558,1060,l),
(111,1060,l),
(400,509,l),
(223,349,o),
(69,188,o),
(-51,0,c)
);
}
);
width = 1212;
},
{
guides = (
{
angle = 90;
position = "{-11, 0}";
},
{
angle = 90;
position = "{1001, 0}";
}
);
layerId = "C0B66080-0851-4CAD-97C1-7E69A4280B0F";
shapes = (
{
closed = 1;
nodes = (
(218,0,l),
(302,162,o),
(375,261,o),
(511,413,c),
(531,413,l),
(593,268,l),
(738,0,l),
(989,0,l),
(666,550,l),
(812,690,o),
(976,867,o),
(1101,1060,c),
(886,1060,l),
(810,916,o),
(724,799,o),
(607,673,c),
(587,673,l),
(526,822,l),
(402,1060,l),
(151,1060,l),
(450,539,l),
(280,368,o),
(124,199,o),
(-2,0,c)
);
}
);
width = 1125;
},
{
guides = (
{
angle = 90;
position = "{-11, 0}";
},
{
angle = 90;
position = "{1001, 0}";
}
);
layerId = "D16C0853-6864-4717-842E-4EFABF578FF1";
shapes = (
{
closed = 1;
nodes = (
(159,0,l),
(259,181,o),
(339,287,o),
(513,473,c),
(533,473,l),
(601,334,l),
(799,0,l),
(936,0,l),
(595,539,l),
(731,677,o),
(881,849,o),
(1031,1060,c),
(907,1060,l),
(807,896,o),
(697,771,o),
(564,633,c),
(544,633,l),
(480,762,l),
(312,1060,l),
(176,1060,l),
(481,558,l),
(316,379,o),
(158,205,o),
(29,0,c)
);
}
);
width = 1077;
}
);
unicode = 120;
},
{
glyphname = quotedbl;
layers = (
{
layerId = "058F6230-00F9-460F-9C2D-4FC5E161CC93";
shapes = (
{
closed = 1;
nodes = (
(287,682,l),
(656,972,o),
(741,1220,o),
(741,1377,cs),
(741,1544,o),
(633,1624,o),
(519,1624,cs),
(384,1624,o),
(230,1519,o),
(230,1343,cs),
(230,1315,o),
(232,1286,o),
(237,1262,c),
(302,1246,o),
(372,1204,o),
(409,1155,c),
(362,1019,o),
(273,901,o),
(146,773,c)
);
},
{
closed = 1;
nodes = (
(964,682,l),
(1333,972,o),
(1418,1220,o),
(1418,1377,cs),
(1418,1544,o),
(1310,1624,o),
(1196,1624,cs),
(1061,1624,o),
(907,1519,o),
(907,1343,cs),
(907,1315,o),
(909,1286,o),
(914,1262,c),
(979,1246,o),
(1049,1204,o),
(1087,1155,c),
(1039,1019,o),
(950,901,o),
(823,773,c)
);
}
);
width = 1451;
},
{
layerId = "797B86FC-FBE9-46CE-B0B3-DC44F7F86021";
shapes = (
{
closed = 1;
nodes = (
(277,747,l),
(614,1011,o),
(701,1243,o),
(701,1394,cs),
(701,1549,o),
(602,1622,o),
(498,1622,cs),
(371,1622,o),
(237,1520,o),
(237,1367,cs),
(237,1342,o),
(239,1314,o),
(244,1293,c),
(305,1278,o),
(372,1238,o),
(407,1194,c),
(364,1068,o),
(275,949,o),
(154,828,c)
);
},
{
closed = 1;
nodes = (
(900,747,l),
(1237,1011,o),
(1324,1243,o),
(1324,1394,cs),
(1324,1549,o),
(1225,1622,o),
(1121,1622,cs),
(994,1622,o),
(860,1520,o),
(860,1367,cs),
(860,1342,o),
(862,1314,o),
(867,1293,c),
(928,1278,o),
(995,1238,o),
(1030,1194,c),
(987,1068,o),
(898,949,o),
(777,828,c)
);
}
);
width = 1357;
},
{
layerId = "C0B66080-0851-4CAD-97C1-7E69A4280B0F";
shapes = (
{
closed = 1;
nodes = (
(245,963,l),
(476,1141,o),
(568,1319,o),
(568,1451,cs),
(568,1567,o),
(499,1615,o),
(430,1615,cs),
(328,1615,o),
(261,1524,o),
(261,1446,cs),
(261,1430,o),
(263,1408,o),
(268,1396,c),
(314,1385,o),
(372,1351,o),
(399,1322,c),
(370,1230,o),
(282,1107,o),
(182,1010,c)
);
},
{
closed = 1;
nodes = (
(689,963,l),
(921,1141,o),
(1013,1319,o),
(1013,1451,cs),
(1013,1567,o),
(944,1615,o),
(874,1615,cs),
(772,1615,o),
(706,1524,o),
(706,1446,cs),
(706,1430,o),
(707,1408,o),
(712,1396,c),
(759,1385,o),
(816,1351,o),
(843,1322,c),
(814,1230,o),
(727,1107,o),
(626,1010,c)
);
}
);
width = 1046;
},
{
layerId = "D16C0853-6864-4717-842E-4EFABF578FF1";
shapes = (
{
closed = 1;
nodes = (
(223,1117,l),
(383,1236,o),
(476,1377,o),
(476,1492,cs),
(476,1581,o),
(427,1612,o),
(380,1612,cs),
(297,1612,o),
(274,1530,o),
(274,1501,cs),
(274,1491,o),
(274,1473,o),
(279,1467,c),
(316,1459,o),
(366,1429,o),
(388,1410,c),
(367,1343,o),
(283,1221,o),
(199,1141,c)
);
},
{
closed = 1;
nodes = (
(550,1117,l),
(709,1236,o),
(802,1377,o),
(802,1492,cs),
(802,1581,o),
(754,1612,o),
(707,1612,cs),
(624,1612,o),
(601,1530,o),
(601,1501,cs),
(601,1491,o),
(601,1473,o),
(606,1467,c),
(642,1459,o),
(693,1429,o),
(714,1410,c),
(694,1343,o),
(610,1221,o),
(525,1141,c)
);
}
);
width = 834;
}
);
unicode = 34;
},
{
glyphname = question;
layers = (
{
layerId = "058F6230-00F9-460F-9C2D-4FC5E161CC93";
shapes = (
{
closed = 1;
nodes = (
(612,1227,o),
(657,1195,o),
(657,1143,cs),
(657,1005,o),
(362,949,o),
(362,688,cs),
(362,671,o),
(363,651,o),
(365,635,c),
(664,635,l),
(669,670,ls),
(701,897,o),
(1131,899,o),
(1131,1202,cs),
(1131,1440,o),
(866,1485,o),
(696,1485,cs),
(554,1485,o),
(369,1459,o),
(183,1364,c),
(227,1144,l),
(245,1133,l),
(334,1186,o),
(471,1227,o),
(547,1227,cs)
);
},
{
closed = 1;
nodes = (
(595,-20,o),
(744,94,o),
(744,260,cs),
(744,390,o),
(648,484,o),
(523,484,cs),
(379,484,o),
(233,370,o),
(233,204,cs),
(233,74,o),
(330,-20,o),
(454,-20,cs)
);
}
);
width = 1159;
},
{
layerId = "797B86FC-FBE9-46CE-B0B3-DC44F7F86021";
shapes = (
{
closed = 1;
nodes = (
(624,1249,o),
(676,1212,o),
(676,1152,cs),
(676,1000,o),
(358,935,o),
(358,657,cs),
(358,640,o),
(359,620,o),
(361,604,c),
(627,604,l),
(631,636,ls),
(657,889,o),
(1093,903,o),
(1093,1207,cs),
(1093,1427,o),
(858,1485,o),
(678,1485,cs),
(541,1485,o),
(365,1458,o),
(186,1367,c),
(226,1165,l),
(243,1155,l),
(340,1213,o),
(476,1249,o),
(550,1249,cs)
);
},
{
closed = 1;
nodes = (
(563,-20,o),
(697,84,o),
(697,233,cs),
(697,350,o),
(610,436,o),
(496,436,cs),
(366,436,o),
(235,332,o),
(235,183,cs),
(235,66,o),
(322,-20,o),
(435,-20,cs)
);
}
);
width = 1116;
},
{
layerId = "C0B66080-0851-4CAD-97C1-7E69A4280B0F";
shapes = (
{
closed = 1;
nodes = (
(664,1322,o),
(738,1269,o),
(738,1183,cs),
(738,984,o),
(344,889,o),
(344,555,cs),
(344,538,o),
(345,517,o),
(347,501,c),
(504,501,l),
(505,523,l),
(512,863,o),
(969,916,o),
(969,1224,cs),
(969,1384,o),
(831,1485,o),
(620,1485,cs),
(499,1485,o),
(352,1456,o),
(196,1376,c),
(222,1235,l),
(238,1227,l),
(359,1301,o),
(493,1322,o),
(559,1322,cs)
);
},
{
closed = 1;
nodes = (
(458,-20,o),
(541,51,o),
(541,143,cs),
(541,219,o),
(484,277,o),
(408,277,cs),
(322,277,o),
(241,206,o),
(241,113,cs),
(241,38,o),
(297,-20,o),
(372,-20,cs)
);
}
);
width = 973;
},
{
layerId = "D16C0853-6864-4717-842E-4EFABF578FF1";
shapes = (
{
closed = 1;
nodes = (
(690,1367,o),
(770,1303,o),
(770,1202,cs),
(770,974,o),
(332,846,o),
(332,479,cs),
(332,462,o),
(333,441,o),
(334,423,c),
(424,423,l),
(424,448,ls),
(424,837,o),
(889,924,o),
(889,1220,cs),
(889,1351,o),
(793,1485,o),
(573,1485,cs),
(475,1485,o),
(343,1458,o),
(202,1385,c),
(220,1298,l),
(235,1292,l),
(363,1360,o),
(504,1367,o),
(559,1367,cs)
);
},
{
closed = 1;
nodes = (
(387,-20,o),
(437,22,o),
(437,80,cs),
(437,127,o),
(401,160,o),
(354,160,cs),
(303,160,o),
(252,120,o),
(252,62,cs),
(252,14,o),
(288,-20,o),
(333,-20,cs)
);
}
);
width = 883;
}
);
unicode = 63;
},
{
glyphname = A;
layers = (
{
layerId = "058F6230-00F9-460F-9C2D-4FC5E161CC93";
shapes = (
{
closed = 1;
nodes = (
(884,0,l),
(1369,0,l),
(1123,1465,l),
(550,1465,l),
(-33,0,l),
(337,0,l),
(436,298,l),
(850,298,l)
);
},
{
closed = 1;
nodes = (
(520,536,l),
(661,956,l),
(736,1195,l),
(756,1195,l),
(776,956,l),
(821,536,l)
);
}
);
width = 1456;
},
{
layerId = "797B86FC-FBE9-46CE-B0B3-DC44F7F86021";
shapes = (
{
closed = 1;
nodes = (
(928,0,l),
(1357,0,l),
(1086,1465,l),
(587,1465,l),
(-20,0,l),
(312,0,l),
(429,320,l),
(882,320,l)
);
},
{
closed = 1;
nodes = (
(509,539,l),
(675,991,l),
(748,1217,l),
(768,1217,l),
(789,991,l),
(852,539,l)
);
}
);
width = 1457;
},
{
layerId = "C0B66080-0851-4CAD-97C1-7E69A4280B0F";
shapes = (
{
closed = 1;
nodes = (
(1074,0,l),
(1316,0,l),
(965,1465,l),
(708,1465,l),
(23,0,l),
(230,0,l),
(405,392,l),
(987,392,l)
);
},
{
closed = 1;
nodes = (
(473,550,l),
(722,1108,l),
(788,1289,l),
(808,1289,l),
(833,1108,l),
(955,550,l)
);
}
);
width = 1459;
},
{
layerId = "D16C0853-6864-4717-842E-4EFABF578FF1";
shapes = (
{
closed = 1;
nodes = (
(1146,0,l),
(1284,0,l),
(900,1465,l),
(776,1465,l),
(56,0,l),
(192,0,l),
(403,438,l),
(1037,438,l)
);
},
{
closed = 1;
nodes = (
(460,556,l),
(759,1179,l),
(808,1311,l),
(828,1311,l),
(849,1179,l),
(1007,556,l)
);
}
);
width = 1462;
}
);
leftKerningGroup = _A_Right;
rightKerningGroup = _A_Left;
unicode = 65;
},
{
glyphname = B;
layers = (
{
layerId = "058F6230-00F9-460F-9C2D-4FC5E161CC93";
shapes = (
{
closed = 1;
nodes = (
(1333,925,o),
(1466,995,o),
(1466,1161,cs),
(1466,1341,o),
(1273,1465,o),
(908,1465,cs),
(264,1465,l),
(97,0,l),
(673,0,ls),
(1148,0,o),
(1450,214,o),
(1450,483,cs),
(1450,675,o),
(1293,788,o),
(1160,821,c)
);
},
{
closed = 1;
nodes = (
(632,634,l),
(755,634,ls),
(881,634,o),
(973,590,o),
(973,477,cs),
(973,356,o),
(866,262,o),
(737,262,cs),
(590,262,l)
);
},
{
closed = 1;
nodes = (
(659,871,l),
(698,1203,l),
(845,1203,ls),
(934,1203,o),
(1002,1145,o),
(1002,1056,cs),
(1002,971,o),
(953,897,o),
(911,871,c)
);
}
);
width = 1550;
},
{
layerId = "797B86FC-FBE9-46CE-B0B3-DC44F7F86021";
shapes = (
{
closed = 1;
nodes = (
(1271,915,o),
(1405,996,o),
(1405,1159,cs),
(1405,1333,o),
(1223,1465,o),
(871,1465,cs),
(277,1465,l),
(110,0,l),
(645,0,ls),
(1105,0,o),
(1391,226,o),
(1391,483,cs),
(1391,667,o),
(1242,781,o),
(1106,816,c)
);
},
{
closed = 1;
nodes = (
(589,645,l),
(734,645,ls),
(868,645,o),
(971,596,o),
(971,474,cs),
(971,349,o),
(864,239,o),
(702,239,cs),
(543,239,l)
);
},
{
closed = 1;
nodes = (
(614,864,l),
(656,1226,l),
(811,1226,ls),
(922,1226,o),
(997,1164,o),
(997,1068,cs),
(997,978,o),
(943,900,o),
(886,864,c)
);
}
);
width = 1496;
},
{
layerId = "C0B66080-0851-4CAD-97C1-7E69A4280B0F";
shapes = (
{
closed = 1;
nodes = (
(1065,881,o),
(1205,998,o),
(1205,1152,cs),
(1205,1305,o),
(1059,1465,o),
(750,1465,cs),
(320,1465,l),
(153,0,l),
(552,0,ls),
(964,0,o),
(1195,266,o),
(1195,483,cs),
(1195,640,o),
(1073,758,o),
(929,800,c)
);
},
{
closed = 1;
nodes = (
(448,682,l),
(664,682,ls),
(826,682,o),
(964,615,o),
(964,463,cs),
(964,327,o),
(856,164,o),
(587,164,cs),
(389,164,l)
);
},
{
closed = 1;
nodes = (
(466,840,l),
(519,1301,l),
(698,1301,ls),
(883,1301,o),
(980,1226,o),
(980,1107,cs),
(980,1002,o),
(909,909,o),
(803,840,c)
);
}
);
width = 1317;
},
{
layerId = "D16C0853-6864-4717-842E-4EFABF578FF1";
shapes = (
{
closed = 1;
nodes = (
(933,848,o),
(1079,986,o),
(1079,1142,cs),
(1079,1284,o),
(955,1465,o),
(674,1465,cs),
(346,1465,l),
(179,0,l),
(500,0,ls),
(883,0,o),
(1071,285,o),
(1071,477,cs),
(1071,618,o),
(967,736,o),
(817,783,c)
);
},
{
closed = 1;
nodes = (
(358,705,l),
(638,705,ls),
(790,705,o),
(958,629,o),
(958,452,cs),
(958,312,o),
(843,117,o),
(513,117,cs),
(291,117,l)
);
},
{
closed = 1;
nodes = (
(373,822,l),
(433,1348,l),
(628,1348,ls),
(857,1348,o),
(966,1265,o),
(966,1130,cs),
(966,1019,o),
(887,912,o),
(750,822,c)
);
}
);
width = 1206;
}
);
unicode = 66;
},
{
glyphname = C;
layers = (
{
layerId = "058F6230-00F9-460F-9C2D-4FC5E161CC93";
shapes = (
{
closed = 1;
nodes = (
(1287,320,l),
(1221,298,o),
(1151,265,o),
(1020,265,cs),
(744,265,o),
(584,408,o),
(584,699,cs),
(584,1017,o),
(770,1223,o),
(1044,1223,cs),
(1125,1223,o),
(1225,1204,o),
(1329,1150,c),
(1350,1158,l),
(1447,1442,l),
(1322,1474,o),
(1155,1485,o),
(1061,1485,cs),
(602,1485,o),
(100,1181,o),
(100,626,cs),
(100,224,o),
(361,-20,o),
(749,-20,cs),
(958,-20,o),
(1166,50,o),
(1287,140,c)
);
}
);
width = 1435;
},
{
layerId = "797B86FC-FBE9-46CE-B0B3-DC44F7F86021";
shapes = (
{
closed = 1;
nodes = (
(1284,303,l),
(1200,268,o),
(1113,238,o),
(990,238,cs),
(699,238,o),
(539,405,o),
(539,693,cs),
(539,1020,o),
(745,1246,o),
(1034,1246,cs),
(1117,1246,o),
(1225,1227,o),
(1333,1172,c),
(1354,1180,l),
(1441,1436,l),
(1314,1472,o),
(1152,1485,o),
(1058,1485,cs),
(601,1485,o),
(113,1174,o),
(113,629,cs),
(113,229,o),
(375,-20,o),
(756,-20,cs),
(945,-20,o),
(1154,41,o),
(1284,138,c)
);
}
);
width = 1437;
},
{
layerId = "C0B66080-0851-4CAD-97C1-7E69A4280B0F";
shapes = (
{
closed = 1;
nodes = (
(1274,246,l),
(1132,170,o),
(987,150,o),
(891,150,cs),
(552,150,o),
(391,394,o),
(391,672,cs),
(391,1031,o),
(662,1321,o),
(1002,1321,cs),
(1089,1321,o),
(1224,1304,o),
(1347,1243,c),
(1368,1252,l),
(1422,1417,l),
(1288,1467,o),
(1141,1485,o),
(1048,1485,cs),
(599,1485,o),
(157,1150,o),
(157,639,cs),
(157,244,o),
(421,-20,o),
(778,-20,cs),
(901,-20,o),
(1116,12,o),
(1275,133,c)
);
}
);
width = 1442;
},
{
layerId = "D16C0853-6864-4717-842E-4EFABF578FF1";
shapes = (
{
closed = 1;
nodes = (
(1260,200,l),
(1078,102,o),
(912,95,o),
(840,95,cs),
(456,95,o),
(298,386,o),
(298,655,cs),
(298,1039,o),
(613,1368,o),
(986,1368,cs),
(1074,1368,o),
(1234,1354,o),
(1354,1294,c),
(1375,1304,l),
(1405,1396,l),
(1274,1460,o),
(1128,1485,o),
(1033,1485,cs),
(591,1485,o),
(185,1123,o),
(185,657,cs),
(185,226,o),
(427,-20,o),
(797,-20,cs),
(872,-20,o),
(1087,-6,o),
(1262,123,c)
);
}
);
width = 1445;
}
);
leftKerningGroup = _C_Right;
rightKerningGroup = _C_Left;
unicode = 67;
},
{
glyphname = D;
layers = (
{
layerId = "058F6230-00F9-460F-9C2D-4FC5E161CC93";
shapes = (
{
closed = 1;
nodes = (
(97,0,l),
(289,0,o),
(482,-1,o),
(674,-1,c),
(1379,-2,o),
(1621,476,o),
(1621,852,cs),
(1621,1236,o),
(1365,1465,o),
(892,1465,cs),
(264,1465,l)
);
},
{
closed = 1;
nodes = (
(697,1203,l),
(836,1203,ls),
(1040,1203,o),
(1142,1096,o),
(1142,827,cs),
(1142,529,o),
(1017,262,o),
(745,262,cs),
(589,262,l)
);
}
);
width = 1672;
},
{
layerId = "797B86FC-FBE9-46CE-B0B3-DC44F7F86021";
shapes = (
{
closed = 1;
nodes = (
(110,0,l),
(294,0,o),
(478,-1,o),
(662,-1,cs),
(1347,-2,o),
(1601,471,o),
(1601,850,cs),
(1601,1225,o),
(1350,1465,o),
(877,1465,cs),
(277,1465,l)
);
},
{
closed = 1;
nodes = (
(656,1226,l),
(822,1226,ls),
(1059,1226,o),
(1180,1103,o),
(1180,824,cs),
(1180,517,o),
(1034,239,o),
(728,239,cs),
(543,239,l)
);
}
);
width = 1666;
},
{
layerId = "C0B66080-0851-4CAD-97C1-7E69A4280B0F";
shapes = (
{
closed = 1;
nodes = (
(153,0,l),
(309,0,o),
(465,0,o),
(621,0,c),
(1241,-1,o),
(1536,455,o),
(1536,842,cs),
(1536,1188,o),
(1302,1465,o),
(826,1465,cs),
(320,1465,l)
);
},
{
closed = 1;
nodes = (
(521,1301,l),
(776,1301,ls),
(1121,1301,o),
(1305,1125,o),
(1305,813,cs),
(1305,476,o),
(1091,164,o),
(673,164,cs),
(391,164,l)
);
}
);
width = 1645;
},
{
layerId = "D16C0853-6864-4717-842E-4EFABF578FF1";
shapes = (
{
closed = 1;
nodes = (
(179,0,l),
(317,0,o),
(453,0,o),
(591,0,cs),
(1170,0,o),
(1495,442,o),
(1495,834,cs),
(1495,1197,o),
(1298,1465,o),
(794,1465,cs),
(346,1465,l)
);
},
{
closed = 1;
nodes = (
(439,1348,l),
(747,1348,ls),
(1161,1348,o),
(1382,1143,o),
(1382,804,cs),
(1382,458,o),
(1122,117,o),
(631,117,cs),
(297,117,l)
);
}
);
width = 1632;
}
);
rightKerningGroup = _D_Left;
unicode = 68;
},
{
glyphname = E;
layers = (
{
layerId = "058F6230-00F9-460F-9C2D-4FC5E161CC93";
shapes = (
{
closed = 1;
nodes = (
(1080,0,l),
(1155,262,l),
(589,262,l),
(631,634,l),
(1033,634,l),
(1099,871,l),
(658,871,l),
(697,1203,l),
(1213,1203,l),
(1288,1465,l),
(264,1465,l),
(97,0,l)
);
}
);
width = 1302;
},
{
layerId = "797B86FC-FBE9-46CE-B0B3-DC44F7F86021";
shapes = (
{
closed = 1;
nodes = (
(1064,0,l),
(1133,239,l),
(543,239,l),
(589,645,l),
(1019,645,l),
(1081,864,l),
(614,864,l),
(656,1226,l),
(1197,1226,l),
(1266,1465,l),
(277,1465,l),
(110,0,l)
);
}
);
width = 1286;
},
{
layerId = "C0B66080-0851-4CAD-97C1-7E69A4280B0F";
shapes = (
{
closed = 1;
nodes = (
(1012,0,l),
(1061,164,l),
(391,164,l),
(450,682,l),
(973,682,l),
(1023,840,l),
(468,840,l),
(521,1301,l),
(1145,1301,l),
(1194,1465,l),
(320,1465,l),
(153,0,l)
);
}
);
width = 1232;
},
{
layerId = "D16C0853-6864-4717-842E-4EFABF578FF1";
shapes = (
{
closed = 1;
nodes = (
(980,0,l),
(1017,117,l),
(297,117,l),
(364,705,l),
(945,705,l),
(988,822,l),
(378,822,l),
(439,1348,l),
(1113,1348,l),
(1150,1465,l),
(346,1465,l),
(179,0,l)
);
}
);
width = 1200;
}
);
rightKerningGroup = _E_Left;
unicode = 69;
},
{
glyphname = F;
layers = (
{
layerId = "058F6230-00F9-460F-9C2D-4FC5E161CC93";
shapes = (
{
closed = 1;
nodes = (
(559,0,l),
(631,634,l),
(1033,634,l),
(1099,871,l),
(658,871,l),
(697,1203,l),
(1213,1203,l),
(1288,1465,l),
(264,1465,l),
(97,0,l)
);
}
);
width = 1268;
},
{
layerId = "797B86FC-FBE9-46CE-B0B3-DC44F7F86021";
shapes = (
{
closed = 1;
nodes = (
(516,0,l),
(589,645,l),
(1019,645,l),
(1081,864,l),
(614,864,l),
(656,1226,l),
(1197,1226,l),
(1266,1465,l),
(277,1465,l),
(110,0,l)
);
}
);
width = 1249;
},
{
layerId = "C0B66080-0851-4CAD-97C1-7E69A4280B0F";
shapes = (
{
closed = 1;
nodes = (
(373,0,l),
(450,682,l),
(973,682,l),
(1023,840,l),
(468,840,l),
(521,1301,l),
(1145,1301,l),
(1194,1465,l),
(320,1465,l),
(153,0,l)
);
}
);
width = 1186;
},
{
layerId = "D16C0853-6864-4717-842E-4EFABF578FF1";
shapes = (
{
closed = 1;
nodes = (
(284,0,l),
(364,705,l),
(945,705,l),
(988,822,l),
(378,822,l),
(439,1348,l),
(1113,1348,l),
(1150,1465,l),
(346,1465,l),
(179,0,l)
);
}
);
width = 1149;
}
);
unicode = 70;
},
{
glyphname = G;
layers = (
{
layerId = "058F6230-00F9-460F-9C2D-4FC5E161CC93";
shapes = (
{
closed = 1;
nodes = (
(859,585,l),
(1029,585,l),
(994,250,l),
(982,244,o),
(918,242,o),
(892,242,cs),
(699,242,o),
(582,402,o),
(582,676,cs),
(582,1021,o),
(769,1223,o),
(1050,1223,cs),
(1142,1223,o),
(1262,1202,o),
(1362,1149,c),
(1383,1157,l),
(1479,1441,l),
(1353,1474,o),
(1174,1485,o),
(1078,1485,cs),
(596,1485,o),
(96,1190,o),
(96,597,cs),
(96,218,o),
(298,-20,o),
(803,-20,cs),
(996,-20,o),
(1177,15,o),
(1380,86,c),
(1461,860,l),
(888,860,l)
);
}
);
width = 1564;
},
{
layerId = "797B86FC-FBE9-46CE-B0B3-DC44F7F86021";
shapes = (
{
closed = 1;
nodes = (
(836,599,l),
(1066,599,l),
(1029,235,l),
(998,224,o),
(926,219,o),
(889,219,cs),
(666,219,o),
(537,396,o),
(537,674,cs),
(537,1023,o),
(741,1246,o),
(1044,1246,cs),
(1133,1246,o),
(1255,1227,o),
(1364,1171,c),
(1385,1179,l),
(1471,1436,l),
(1344,1472,o),
(1172,1485,o),
(1073,1485,cs),
(596,1485,o),
(110,1181,o),
(110,605,cs),
(110,223,o),
(324,-20,o),
(809,-20,cs),
(988,-20,o),
(1167,13,o),
(1368,84,c),
(1448,849,l),
(862,849,l)
);
}
);
width = 1568;
},
{
layerId = "C0B66080-0851-4CAD-97C1-7E69A4280B0F";
shapes = (
{
closed = 1;
nodes = (
(747,648,l),
(1194,648,l),
(1145,186,l),
(1050,157,o),
(954,144,o),
(879,144,cs),
(558,144,o),
(390,377,o),
(390,668,cs),
(390,1029,o),
(649,1321,o),
(1024,1321,cs),
(1103,1321,o),
(1233,1308,o),
(1369,1242,c),
(1391,1252,l),
(1444,1420,l),
(1315,1467,o),
(1165,1485,o),
(1058,1485,cs),
(596,1485,o),
(157,1150,o),
(157,632,cs),
(157,241,o),
(409,-20,o),
(828,-20,cs),
(960,-20,o),
(1134,5,o),
(1327,76,c),
(1405,814,l),
(765,814,l)
);
}
);
width = 1580;
},
{
layerId = "D16C0853-6864-4717-842E-4EFABF578FF1";
shapes = (
{
closed = 1;
nodes = (
(712,684,l),
(1279,684,l),
(1223,155,l),
(1088,114,o),
(971,97,o),
(872,97,cs),
(491,97,o),
(299,353,o),
(299,659,cs),
(299,1033,o),
(587,1368,o),
(1018,1368,cs),
(1081,1368,o),
(1219,1363,o),
(1373,1290,c),
(1395,1302,l),
(1425,1402,l),
(1306,1460,o),
(1155,1485,o),
(1035,1485,cs),
(590,1485,o),
(186,1123,o),
(186,652,cs),
(186,228,o),
(430,-20,o),
(840,-20,cs),
(942,-20,o),
(1130,0,o),
(1318,71,c),
(1393,787,l),
(723,787,l)
);
}
);
width = 1587;
}
);
leftKerningGroup = _C_Right;
rightKerningGroup = _G_Left;
unicode = 71;
},
{
glyphname = H;
layers = (
{
layerId = "058F6230-00F9-460F-9C2D-4FC5E161CC93";
shapes = (
{
closed = 1;
nodes = (
(559,0,l),
(630,622,l),
(1110,622,l),
(1040,0,l),
(1502,0,l),
(1669,1465,l),
(1207,1465,l),
(1141,883,l),
(661,883,l),
(726,1465,l),
(264,1465,l),
(97,0,l)
);
}
);
width = 1719;
},
{
layerId = "797B86FC-FBE9-46CE-B0B3-DC44F7F86021";
shapes = (
{
closed = 1;
nodes = (
(516,0,l),
(588,635,l),
(1134,635,l),
(1062,0,l),
(1468,0,l),
(1635,1465,l),
(1229,1465,l),
(1162,874,l),
(616,874,l),
(683,1465,l),
(277,1465,l),
(110,0,l)
);
}
);
width = 1698;
},
{
layerId = "C0B66080-0851-4CAD-97C1-7E69A4280B0F";
shapes = (
{
closed = 1;
nodes = (
(373,0,l),
(450,679,l),
(1213,679,l),
(1136,0,l),
(1355,0,l),
(1522,1465,l),
(1303,1465,l),
(1232,843,l),
(469,843,l),
(540,1465,l),
(320,1465,l),
(153,0,l)
);
}
);
width = 1628;
},
{
layerId = "D16C0853-6864-4717-842E-4EFABF578FF1";
shapes = (
{
closed = 1;
nodes = (
(284,0,l),
(364,705,l),
(1263,705,l),
(1183,0,l),
(1288,0,l),
(1455,1465,l),
(1350,1465,l),
(1277,822,l),
(378,822,l),
(451,1465,l),
(346,1465,l),
(179,0,l)
);
}
);
width = 1589;
}
);
unicode = 72;
},
{
glyphname = I;
layers = (
{
layerId = "058F6230-00F9-460F-9C2D-4FC5E161CC93";
shapes = (
{
closed = 1;
nodes = (
(726,1465,l),
(264,1465,l),
(97,0,l),
(559,0,l)
);
}
);
width = 776;
},
{
layerId = "797B86FC-FBE9-46CE-B0B3-DC44F7F86021";
shapes = (
{
closed = 1;
nodes = (
(683,1465,l),
(277,1465,l),
(110,0,l),
(516,0,l)
);
}
);
width = 746;
},
{
layerId = "C0B66080-0851-4CAD-97C1-7E69A4280B0F";
shapes = (
{
closed = 1;
nodes = (
(540,1465,l),
(320,1465,l),
(153,0,l),
(373,0,l)
);
}
);
width = 646;
},
{
layerId = "D16C0853-6864-4717-842E-4EFABF578FF1";
shapes = (
{
closed = 1;
nodes = (
(451,1465,l),
(346,1465,l),
(179,0,l),
(284,0,l)
);
}
);
width = 585;
}
);
unicode = 73;
},
{
glyphname = J;
layers = (
{
layerId = "058F6230-00F9-460F-9C2D-4FC5E161CC93";
shapes = (
{
closed = 1;
nodes = (
(-163,-519,l),
(282,-380,o),
(543,-152,o),
(598,330,cs),
(728,1465,l),
(264,1465,l),
(123,224,ls),
(88,-83,o),
(-21,-199,o),
(-253,-340,c)
);
}
);
width = 776;
},
{
layerId = "797B86FC-FBE9-46CE-B0B3-DC44F7F86021";
shapes = (
{
closed = 1;
nodes = (
(-151,-507,l),
(276,-360,o),
(503,-123,o),
(553,317,cs),
(684,1465,l),
(277,1465,l),
(136,226,ls),
(103,-67,o),
(7,-200,o),
(-233,-346,c)
);
}
);
width = 746;
},
{
layerId = "C0B66080-0851-4CAD-97C1-7E69A4280B0F";
shapes = (
{
closed = 1;
nodes = (
(-112,-466,l),
(257,-295,o),
(370,-27,o),
(405,275,cs),
(540,1465,l),
(320,1465,l),
(180,231,ls),
(152,-14,o),
(98,-204,o),
(-168,-365,c)
);
}
);
width = 646;
},
{
layerId = "D16C0853-6864-4717-842E-4EFABF578FF1";
shapes = (
{
closed = 1;
nodes = (
(-86,-441,l),
(248,-254,o),
(290,33,o),
(312,230,cs),
(453,1465,l),
(348,1465,l),
(208,234,l),
(183,19,o),
(155,-213,o),
(-127,-383,c)
);
}
);
width = 586;
}
);
unicode = 74;
},
{
glyphname = K;
layers = (
{
layerId = "058F6230-00F9-460F-9C2D-4FC5E161CC93";
shapes = (
{
closed = 1;
nodes = (
(726,1465,l),
(264,1465,l),
(97,0,l),
(559,0,l)
);
},
{
closed = 1;
nodes = (
(1615,0,l),
(1178,854,l),
(1744,1465,l),
(1328,1465,l),
(729,740,l),
(1063,0,l)
);
}
);
width = 1719;
},
{
layerId = "797B86FC-FBE9-46CE-B0B3-DC44F7F86021";
shapes = (
{
closed = 1;
nodes = (
(683,1465,l),
(277,1465,l),
(110,0,l),
(516,0,l)
);
},
{
closed = 1;
nodes = (
(1554,0,l),
(1086,836,l),
(1680,1465,l),
(1308,1465,l),
(687,740,l),
(1066,0,l)
);
}
);
width = 1664;
},
{
layerId = "C0B66080-0851-4CAD-97C1-7E69A4280B0F";
shapes = (
{
closed = 1;
nodes = (
(540,1465,l),
(320,1465,l),
(153,0,l),
(373,0,l)
);
},
{
closed = 1;
nodes = (
(1353,0,l),
(783,776,l),
(1468,1465,l),
(1243,1465,l),
(548,740,l),
(1077,0,l)
);
}
);
width = 1484;
},
{
layerId = "D16C0853-6864-4717-842E-4EFABF578FF1";
shapes = (
{
closed = 1;
nodes = (
(451,1465,l),
(346,1465,l),
(179,0,l),
(284,0,l)
);
},
{
closed = 1;
nodes = (
(1227,0,l),
(611,743,l),
(1341,1465,l),
(1215,1465,l),
(461,740,l),
(1082,0,l)
);
}
);
width = 1374;
}
);
rightKerningGroup = _K_Left;
unicode = 75;
},
{
glyphname = L;
layers = (
{
layerId = "058F6230-00F9-460F-9C2D-4FC5E161CC93";
shapes = (
{
closed = 1;
nodes = (
(1024,0,l),
(1098,262,l),
(589,262,l),
(726,1465,l),
(264,1465,l),
(97,0,l)
);
}
);
width = 1221;
},
{
layerId = "797B86FC-FBE9-46CE-B0B3-DC44F7F86021";
shapes = (
{
closed = 1;
nodes = (
(1004,0,l),
(1073,239,l),
(543,239,l),
(683,1465,l),
(277,1465,l),
(110,0,l)
);
}
);
width = 1196;
},
{
layerId = "C0B66080-0851-4CAD-97C1-7E69A4280B0F";
shapes = (
{
closed = 1;
nodes = (
(939,0,l),
(989,164,l),
(391,164,l),
(540,1465,l),
(320,1465,l),
(153,0,l)
);
}
);
width = 1112;
},
{
layerId = "D16C0853-6864-4717-842E-4EFABF578FF1";
shapes = (
{
closed = 1;
nodes = (
(900,0,l),
(937,117,l),
(297,117,l),
(451,1465,l),
(346,1465,l),
(179,0,l)
);
}
);
width = 1062;
}
);
rightKerningGroup = _L_Left;
unicode = 76;
},
{
glyphname = M;
layers = (
{
layerId = "058F6230-00F9-460F-9C2D-4FC5E161CC93";
shapes = (
{
closed = 1;
nodes = (
(453,0,l),
(597,1051,l),
(610,1180,l),
(637,1180,l),
(649,1052,l),
(771,29,l),
(1196,29,l),
(1493,886,l),
(1591,1180,l),
(1618,1180,l),
(1582,879,l),
(1509,0,l),
(2018,0,l),
(2065,1465,l),
(1374,1465,l),
(1129,694,l),
(1085,549,l),
(1065,549,l),
(1058,694,l),
(994,1465,l),
(354,1465,l),
(67,0,l)
);
}
);
width = 2205;
},
{
layerId = "797B86FC-FBE9-46CE-B0B3-DC44F7F86021";
shapes = (
{
closed = 1;
nodes = (
(420,0,l),
(578,1073,l),
(594,1213,l),
(619,1213,l),
(636,1075,l),
(791,29,l),
(1163,29,l),
(1509,939,l),
(1603,1213,l),
(1628,1213,l),
(1597,931,l),
(1528,0,l),
(1972,0,l),
(2021,1465,l),
(1412,1465,l),
(1117,642,l),
(1068,493,l),
(1048,493,l),
(1036,642,l),
(932,1465,l),
(365,1465,l),
(80,0,l)
);
}
);
width = 2172;
},
{
layerId = "C0B66080-0851-4CAD-97C1-7E69A4280B0F";
shapes = (
{
closed = 1;
nodes = (
(312,0,l),
(516,1145,l),
(541,1321,l),
(560,1321,l),
(592,1150,l),
(858,30,l),
(1055,30,l),
(1561,1113,l),
(1642,1321,l),
(1662,1321,l),
(1646,1104,l),
(1592,0,l),
(1821,0,l),
(1876,1465,l),
(1537,1465,l),
(1078,469,l),
(1012,309,l),
(992,309,l),
(962,470,l),
(728,1465,l),
(402,1465,l),
(123,0,l)
);
}
);
width = 2064;
},
{
layerId = "D16C0853-6864-4717-842E-4EFABF578FF1";
shapes = (
{
closed = 1;
nodes = (
(254,0,l),
(485,1192,l),
(513,1367,l),
(529,1367,l),
(568,1198,l),
(910,30,l),
(997,30,l),
(1601,1200,l),
(1674,1367,l),
(1692,1367,l),
(1685,1190,l),
(1641,0,l),
(1745,0,l),
(1804,1465,l),
(1622,1465,l),
(1062,367,l),
(993,226,l),
(973,226,l),
(935,369,l),
(617,1465,l),
(436,1465,l),
(161,0,l)
);
}
);
width = 2033;
}
);
unicode = 77;
},
{
glyphname = N;
layers = (
{
layerId = "058F6230-00F9-460F-9C2D-4FC5E161CC93";
shapes = (
{
closed = 1;
nodes = (
(99,0,l),
(452,0,l),
(549,851,l),
(569,1099,l),
(589,1099,l),
(672,867,l),
(1031,0,l),
(1537,0,l),
(1704,1465,l),
(1350,1465,l),
(1278,829,l),
(1255,555,l),
(1235,555,l),
(1148,802,l),
(884,1465,l),
(266,1465,l)
);
}
);
width = 1756;
},
{
layerId = "797B86FC-FBE9-46CE-B0B3-DC44F7F86021";
shapes = (
{
closed = 1;
nodes = (
(110,0,l),
(424,0,l),
(527,908,l),
(545,1146,l),
(565,1146,l),
(646,927,l),
(1076,0,l),
(1510,0,l),
(1677,1465,l),
(1363,1465,l),
(1283,760,l),
(1263,501,l),
(1243,501,l),
(1157,732,l),
(821,1465,l),
(277,1465,l)
);
}
);
width = 1740;
},
{
layerId = "C0B66080-0851-4CAD-97C1-7E69A4280B0F";
shapes = (
{
closed = 1;
nodes = (
(146,0,l),
(330,0,l),
(455,1095,l),
(465,1302,l),
(485,1302,l),
(561,1124,l),
(1225,0,l),
(1422,0,l),
(1589,1465,l),
(1405,1465,l),
(1298,532,l),
(1288,322,l),
(1268,322,l),
(1187,502,l),
(614,1465,l),
(313,1465,l)
);
}
);
width = 1688;
},
{
layerId = "D16C0853-6864-4717-842E-4EFABF578FF1";
shapes = (
{
closed = 1;
nodes = (
(169,0,l),
(264,0,l),
(399,1183,l),
(404,1372,l),
(424,1372,l),
(502,1218,l),
(1315,0,l),
(1368,0,l),
(1535,1465,l),
(1440,1465,l),
(1318,404,l),
(1315,225,l),
(1295,225,l),
(1216,367,l),
(477,1465,l),
(336,1465,l)
);
}
);
width = 1659;
}
);
leftKerningGroup = _N_Right;
rightKerningGroup = _N_Left;
unicode = 78;
},
{
glyphname = O;
layers = (
{
guides = (
{
angle = 90;
position = "{1348, 0}";
}
);
layerId = "058F6230-00F9-460F-9C2D-4FC5E161CC93";
shapes = (
{
closed = 1;
nodes = (
(665,242,o),
(582,442,o),
(582,665,cs),
(582,936,o),
(707,1223,o),
(934,1223,cs),
(1125,1223,o),
(1208,1023,o),
(1208,800,cs),
(1208,530,o),
(1084,242,o),
(855,242,cs)
);
},
{
closed = 1;
nodes = (
(1305,-20,o),
(1688,324,o),
(1688,831,cs),
(1688,1258,o),
(1418,1485,o),
(998,1485,cs),
(478,1485,o),
(101,1138,o),
(101,633,cs),
(101,208,o),
(371,-20,o),
(791,-20,cs)
);
}
);
width = 1742;
},
{
guides = (
{
angle = 90;
position = "{1349, 0}";
}
);
layerId = "797B86FC-FBE9-46CE-B0B3-DC44F7F86021";
shapes = (
{
closed = 1;
nodes = (
(643,219,o),
(537,422,o),
(537,663,cs),
(537,953,o),
(690,1246,o),
(941,1246,cs),
(1150,1246,o),
(1257,1043,o),
(1257,801,cs),
(1257,511,o),
(1103,219,o),
(852,219,cs)
);
},
{
closed = 1;
nodes = (
(1291,-20,o),
(1679,328,o),
(1679,831,cs),
(1679,1253,o),
(1407,1485,o),
(1000,1485,cs),
(500,1485,o),
(114,1135,o),
(114,634,cs),
(114,215,o),
(385,-20,o),
(794,-20,cs)
);
}
);
width = 1746;
},
{
guides = (
{
angle = 90;
position = "{1348, 0}";
}
);
layerId = "C0B66080-0851-4CAD-97C1-7E69A4280B0F";
shapes = (
{
closed = 1;
nodes = (
(572,144,o),
(389,356,o),
(389,657,cs),
(389,1008,o),
(635,1321,o),
(963,1321,cs),
(1233,1321,o),
(1418,1108,o),
(1418,803,cs),
(1418,448,o),
(1167,144,o),
(843,144,cs)
);
},
{
closed = 1;
nodes = (
(1244,-20,o),
(1650,342,o),
(1650,830,cs),
(1650,1236,o),
(1370,1485,o),
(1007,1485,cs),
(571,1485,o),
(157,1126,o),
(157,636,cs),
(157,237,o),
(432,-20,o),
(803,-20,cs)
);
}
);
width = 1760;
},
{
guides = (
{
angle = 90;
position = "{1349, 0}";
}
);
layerId = "D16C0853-6864-4717-842E-4EFABF578FF1";
shapes = (
{
closed = 1;
nodes = (
(525,97,o),
(294,310,o),
(294,648,cs),
(294,1037,o),
(601,1368,o),
(978,1368,cs),
(1283,1368,o),
(1517,1153,o),
(1517,811,cs),
(1517,414,o),
(1205,97,o),
(832,97,cs)
);
},
{
closed = 1;
nodes = (
(1223,-20,o),
(1630,348,o),
(1630,825,cs),
(1630,1254,o),
(1380,1485,o),
(1007,1485,cs),
(606,1485,o),
(183,1123,o),
(183,641,cs),
(183,221,o),
(426,-20,o),
(813,-20,cs)
);
}
);
width = 1769;
}
);
leftKerningGroup = _C_Right;
rightKerningGroup = _D_Left;
unicode = 79;
},
{
glyphname = P;
layers = (
{
layerId = "5171201B-12DC-4431-8FA8-A839D69F3129";
name = "#instance";
shapes = (
{
closed = 1;
nodes = (
(521,1301,l),
(690,1301,ls),
(892,1301,o),
(1022,1224,o),
(1022,1021,cs),
(1022,804,o),
(873,668,o),
(643,668,cs),
(577,668,o),
(485,679,o),
(414,695,c),
(385,539,l),
(475,522,o),
(581,511,o),
(649,511,cs),
(938,511,o),
(1245,709,o),
(1245,1041,cs),
(1245,1314,o),
(1037,1465,o),
(740,1465,cs),
(320,1465,l),
(153,0,l),
(373,0,l)
);
}
);
width = 1283;
},
{
layerId = "058F6230-00F9-460F-9C2D-4FC5E161CC93";
shapes = (
{
closed = 1;
nodes = (
(697,1203,l),
(833,1203,ls),
(947,1203,o),
(1014,1143,o),
(1014,1007,cs),
(1014,885,o),
(960,704,o),
(749,704,cs),
(714,704,o),
(652,712,o),
(595,724,c),
(547,490,l),
(593,476,o),
(719,467,o),
(799,467,cs),
(1203,467,o),
(1464,699,o),
(1464,1021,cs),
(1464,1288,o),
(1285,1465,o),
(877,1465,cs),
(264,1465,l),
(97,0,l),
(559,0,l)
);
}
);
width = 1508;
},
{
layerId = "797B86FC-FBE9-46CE-B0B3-DC44F7F86021";
shapes = (
{
closed = 1;
nodes = (
(656,1226,l),
(800,1226,ls),
(934,1226,o),
(1016,1162,o),
(1016,996,cs),
(1016,866,o),
(966,696,o),
(704,696,cs),
(651,696,o),
(586,703,o),
(541,714,c),
(498,498,l),
(579,485,o),
(681,477,o),
(754,477,cs),
(1141,477,o),
(1413,701,o),
(1413,1026,cs),
(1413,1294,o),
(1227,1465,o),
(845,1465,cs),
(277,1465,l),
(110,0,l),
(516,0,l)
);
}
);
width = 1456;
},
{
layerId = "C0B66080-0851-4CAD-97C1-7E69A4280B0F";
shapes = (
{
closed = 1;
nodes = (
(521,1301,l),
(690,1301,ls),
(892,1301,o),
(1022,1224,o),
(1022,1021,cs),
(1022,804,o),
(873,668,o),
(643,668,cs),
(577,668,o),
(485,679,o),
(414,695,c),
(385,539,l),
(475,522,o),
(581,511,o),
(649,511,cs),
(938,511,o),
(1245,709,o),
(1245,1041,cs),
(1245,1314,o),
(1037,1465,o),
(740,1465,cs),
(320,1465,l),
(153,0,l),
(373,0,l)
);
}
);
width = 1283;
},
{
layerId = "D16C0853-6864-4717-842E-4EFABF578FF1";
shapes = (
{
closed = 1;
nodes = (
(439,1348,l),
(626,1348,ls),
(861,1348,o),
(1026,1265,o),
(1026,1030,cs),
(1026,756,o),
(802,650,o),
(556,650,cs),
(480,650,o),
(389,660,o),
(328,675,c),
(310,557,l),
(411,541,o),
(521,531,o),
(584,531,cs),
(843,531,o),
(1142,698,o),
(1142,1036,cs),
(1142,1327,o),
(919,1465,o),
(675,1465,cs),
(346,1465,l),
(179,0,l),
(284,0,l)
);
}
);
width = 1177;
}
);
unicode = 80;
},
{
glyphname = Q;
layers = (
{
layerId = "5171201B-12DC-4431-8FA8-A839D69F3129";
name = "#instance";
shapes = (
{
closed = 1;
nodes = (
(1615,-444,l),
(1883,-131,l),
(1237,86,l),
(1524,240,o),
(1688,502,o),
(1688,834,cs),
(1688,1247,o),
(1428,1485,o),
(998,1485,cs),
(476,1485,o),
(101,1135,o),
(101,636,cs),
(101,211,o),
(372,-20,o),
(782,-20,c)
);
},
{
closed = 1;
nodes = (
(665,242,o),
(582,442,o),
(582,665,cs),
(582,936,o),
(707,1223,o),
(934,1223,cs),
(1125,1223,o),
(1208,1023,o),
(1208,800,cs),
(1208,530,o),
(1084,242,o),
(855,242,cs)
);
}
);
width = 1741;
},
{
layerId = "058F6230-00F9-460F-9C2D-4FC5E161CC93";
shapes = (
{
closed = 1;
nodes = (
(1615,-444,l),
(1883,-131,l),
(1237,86,l),
(1524,240,o),
(1688,502,o),
(1688,834,cs),
(1688,1247,o),
(1428,1485,o),
(998,1485,cs),
(476,1485,o),
(101,1135,o),
(101,636,cs),
(101,211,o),
(372,-20,o),
(782,-20,c)
);
},
{
closed = 1;
nodes = (
(665,242,o),
(582,442,o),
(582,665,cs),
(582,936,o),
(707,1223,o),
(934,1223,cs),
(1125,1223,o),
(1208,1023,o),
(1208,800,cs),
(1208,530,o),
(1084,242,o),
(855,242,cs)
);
}
);
width = 1741;
},
{
layerId = "797B86FC-FBE9-46CE-B0B3-DC44F7F86021";
shapes = (
{
closed = 1;
nodes = (
(1631,-443,l),
(1870,-164,l),
(1196,72,l),
(1492,216,o),
(1679,488,o),
(1679,833,cs),
(1679,1244,o),
(1415,1485,o),
(1000,1485,cs),
(498,1485,o),
(114,1133,o),
(114,636,cs),
(114,217,o),
(387,-20,o),
(785,-20,c)
);
},
{
closed = 1;
nodes = (
(643,219,o),
(537,422,o),
(537,663,cs),
(537,953,o),
(690,1246,o),
(941,1246,cs),
(1150,1246,o),
(1257,1043,o),
(1257,801,cs),
(1257,511,o),
(1103,219,o),
(852,219,cs)
);
}
);
width = 1746;
},
{
layerId = "C0B66080-0851-4CAD-97C1-7E69A4280B0F";
shapes = (
{
closed = 1;
nodes = (
(1685,-439,l),
(1826,-274,l),
(1060,27,l),
(1387,137,o),
(1650,441,o),
(1650,830,cs),
(1650,1233,o),
(1372,1485,o),
(1007,1485,cs),
(571,1485,o),
(157,1126,o),
(157,637,cs),
(157,236,o),
(437,-20,o),
(796,-20,c)
);
},
{
closed = 1;
nodes = (
(572,144,o),
(389,356,o),
(389,657,cs),
(389,1008,o),
(635,1321,o),
(963,1321,cs),
(1233,1321,o),
(1418,1108,o),
(1418,803,cs),
(1418,448,o),
(1167,144,o),
(843,144,cs)
);
}
);
width = 1761;
},
{
layerId = "D16C0853-6864-4717-842E-4EFABF578FF1";
shapes = (
{
closed = 1;
nodes = (
(1731,-437,l),
(1808,-344,l),
(986,2,l),
(1335,91,o),
(1629,411,o),
(1629,813,cs),
(1629,1247,o),
(1384,1485,o),
(1000,1485,cs),
(611,1485,o),
(182,1132,o),
(182,649,cs),
(182,206,o),
(438,-20,o),
(815,-20,c)
);
},
{
closed = 1;
nodes = (
(523,97,o),
(294,310,o),
(294,648,cs),
(294,1037,o),
(603,1368,o),
(976,1368,cs),
(1285,1368,o),
(1516,1153,o),
(1516,808,cs),
(1516,413,o),
(1203,97,o),
(835,97,cs)
);
}
);
width = 1784;
}
);
leftKerningGroup = _C_Right;
rightKerningGroup = _D_Left;
unicode = 81;
},
{
glyphname = R;
layers = (
{
layerId = "058F6230-00F9-460F-9C2D-4FC5E161CC93";
shapes = (
{
closed = 1;
nodes = (
(747,513,l),
(911,0,l),
(1444,0,l),
(1120,682,l),
(1260,774,o),
(1448,912,o),
(1448,1107,cs),
(1448,1288,o),
(1285,1465,o),
(867,1465,cs),
(264,1465,l),
(97,0,l),
(559,0,l),
(618,513,l)
);
},
{
closed = 1;
nodes = (
(697,1203,l),
(812,1203,ls),
(929,1203,o),
(991,1121,o),
(991,1003,cs),
(991,863,o),
(903,780,o),
(846,750,c),
(645,750,l)
);
}
);
width = 1536;
},
{
layerId = "797B86FC-FBE9-46CE-B0B3-DC44F7F86021";
shapes = (
{
closed = 1;
nodes = (
(734,528,l),
(922,0,l),
(1391,0,l),
(1064,676,l),
(1204,767,o),
(1392,907,o),
(1392,1105,cs),
(1392,1291,o),
(1227,1465,o),
(840,1465,cs),
(277,1465,l),
(110,0,l),
(516,0,l),
(576,528,l)
);
},
{
closed = 1;
nodes = (
(656,1226,l),
(785,1226,ls),
(920,1226,o),
(989,1139,o),
(989,1017,cs),
(989,879,o),
(901,785,o),
(829,747,c),
(601,747,l)
);
}
);
width = 1491;
},
{
layerId = "C0B66080-0851-4CAD-97C1-7E69A4280B0F";
shapes = (
{
closed = 1;
nodes = (
(691,578,l),
(958,0,l),
(1217,0,l),
(878,657,l),
(1020,743,o),
(1208,890,o),
(1208,1099,cs),
(1208,1301,o),
(1035,1465,o),
(752,1465,cs),
(320,1465,l),
(153,0,l),
(373,0,l),
(438,578,l)
);
},
{
closed = 1;
nodes = (
(521,1301,l),
(696,1301,ls),
(891,1301,o),
(983,1200,o),
(983,1064,cs),
(983,932,o),
(896,800,o),
(772,736,c),
(456,736,l)
);
}
);
width = 1344;
},
{
layerId = "D16C0853-6864-4717-842E-4EFABF578FF1";
shapes = (
{
closed = 1;
nodes = (
(660,609,l),
(983,0,l),
(1112,0,l),
(778,643,l),
(903,722,o),
(1096,876,o),
(1096,1095,cs),
(1096,1308,o),
(916,1465,o),
(698,1465,cs),
(346,1465,l),
(179,0,l),
(284,0,l),
(353,609,l)
);
},
{
closed = 1;
nodes = (
(439,1348,l),
(642,1348,ls),
(875,1348,o),
(979,1238,o),
(979,1094,cs),
(979,965,o),
(893,806,o),
(737,726,c),
(366,726,l)
);
}
);
width = 1254;
}
);
rightKerningGroup = _R_Left;
unicode = 82;
},
{
glyphname = S;
layers = (
{
layerId = "5171201B-12DC-4431-8FA8-A839D69F3129";
name = "#instance";
shapes = (
{
closed = 1;
nodes = (
(404,97,o),
(245,131,o),
(130,201,c),
(111,191,l),
(83,97,l),
(226,29,o),
(335,-20,o),
(483,-20,cs),
(789,-20,o),
(1029,191,o),
(1029,416,cs),
(1029,789,o),
(369,766,o),
(369,1101,cs),
(369,1238,o),
(481,1368,o),
(717,1368,cs),
(769,1368,o),
(908,1365,o),
(1053,1307,c),
(1076,1317,l),
(1106,1411,l),
(963,1464,o),
(847,1485,o),
(751,1485,cs),
(495,1485,o),
(265,1324,o),
(265,1084,cs),
(265,679,o),
(921,713,o),
(921,395,cs),
(921,233,o),
(752,97,o),
(519,97,cs)
);
}
);
width = 1213;
},
{
layerId = "058F6230-00F9-460F-9C2D-4FC5E161CC93";
shapes = (
{
closed = 1;
nodes = (
(376,242,o),
(276,296,o),
(121,366,c),
(99,356,l),
(3,72,l),
(165,0,o),
(357,-20,o),
(488,-20,cs),
(891,-20,o),
(1147,180,o),
(1147,474,cs),
(1147,908,o),
(597,881,o),
(597,1098,cs),
(597,1179,o),
(675,1223,o),
(787,1223,cs),
(868,1223,o),
(990,1200,o),
(1096,1149,c),
(1113,1157,l),
(1210,1439,l),
(1077,1474,o),
(901,1485,o),
(806,1485,cs),
(411,1485,o),
(157,1289,o),
(157,1004,cs),
(157,583,o),
(707,608,o),
(707,378,cs),
(707,273,o),
(591,242,o),
(498,242,cs)
);
}
);
width = 1201;
},
{
layerId = "797B86FC-FBE9-46CE-B0B3-DC44F7F86021";
shapes = (
{
closed = 1;
nodes = (
(384,219,o),
(276,270,o),
(127,341,c),
(105,331,l),
(19,75,l),
(176,4,o),
(356,-20,o),
(490,-20,cs),
(877,-20,o),
(1131,182,o),
(1131,464,cs),
(1131,887,o),
(562,863,o),
(562,1099,cs),
(562,1190,o),
(647,1246,o),
(775,1246,cs),
(853,1246,o),
(978,1225,o),
(1090,1172,c),
(1108,1180,l),
(1195,1435,l),
(1060,1473,o),
(893,1485,o),
(799,1485,cs),
(425,1485,o),
(175,1294,o),
(175,1017,cs),
(175,599,o),
(743,624,o),
(743,380,cs),
(743,266,o),
(620,219,o),
(505,219,cs)
);
}
);
width = 1206;
},
{
layerId = "C0B66080-0851-4CAD-97C1-7E69A4280B0F";
shapes = (
{
closed = 1;
nodes = (
(410,144,o),
(275,185,o),
(146,258,c),
(126,248,l),
(73,84,l),
(213,18,o),
(354,-20,o),
(495,-20,cs),
(832,-20,o),
(1079,190,o),
(1079,432,cs),
(1079,818,o),
(448,804,o),
(448,1103,cs),
(448,1226,o),
(554,1321,o),
(737,1321,cs),
(805,1321,o),
(937,1308,o),
(1071,1248,c),
(1092,1257,l),
(1146,1423,l),
(1005,1469,o),
(868,1485,o),
(776,1485,cs),
(472,1485,o),
(236,1311,o),
(236,1060,cs),
(236,651,o),
(863,676,o),
(863,386,cs),
(863,244,o),
(715,144,o),
(529,144,cs)
);
}
);
width = 1223;
},
{
layerId = "D16C0853-6864-4717-842E-4EFABF578FF1";
shapes = (
{
closed = 1;
nodes = (
(404,97,o),
(245,131,o),
(130,201,c),
(111,191,l),
(83,97,l),
(226,29,o),
(335,-20,o),
(483,-20,cs),
(789,-20,o),
(1029,191,o),
(1029,416,cs),
(1029,789,o),
(369,766,o),
(369,1101,cs),
(369,1238,o),
(481,1368,o),
(717,1368,cs),
(769,1368,o),
(908,1365,o),
(1053,1307,c),
(1076,1317,l),
(1106,1411,l),
(963,1464,o),
(847,1485,o),
(751,1485,cs),
(495,1485,o),
(265,1324,o),
(265,1084,cs),
(265,679,o),
(921,713,o),
(921,395,cs),
(921,233,o),
(752,97,o),
(519,97,cs)
);
}
);
width = 1213;
}
);
unicode = 83;
},
{
glyphname = T;
layers = (
{
layerId = "058F6230-00F9-460F-9C2D-4FC5E161CC93";
shapes = (
{
closed = 1;
nodes = (
(1032,1203,l),
(1416,1203,l),
(1490,1465,l),
(214,1465,l),
(140,1203,l),
(570,1203,l),
(432,0,l),
(895,0,l)
);
}
);
width = 1446;
},
{
layerId = "797B86FC-FBE9-46CE-B0B3-DC44F7F86021";
shapes = (
{
closed = 1;
nodes = (
(990,1226,l),
(1393,1226,l),
(1462,1465,l),
(209,1465,l),
(140,1226,l),
(584,1226,l),
(444,0,l),
(850,0,l)
);
}
);
width = 1415;
},
{
layerId = "C0B66080-0851-4CAD-97C1-7E69A4280B0F";
shapes = (
{
closed = 1;
nodes = (
(850,1301,l),
(1318,1301,l),
(1368,1465,l),
(191,1465,l),
(141,1301,l),
(631,1301,l),
(482,0,l),
(702,0,l)
);
}
);
width = 1314;
},
{
layerId = "D16C0853-6864-4717-842E-4EFABF578FF1";
shapes = (
{
closed = 1;
nodes = (
(770,1348,l),
(1279,1348,l),
(1316,1465,l),
(178,1465,l),
(141,1348,l),
(665,1348,l),
(511,0,l),
(616,0,l)
);
}
);
width = 1258;
}
);
unicode = 84;
},
{
glyphname = U;
layers = (
{
layerId = "058F6230-00F9-460F-9C2D-4FC5E161CC93";
shapes = (
{
closed = 1;
nodes = (
(253,1465,l),
(147,537,ls),
(107,174,o),
(305,-20,o),
(688,-20,cs),
(1101,-20,o),
(1358,198,o),
(1401,578,cs),
(1503,1465,l),
(1149,1465,l),
(1042,521,ls),
(1021,337,o),
(919,242,o),
(785,242,cs),
(649,242,o),
(588,340,o),
(609,518,cs),
(716,1465,l)
);
}
);
width = 1543;
},
{
layerId = "797B86FC-FBE9-46CE-B0B3-DC44F7F86021";
shapes = (
{
closed = 1;
nodes = (
(266,1465,l),
(161,541,ls),
(120,178,o),
(322,-20,o),
(693,-20,cs),
(1104,-20,o),
(1349,222,o),
(1389,573,cs),
(1491,1465,l),
(1177,1465,l),
(1070,525,ls),
(1047,323,o),
(925,219,o),
(777,219,cs),
(629,219,o),
(543,324,o),
(566,526,cs),
(673,1465,l)
);
}
);
width = 1544;
},
{
layerId = "C0B66080-0851-4CAD-97C1-7E69A4280B0F";
shapes = (
{
closed = 1;
nodes = (
(310,1465,l),
(206,555,ls),
(164,190,o),
(378,-20,o),
(709,-20,cs),
(1114,-20,o),
(1319,300,o),
(1348,555,cs),
(1452,1465,l),
(1268,1465,l),
(1163,537,ls),
(1133,276,o),
(944,144,o),
(752,144,cs),
(562,144,o),
(393,271,o),
(425,552,cs),
(530,1465,l)
);
}
);
width = 1548;
},
{
layerId = "D16C0853-6864-4717-842E-4EFABF578FF1";
shapes = (
{
closed = 1;
nodes = (
(335,1465,l),
(231,555,l),
(187,173,o),
(395,-20,o),
(723,-20,cs),
(1134,-20,o),
(1300,364,o),
(1322,554,cs),
(1425,1465,l),
(1332,1465,l),
(1228,544,l),
(1195,246,o),
(951,97,o),
(726,97,cs),
(506,97,o),
(300,239,o),
(338,568,c),
(440,1465,l)
);
}
);
width = 1551;
}
);
unicode = 85;
},
{
glyphname = V;
layers = (
{
layerId = "058F6230-00F9-460F-9C2D-4FC5E161CC93";
shapes = (
{
closed = 1;
nodes = (
(850,573,l),
(777,348,l),
(757,348,l),
(735,573,l),
(619,1465,l),
(134,1465,l),
(399,0,l),
(935,0,l),
(1536,1465,l),
(1167,1465,l)
);
}
);
width = 1456;
},
{
layerId = "797B86FC-FBE9-46CE-B0B3-DC44F7F86021";
shapes = (
{
closed = 1;
nodes = (
(835,526,l),
(764,312,l),
(744,312,l),
(721,526,l),
(576,1465,l),
(147,1465,l),
(433,0,l),
(902,0,l),
(1524,1465,l),
(1192,1465,l)
);
}
);
width = 1457;
},
{
layerId = "C0B66080-0851-4CAD-97C1-7E69A4280B0F";
shapes = (
{
closed = 1;
nodes = (
(786,372,l),
(720,194,l),
(700,194,l),
(674,372,l),
(433,1465,l),
(190,1465,l),
(545,0,l),
(794,0,l),
(1483,1465,l),
(1276,1465,l)
);
}
);
width = 1459;
},
{
layerId = "D16C0853-6864-4717-842E-4EFABF578FF1";
shapes = (
{
closed = 1;
nodes = (
(750,285,l),
(701,154,l),
(681,154,l),
(660,285,l),
(359,1465,l),
(228,1465,l),
(610,0,l),
(728,0,l),
(1443,1465,l),
(1320,1465,l)
);
}
);
width = 1459;
}
);
unicode = 86;
},
{
glyphname = W;
layers = (
{
layerId = "058F6230-00F9-460F-9C2D-4FC5E161CC93";
shapes = (
{
closed = 1;
nodes = (
(999,1357,l),
(774,579,l),
(712,348,l),
(692,348,l),
(682,578,l),
(626,1465,l),
(149,1465,l),
(309,0,l),
(879,0,l),
(1061,649,l),
(1128,908,l),
(1148,908,l),
(1155,649,l),
(1191,0,l),
(1748,0,l),
(2241,1465,l),
(1879,1465,l),
(1621,579,l),
(1563,348,l),
(1543,348,l),
(1530,578,l),
(1486,1357,l)
);
}
);
width = 2176;
},
{
layerId = "797B86FC-FBE9-46CE-B0B3-DC44F7F86021";
shapes = (
{
closed = 1;
nodes = (
(1021,1357,l),
(755,529,l),
(694,312,l),
(674,312,l),
(664,529,l),
(583,1465,l),
(162,1465,l),
(342,0,l),
(841,0,l),
(1069,713,l),
(1136,956,l),
(1156,956,l),
(1167,713,l),
(1234,0,l),
(1723,0,l),
(2236,1465,l),
(1912,1465,l),
(1618,529,l),
(1561,312,l),
(1541,312,l),
(1527,529,l),
(1451,1357,l)
);
}
);
width = 2184;
},
{
layerId = "C0B66080-0851-4CAD-97C1-7E69A4280B0F";
shapes = (
{
closed = 1;
nodes = (
(1093,1358,l),
(691,365,l),
(636,194,l),
(616,194,l),
(604,368,l),
(440,1465,l),
(205,1465,l),
(451,0,l),
(717,0,l),
(1096,925,l),
(1162,1113,l),
(1183,1113,l),
(1206,925,l),
(1376,0,l),
(1642,0,l),
(2221,1465,l),
(2020,1465,l),
(1607,365,l),
(1555,194,l),
(1535,194,l),
(1518,367,l),
(1335,1358,l)
);
}
);
width = 2212;
},
{
layerId = "D16C0853-6864-4717-842E-4EFABF578FF1";
shapes = (
{
closed = 1;
nodes = (
(1153,1360,l),
(603,128,l),
(622,154,l),
(601,154,l),
(593,272,l),
(367,1465,l),
(242,1465,l),
(525,0,l),
(657,0,l),
(1135,1078,l),
(1186,1179,l),
(1208,1179,l),
(1237,1078,l),
(1474,0,l),
(1611,0,l),
(2228,1465,l),
(2107,1465,l),
(1562,134,l),
(1578,154,l),
(1557,154,l),
(1543,270,l),
(1278,1360,l)
);
}
);
width = 2258;
}
);
unicode = 87;
},
{
glyphname = X;
layers = (
{
layerId = "058F6230-00F9-460F-9C2D-4FC5E161CC93";
shapes = (
{
closed = 1;
nodes = (
(374,0,l),
(566,267,l),
(694,457,l),
(714,457,l),
(796,269,l),
(920,0,l),
(1455,0,l),
(1016,794,l),
(1598,1465,l),
(1185,1465,l),
(1047,1267,l),
(904,1056,l),
(884,1056,l),
(796,1259,l),
(699,1465,l),
(164,1465,l),
(577,723,l),
(-37,0,l)
);
}
);
width = 1538;
},
{
layerId = "797B86FC-FBE9-46CE-B0B3-DC44F7F86021";
shapes = (
{
closed = 1;
nodes = (
(342,0,l),
(574,312,l),
(698,493,l),
(718,493,l),
(797,314,l),
(952,0,l),
(1423,0,l),
(982,786,l),
(1566,1465,l),
(1198,1465,l),
(1012,1212,l),
(878,1016,l),
(858,1016,l),
(774,1207,l),
(646,1465,l),
(175,1465,l),
(590,726,l),
(-25,0,l)
);
}
);
width = 1518;
},
{
layerId = "C0B66080-0851-4CAD-97C1-7E69A4280B0F";
shapes = (
{
closed = 1;
nodes = (
(236,0,l),
(601,461,l),
(711,613,l),
(731,613,l),
(801,462,l),
(1057,0,l),
(1316,0,l),
(869,760,l),
(1462,1465,l),
(1240,1465,l),
(895,1031,l),
(792,883,l),
(772,883,l),
(702,1036,l),
(470,1465,l),
(210,1465,l),
(632,736,l),
(14,0,l)
);
}
);
width = 1451;
},
{
layerId = "D16C0853-6864-4717-842E-4EFABF578FF1";
shapes = (
{
closed = 1;
nodes = (
(172,0,l),
(618,560,l),
(712,690,l),
(732,690,l),
(793,565,l),
(1125,0,l),
(1258,0,l),
(805,748,l),
(1402,1465,l),
(1266,1465,l),
(811,909,l),
(739,810,l),
(719,810,l),
(659,924,l),
(351,1465,l),
(216,1465,l),
(645,740,l),
(37,0,l)
);
}
);
width = 1417;
}
);
unicode = 88;
},
{
glyphname = Y;
layers = (
{
layerId = "058F6230-00F9-460F-9C2D-4FC5E161CC93";
shapes = (
{
closed = 1;
nodes = (
(1557,1465,l),
(1151,1465,l),
(962,1131,l),
(847,915,l),
(827,915,l),
(763,1128,l),
(644,1465,l),
(114,1465,l),
(511,624,l),
(440,0,l),
(902,0,l),
(975,637,l)
);
}
);
width = 1457;
},
{
layerId = "797B86FC-FBE9-46CE-B0B3-DC44F7F86021";
shapes = (
{
closed = 1;
nodes = (
(1518,1465,l),
(1157,1465,l),
(926,1084,l),
(818,883,l),
(798,883,l),
(737,1083,l),
(592,1465,l),
(127,1465,l),
(524,624,l),
(453,0,l),
(859,0,l),
(932,636,l)
);
}
);
width = 1431;
},
{
layerId = "C0B66080-0851-4CAD-97C1-7E69A4280B0F";
shapes = (
{
closed = 1;
nodes = (
(1388,1465,l),
(1176,1465,l),
(808,928,l),
(723,779,l),
(703,779,l),
(650,934,l),
(419,1465,l),
(170,1465,l),
(568,625,l),
(497,0,l),
(717,0,l),
(789,632,l)
);
}
);
width = 1344;
},
{
layerId = "D16C0853-6864-4717-842E-4EFABF578FF1";
shapes = (
{
closed = 1;
nodes = (
(1303,1465,l),
(1183,1465,l),
(630,701,l),
(657,736,l),
(637,736,l),
(603,824,l),
(302,1465,l),
(187,1465,l),
(593,615,l),
(523,0,l),
(628,0,l),
(699,620,l)
);
}
);
width = 1277;
}
);
unicode = 89;
},
{
glyphname = Z;
layers = (
{
layerId = "058F6230-00F9-460F-9C2D-4FC5E161CC93";
shapes = (
{
closed = 1;
nodes = (
(634,1017,l),
(22,77,l),
(12,0,l),
(1187,0,l),
(1262,262,l),
(788,262,l),
(602,254,l),
(604,271,l),
(737,441,l),
(1364,1391,l),
(1373,1465,l),
(294,1465,l),
(219,1203,l),
(583,1203,l),
(773,1209,l),
(771,1189,l)
);
}
);
width = 1367;
},
{
layerId = "797B86FC-FBE9-46CE-B0B3-DC44F7F86021";
shapes = (
{
closed = 1;
nodes = (
(689,1050,l),
(29,76,l),
(20,0,l),
(1175,0,l),
(1244,239,l),
(727,239,l),
(541,231,l),
(543,249,l),
(671,409,l),
(1342,1389,l),
(1351,1465,l),
(292,1465,l),
(223,1226,l),
(633,1226,l),
(822,1232,l),
(820,1212,l)
);
}
);
width = 1357;
},
{
layerId = "C0B66080-0851-4CAD-97C1-7E69A4280B0F";
shapes = (
{
closed = 1;
nodes = (
(871,1158,l),
(53,74,l),
(45,0,l),
(1134,0,l),
(1184,164,l),
(527,164,l),
(340,156,l),
(343,175,l),
(454,305,l),
(1268,1384,l),
(1278,1465,l),
(286,1465,l),
(237,1301,l),
(797,1301,l),
(984,1308,l),
(982,1289,l)
);
}
);
width = 1323;
},
{
layerId = "D16C0853-6864-4717-842E-4EFABF578FF1";
shapes = (
{
closed = 1;
nodes = (
(983,1226,l),
(63,70,l),
(56,0,l),
(1123,0,l),
(1160,117,l),
(416,117,l),
(231,109,l),
(235,129,l),
(333,240,l),
(1241,1384,l),
(1251,1465,l),
(284,1465,l),
(247,1348,l),
(898,1348,l),
(1081,1355,l),
(1079,1336,l)
);
}
);
width = 1309;
}
);
unicode = 90;
},
{
glyphname = b;
layers = (
{
layerId = "5171201B-12DC-4431-8FA8-A839D69F3129";
name = "#instance";
shapes = (
{
closed = 1;
nodes = (
(311,651,l),
(449,851,o),
(596,965,o),
(731,965,cs),
(912,965,o),
(977,772,o),
(977,594,cs),
(977,271,o),
(760,94,o),
(503,94,cs),
(452,94,o),
(339,101,o),
(251,137,c)
);
},
{
closed = 1;
nodes = (
(419,1602,l),
(311,1602,l),
(134,53,l),
(240,5,o),
(360,-20,o),
(459,-20,cs),
(772,-20,o),
(1082,236,o),
(1082,617,cs),
(1082,864,o),
(980,1080,o),
(731,1080,cs),
(568,1080,o),
(458,972,o),
(330,823,c)
);
}
);
width = 1179;
},
{
layerId = "058F6230-00F9-460F-9C2D-4FC5E161CC93";
shapes = (
{
closed = 1;
nodes = (
(606,707,l),
(635,742,o),
(691,795,o),
(742,795,cs),
(789,795,o),
(849,753,o),
(849,606,cs),
(849,437,o),
(772,239,o),
(632,239,cs),
(598,239,o),
(577,250,o),
(557,262,c)
);
},
{
closed = 1;
nodes = (
(708,1602,l),
(253,1602,l),
(76,45,l),
(258,-8,o),
(477,-20,o),
(565,-20,cs),
(978,-20,o),
(1322,268,o),
(1322,650,cs),
(1322,889,o),
(1188,1080,o),
(994,1080,cs),
(851,1080,o),
(717,977,o),
(628,882,c)
);
}
);
width = 1388;
},
{
layerId = "797B86FC-FBE9-46CE-B0B3-DC44F7F86021";
shapes = (
{
closed = 1;
nodes = (
(559,698,l),
(605,759,o),
(675,822,o),
(740,822,cs),
(807,822,o),
(868,756,o),
(868,604,cs),
(868,411,o),
(769,216,o),
(611,216,cs),
(574,216,o),
(539,227,o),
(508,243,c)
);
},
{
closed = 1;
nodes = (
(662,1602,l),
(262,1602,l),
(85,46,l),
(255,-6,o),
(458,-20,o),
(547,-20,cs),
(945,-20,o),
(1284,264,o),
(1284,646,cs),
(1284,883,o),
(1153,1080,o),
(952,1080,cs),
(806,1080,o),
(676,977,o),
(580,873,c)
);
}
);
width = 1354;
},
{
layerId = "C0B66080-0851-4CAD-97C1-7E69A4280B0F";
shapes = (
{
closed = 1;
nodes = (
(403,669,l),
(506,816,o),
(623,910,o),
(732,910,cs),
(868,910,o),
(932,766,o),
(932,598,cs),
(932,325,o),
(760,141,o),
(542,141,cs),
(496,141,o),
(414,150,o),
(347,181,c)
);
},
{
closed = 1;
nodes = (
(509,1602,l),
(292,1602,l),
(115,49,l),
(246,0,o),
(396,-20,o),
(488,-20,cs),
(836,-20,o),
(1157,251,o),
(1157,632,cs),
(1157,864,o),
(1038,1080,o),
(814,1080,cs),
(658,1080,o),
(540,976,o),
(423,842,c)
);
}
);
width = 1243;
},
{
layerId = "D16C0853-6864-4717-842E-4EFABF578FF1";
shapes = (
{
closed = 1;
nodes = (
(311,651,l),
(449,851,o),
(596,965,o),
(731,965,cs),
(912,965,o),
(977,772,o),
(977,594,cs),
(977,271,o),
(760,94,o),
(503,94,cs),
(452,94,o),
(339,101,o),
(251,137,c)
);
},
{
closed = 1;
nodes = (
(419,1602,l),
(311,1602,l),
(134,53,l),
(240,5,o),
(360,-20,o),
(459,-20,cs),
(772,-20,o),
(1082,236,o),
(1082,617,cs),
(1082,864,o),
(980,1080,o),
(731,1080,cs),
(568,1080,o),
(458,972,o),
(330,823,c)
);
}
);
width = 1179;
}
);
leftKerningGroup = _b_Right;
rightKerningGroup = _b_Left;
unicode = 98;
},
{
glyphname = n;
layers = (
{
layerId = "5171201B-12DC-4431-8FA8-A839D69F3129";
name = "#instance";
shapes = (
{
closed = 1;
nodes = (
(250,1060,l),
(334,1060,l),
(312,786,l),
(447,950,o),
(589,1080,o),
(756,1080,cs),
(975,1080,o),
(1050,893,o),
(1031,718,c),
(949,0,l),
(843,0,l),
(925,709,l),
(938,833,o),
(894,964,o),
(763,964,cs),
(620,964,o),
(448,835,o),
(308,635,c),
(233,0,l),
(129,0,l)
);
}
);
width = 1200;
},
{
layerId = "058F6230-00F9-460F-9C2D-4FC5E161CC93";
shapes = (
{
closed = 1;
nodes = (
(192,1060,l),
(589,1060,l),
(614,854,l),
(727,969,o),
(833,1080,o),
(1014,1080,cs),
(1205,1080,o),
(1315,932,o),
(1292,726,cs),
(1208,0,l),
(753,0,l),
(831,682,ls),
(841,763,o),
(800,795,o),
(753,795,cs),
(693,795,o),
(640,726,o),
(603,675,c),
(527,0,l),
(71,0,l)
);
}
);
width = 1398;
},
{
layerId = "797B86FC-FBE9-46CE-B0B3-DC44F7F86021";
shapes = (
{
closed = 1;
nodes = (
(201,1060,l),
(547,1060,l),
(566,843,l),
(682,966,o),
(794,1080,o),
(973,1080,cs),
(1168,1080,o),
(1273,926,o),
(1250,725,cs),
(1167,0,l),
(767,0,l),
(846,686,ls),
(856,774,o),
(815,822,o),
(754,822,cs),
(681,822,o),
(609,743,o),
(556,669,c),
(480,0,l),
(80,0,l)
);
}
);
width = 1366;
},
{
layerId = "C0B66080-0851-4CAD-97C1-7E69A4280B0F";
shapes = (
{
closed = 1;
nodes = (
(231,1060,l),
(410,1060,l),
(407,808,l),
(535,956,o),
(666,1080,o),
(837,1080,cs),
(1047,1080,o),
(1134,906,o),
(1113,721,cs),
(1031,0,l),
(814,0,l),
(895,700,ls),
(907,811,o),
(864,910,o),
(758,910,cs),
(642,910,o),
(508,800,o),
(401,648,c),
(326,0,l),
(110,0,l)
);
}
);
width = 1261;
},
{
layerId = "D16C0853-6864-4717-842E-4EFABF578FF1";
shapes = (
{
closed = 1;
nodes = (
(250,1060,l),
(334,1060,l),
(312,786,l),
(447,950,o),
(589,1080,o),
(756,1080,cs),
(975,1080,o),
(1050,893,o),
(1031,718,c),
(949,0,l),
(843,0,l),
(925,709,l),
(938,833,o),
(894,964,o),
(763,964,cs),
(620,964,o),
(448,835,o),
(308,635,c),
(233,0,l),
(129,0,l)
);
}
);
width = 1200;
}
);
leftKerningGroup = _m_Right;
rightKerningGroup = _h_Left;
unicode = 110;
},
{
glyphname = d;
layers = (
{
layerId = "5171201B-12DC-4431-8FA8-A839D69F3129";
name = "#instance";
shapes = (
{
closed = 1;
nodes = (
(799,0,l),
(1196,0,l),
(1379,1602,l),
(924,1602,l),
(862,1062,l),
(821,1072,o),
(786,1080,o),
(731,1080,cs),
(404,1080,o),
(65,790,o),
(65,410,cs),
(65,169,o),
(200,-20,o),
(396,-20,cs),
(536,-20,o),
(669,78,o),
(773,188,c)
);
},
{
closed = 1;
nodes = (
(782,353,l),
(753,318,o),
(697,265,o),
(646,265,cs),
(599,265,o),
(539,307,o),
(539,454,cs),
(539,623,o),
(615,821,o),
(756,821,cs),
(790,821,o),
(812,810,o),
(831,800,c)
);
}
);
width = 1387;
},
{
layerId = "058F6230-00F9-460F-9C2D-4FC5E161CC93";
shapes = (
{
closed = 1;
nodes = (
(799,0,l),
(1196,0,l),
(1379,1602,l),
(924,1602,l),
(862,1062,l),
(821,1072,o),
(786,1080,o),
(731,1080,cs),
(404,1080,o),
(65,790,o),
(65,410,cs),
(65,169,o),
(200,-20,o),
(396,-20,cs),
(536,-20,o),
(669,78,o),
(773,188,c)
);
},
{
closed = 1;
nodes = (
(782,353,l),
(753,318,o),
(697,265,o),
(646,265,cs),
(599,265,o),
(539,307,o),
(539,454,cs),
(539,623,o),
(615,821,o),
(756,821,cs),
(790,821,o),
(812,810,o),
(831,800,c)
);
}
);
width = 1387;
},
{
layerId = "797B86FC-FBE9-46CE-B0B3-DC44F7F86021";
shapes = (
{
closed = 1;
nodes = (
(807,0,l),
(1153,0,l),
(1336,1602,l),
(936,1602,l),
(874,1060,l),
(832,1071,o),
(790,1080,o),
(731,1080,cs),
(397,1080,o),
(70,786,o),
(70,413,cs),
(70,176,o),
(201,-20,o),
(403,-20,cs),
(546,-20,o),
(676,78,o),
(787,198,c)
);
},
{
closed = 1;
nodes = (
(795,362,l),
(749,301,o),
(679,238,o),
(614,238,cs),
(547,238,o),
(486,304,o),
(486,456,cs),
(486,649,o),
(585,844,o),
(743,844,cs),
(780,844,o),
(815,833,o),
(846,817,c)
);
}
);
width = 1353;
},
{
layerId = "C0B66080-0851-4CAD-97C1-7E69A4280B0F";
shapes = (
{
closed = 1;
nodes = (
(832,0,l),
(1011,0,l),
(1193,1602,l),
(977,1602,l),
(915,1054,l),
(869,1067,o),
(804,1080,o),
(731,1080,cs),
(375,1080,o),
(85,773,o),
(85,423,cs),
(85,198,o),
(205,-20,o),
(427,-20,cs),
(580,-20,o),
(699,78,o),
(833,232,c)
);
},
{
closed = 1;
nodes = (
(839,391,l),
(736,244,o),
(619,150,o),
(510,150,cs),
(376,150,o),
(310,294,o),
(310,461,cs),
(310,735,o),
(485,919,o),
(699,919,cs),
(747,919,o),
(826,910,o),
(894,872,c)
);
}
);
width = 1240;
},
{
layerId = "D16C0853-6864-4717-842E-4EFABF578FF1";
shapes = (
{
closed = 1;
nodes = (
(842,0,l),
(926,0,l),
(1108,1602,l),
(1002,1602,l),
(940,1050,l),
(892,1064,o),
(813,1080,o),
(731,1080,cs),
(361,1080,o),
(94,771,o),
(94,436,cs),
(94,200,o),
(199,-20,o),
(443,-20,cs),
(600,-20,o),
(713,78,o),
(862,252,c)
);
},
{
closed = 1;
nodes = (
(866,409,l),
(728,209,o),
(581,95,o),
(445,95,cs),
(269,95,o),
(199,288,o),
(199,464,cs),
(199,789,o),
(422,966,o),
(672,966,cs),
(727,966,o),
(832,957,o),
(924,905,c)
);
}
);
width = 1174;
}
);
leftKerningGroup = _c_Right;
unicode = 100;
},
{
glyphname = r;
layers = (
{
layerId = "5171201B-12DC-4431-8FA8-A839D69F3129";
name = "#instance";
shapes = (
{
closed = 1;
nodes = (
(129,0,l),
(233,0,l),
(305,625,l),
(421,798,o),
(530,972,o),
(709,972,cs),
(728,972,o),
(748,970,o),
(761,964,c),
(781,1057,l),
(747,1072,o),
(713,1080,o),
(685,1080,cs),
(535,1080,o),
(363,849,o),
(308,767,c),
(312,773,o),
(330,1054,o),
(334,1060,c),
(250,1060,l)
);
}
);
width = 785;
},
{
layerId = "058F6230-00F9-460F-9C2D-4FC5E161CC93";
shapes = (
{
closed = 1;
nodes = (
(71,0,l),
(527,0,l),
(579,447,l),
(664,637,o),
(776,636,o),
(861,636,cs),
(898,636,o),
(930,634,o),
(985,628,c),
(1082,1055,l),
(1043,1071,o),
(998,1080,o),
(952,1080,cs),
(758,1080,o),
(683,888,o),
(593,670,c),
(593,811,o),
(589,919,o),
(589,1060,c),
(192,1060,l)
);
}
);
width = 1081;
},
{
layerId = "797B86FC-FBE9-46CE-B0B3-DC44F7F86021";
shapes = (
{
closed = 1;
nodes = (
(80,0,l),
(480,0,l),
(535,475,l),
(625,661,o),
(735,688,o),
(837,688,cs),
(871,688,o),
(901,686,o),
(949,680,c),
(1034,1055,l),
(997,1071,o),
(954,1080,o),
(910,1080,cs),
(721,1080,o),
(634,883,o),
(548,685,c),
(548,810,o),
(547,935,o),
(547,1060,c),
(201,1060,l)
);
}
);
width = 1034;
},
{
layerId = "C0B66080-0851-4CAD-97C1-7E69A4280B0F";
shapes = (
{
closed = 1;
nodes = (
(110,0,l),
(326,0,l),
(391,568,l),
(497,741,o),
(599,861,o),
(757,861,cs),
(781,861,o),
(805,859,o),
(831,853,c),
(876,1055,l),
(846,1072,o),
(808,1080,o),
(773,1080,cs),
(600,1080,o),
(471,868,o),
(398,736,c),
(400,808,o),
(408,988,o),
(410,1060,c),
(231,1060,l)
);
}
);
width = 878;
},
{
layerId = "D16C0853-6864-4717-842E-4EFABF578FF1";
shapes = (
{
closed = 1;
nodes = (
(129,0,l),
(233,0,l),
(305,625,l),
(421,798,o),
(530,972,o),
(709,972,cs),
(728,972,o),
(748,970,o),
(761,964,c),
(781,1057,l),
(747,1072,o),
(713,1080,o),
(685,1080,cs),
(535,1080,o),
(363,849,o),
(308,767,c),
(312,773,o),
(330,1054,o),
(334,1060,c),
(250,1060,l)
);
}
);
width = 785;
}
);
leftKerningGroup = _m_Right;
rightKerningGroup = _r_Left;
unicode = 114;
},
{
glyphname = e;
layers = (
{
layerId = "058F6230-00F9-460F-9C2D-4FC5E161CC93";
shapes = (
{
closed = 1;
nodes = (
(738,-20,o),
(923,59,o),
(1044,168,c),
(1044,335,l),
(954,291,o),
(876,265,o),
(784,265,cs),
(627,265,o),
(528,340,o),
(528,426,c),
(527,426,l),
(918,426,o),
(1212,570,o),
(1212,787,cs),
(1212,934,o),
(1076,1080,o),
(784,1080,cs),
(404,1080,o),
(65,840,o),
(65,445,cs),
(65,151,o),
(254,-20,o),
(542,-20,cs)
);
},
{
closed = 1;
nodes = (
(778,821,o),
(787,751,o),
(787,718,cs),
(787,605,o),
(637,552,o),
(549,552,cs),
(527,552,l),
(534,693,o),
(633,821,o),
(716,821,cs)
);
}
);
width = 1250;
},
{
layerId = "797B86FC-FBE9-46CE-B0B3-DC44F7F86021";
shapes = (
{
closed = 1;
nodes = (
(708,-20,o),
(888,50,o),
(1011,158,c),
(1011,313,l),
(919,265,o),
(836,238,o),
(743,238,cs),
(575,238,o),
(477,327,o),
(477,433,c),
(502,433,ls),
(894,433,o),
(1169,580,o),
(1169,791,cs),
(1169,937,o),
(1038,1080,o),
(765,1080,cs),
(404,1080,o),
(70,831,o),
(70,442,cs),
(70,153,o),
(255,-20,o),
(532,-20,cs)
);
},
{
closed = 1;
nodes = (
(775,844,o),
(795,774,o),
(795,731,cs),
(795,616,o),
(649,557,o),
(520,557,cs),
(478,557,l),
(492,707,o),
(599,844,o),
(702,844,cs)
);
}
);
width = 1214;
},
{
layerId = "C0B66080-0851-4CAD-97C1-7E69A4280B0F";
shapes = (
{
closed = 1;
nodes = (
(610,-20,o),
(773,19,o),
(901,126,c),
(901,239,l),
(805,180,o),
(705,150,o),
(607,150,cs),
(402,150,o),
(308,283,o),
(308,456,c),
(419,456,ls),
(814,456,o),
(1027,612,o),
(1027,805,cs),
(1027,946,o),
(914,1080,o),
(703,1080,cs),
(403,1080,o),
(85,802,o),
(85,431,cs),
(85,158,o),
(259,-20,o),
(498,-20,cs)
);
},
{
closed = 1;
nodes = (
(764,919,o),
(822,850,o),
(822,773,cs),
(822,653,o),
(688,573,o),
(425,573,cs),
(317,573,l),
(354,754,o),
(486,919,o),
(655,919,cs)
);
}
);
width = 1095;
},
{
layerId = "D16C0853-6864-4717-842E-4EFABF578FF1";
shapes = (
{
closed = 1;
nodes = (
(548,-20,o),
(701,0,o),
(833,99,c),
(833,193,l),
(734,126,o),
(623,95,o),
(523,95,cs),
(295,95,o),
(207,261,o),
(206,475,c),
(367,475,ls),
(764,475,o),
(938,637,o),
(938,815,cs),
(938,968,o),
(849,1080,o),
(662,1080,cs),
(402,1080,o),
(94,791,o),
(94,431,cs),
(94,148,o),
(244,-20,o),
(477,-20,cs)
);
},
{
closed = 1;
nodes = (
(755,966,o),
(834,899,o),
(834,795,cs),
(834,666,o),
(713,575,o),
(365,575,cs),
(218,575,l),
(269,774,o),
(414,966,o),
(626,966,cs)
);
}
);
width = 1021;
}
);
leftKerningGroup = _c_Right;
rightKerningGroup = _e_Left;
unicode = 101;
},
{
glyphname = o;
layers = (
{
layerId = "058F6230-00F9-460F-9C2D-4FC5E161CC93";
shapes = (
{
closed = 1;
nodes = (
(1003,-20,o),
(1282,276,o),
(1282,612,cs),
(1282,848,o),
(1143,1080,o),
(767,1080,cs),
(336,1080,o),
(65,775,o),
(65,448,cs),
(65,218,o),
(199,-20,o),
(580,-20,cs)
);
},
{
closed = 1;
nodes = (
(581,239,o),
(537,316,o),
(537,472,cs),
(537,668,o),
(604,821,o),
(701,821,cs),
(774,821,o),
(811,731,o),
(811,584,cs),
(811,377,o),
(734,239,o),
(646,239,cs)
);
}
);
width = 1348;
},
{
layerId = "797B86FC-FBE9-46CE-B0B3-DC44F7F86021";
shapes = (
{
closed = 1;
nodes = (
(966,-20,o),
(1249,273,o),
(1249,612,cs),
(1249,850,o),
(1109,1080,o),
(753,1080,cs),
(346,1080,o),
(70,779,o),
(70,447,cs),
(70,214,o),
(206,-20,o),
(565,-20,cs)
);
},
{
closed = 1;
nodes = (
(539,216,o),
(484,313,o),
(484,475,cs),
(484,681,o),
(573,844,o),
(690,844,cs),
(786,844,o),
(835,736,o),
(835,582,cs),
(835,366,o),
(738,216,o),
(628,216,cs)
);
}
);
width = 1319;
},
{
layerId = "C0B66080-0851-4CAD-97C1-7E69A4280B0F";
shapes = (
{
closed = 1;
nodes = (
(843,-20,o),
(1139,262,o),
(1139,613,cs),
(1139,856,o),
(996,1080,o),
(708,1080,cs),
(379,1080,o),
(85,791,o),
(85,444,cs),
(85,202,o),
(228,-20,o),
(517,-20,cs)
);
},
{
closed = 1;
nodes = (
(399,141,o),
(310,304,o),
(310,484,cs),
(310,725,o),
(472,919,o),
(655,919,cs),
(825,919,o),
(914,754,o),
(914,574,cs),
(914,330,o),
(751,141,o),
(569,141,cs)
);
}
);
width = 1224;
},
{
layerId = "D16C0853-6864-4717-842E-4EFABF578FF1";
shapes = (
{
closed = 1;
nodes = (
(765,-20,o),
(1070,247,o),
(1070,604,cs),
(1070,868,o),
(939,1080,o),
(675,1080,cs),
(401,1080,o),
(94,806,o),
(94,452,cs),
(94,188,o),
(227,-20,o),
(492,-20,cs)
);
},
{
closed = 1;
nodes = (
(310,94,o),
(198,298,o),
(198,489,cs),
(198,753,o),
(407,966,o),
(634,966,cs),
(853,966,o),
(967,766,o),
(967,569,cs),
(967,308,o),
(763,94,o),
(534,94,cs)
);
}
);
width = 1164;
}
);
leftKerningGroup = _c_Right;
unicode = 111;
},
{
glyphname = y;
layers = (
{
layerId = "058F6230-00F9-460F-9C2D-4FC5E161CC93";
shapes = (
{
closed = 1;
nodes = (
(255,0,l),
(418,0,l),
(-42,-421,l),
(276,-577,l),
(740,0,ls),
(1005,330,o),
(1181,666,o),
(1280,1060,c),
(877,1060,l),
(838,793,o),
(773,541,o),
(643,309,c),
(623,309,l),
(623,384,o),
(622,460,o),
(623,534,c),
(600,1060,l),
(114,1060,l)
);
}
);
width = 1279;
},
{
layerId = "797B86FC-FBE9-46CE-B0B3-DC44F7F86021";
shapes = (
{
closed = 1;
nodes = (
(256,0,l),
(390,0,l),
(-67,-433,l),
(215,-573,l),
(680,0,ls),
(947,329,o),
(1129,664,o),
(1231,1060,c),
(872,1060,l),
(824,779,o),
(746,522,o),
(596,280,c),
(576,280,l),
(576,351,o),
(575,423,o),
(575,494,c),
(542,1060,l),
(115,1060,l)
);
}
);
width = 1231;
},
{
layerId = "C0B66080-0851-4CAD-97C1-7E69A4280B0F";
shapes = (
{
closed = 1;
nodes = (
(260,0,l),
(297,0,l),
(-149,-472,l),
(15,-558,l),
(481,0,ls),
(755,327,o),
(956,658,o),
(1069,1060,c),
(856,1060,l),
(778,735,o),
(657,461,o),
(442,184,c),
(422,184,l),
(420,244,o),
(420,303,o),
(418,362,c),
(351,1060,l),
(120,1060,l)
);
}
);
width = 1071;
},
{
layerId = "D16C0853-6864-4717-842E-4EFABF578FF1";
shapes = (
{
closed = 1;
nodes = (
(268,0,l),
(248,0,l),
(-174,-496,l),
(-85,-549,l),
(371,0,ls),
(654,339,o),
(867,661,o),
(985,1060,c),
(870,1060,l),
(757,708,o),
(619,438,o),
(363,143,c),
(343,143,l),
(341,195,o),
(342,246,o),
(338,299,c),
(241,1060,l),
(132,1060,l)
);
}
);
width = 979;
}
);
unicode = 121;
},
{
glyphname = bar;
layers = (
{
layerId = "058F6230-00F9-460F-9C2D-4FC5E161CC93";
shapes = (
{
closed = 1;
nodes = (
(91,-537,l),
(404,-537,l),
(648,1602,l),
(335,1602,l)
);
}
);
width = 737;
},
{
layerId = "797B86FC-FBE9-46CE-B0B3-DC44F7F86021";
shapes = (
{
closed = 1;
nodes = (
(99,-537,l),
(374,-537,l),
(618,1602,l),
(343,1602,l)
);
}
);
width = 715;
},
{
layerId = "C0B66080-0851-4CAD-97C1-7E69A4280B0F";
shapes = (
{
closed = 1;
nodes = (
(126,-536,l),
(275,-536,l),
(519,1602,l),
(370,1602,l)
);
}
);
width = 643;
},
{
layerId = "D16C0853-6864-4717-842E-4EFABF578FF1";
shapes = (
{
closed = 1;
nodes = (
(141,-536,l),
(212,-536,l),
(456,1602,l),
(385,1602,l)
);
}
);
width = 599;
}
);
unicode = 124;
},
{
glyphname = percent;
layers = (
{
layerId = "058F6230-00F9-460F-9C2D-4FC5E161CC93";
shapes = (
{
closed = 1;
nodes = (
(518,0,l),
(864,0,l),
(1976,1465,l),
(1631,1465,l)
);
},
{
closed = 1;
nodes = (
(872,615,o),
(1122,814,o),
(1122,1114,cs),
(1122,1342,o),
(961,1485,o),
(735,1485,cs),
(455,1485,o),
(208,1280,o),
(208,983,cs),
(208,755,o),
(368,615,o),
(594,615,cs)
);
},
{
closed = 1;
nodes = (
(581,865,o),
(538,929,o),
(538,1025,cs),
(538,1148,o),
(599,1235,o),
(680,1235,cs),
(747,1235,o),
(791,1169,o),
(791,1072,cs),
(791,948,o),
(729,865,o),
(648,865,cs)
);
},
{
closed = 1;
nodes = (
(2038,-20,o),
(2287,179,o),
(2287,480,cs),
(2287,707,o),
(2126,850,o),
(1900,850,cs),
(1620,850,o),
(1374,646,o),
(1374,348,cs),
(1374,120,o),
(1534,-20,o),
(1759,-20,cs)
);
},
{
closed = 1;
nodes = (
(1746,231,o),
(1704,295,o),
(1704,390,cs),
(1704,514,o),
(1764,600,o),
(1845,600,cs),
(1912,600,o),
(1956,535,o),
(1956,438,cs),
(1956,314,o),
(1894,231,o),
(1813,231,cs)
);
}
);
width = 2448;
},
{
layerId = "797B86FC-FBE9-46CE-B0B3-DC44F7F86021";
shapes = (
{
closed = 1;
nodes = (
(490,0,l),
(796,0,l),
(1909,1465,l),
(1603,1465,l)
);
},
{
closed = 1;
nodes = (
(853,630,o),
(1088,830,o),
(1088,1122,cs),
(1088,1340,o),
(941,1485,o),
(720,1485,cs),
(449,1485,o),
(215,1283,o),
(215,991,cs),
(215,773,o),
(361,630,o),
(582,630,cs)
);
},
{
closed = 1;
nodes = (
(559,857,o),
(513,927,o),
(513,1030,cs),
(513,1167,o),
(581,1258,o),
(669,1258,cs),
(742,1258,o),
(789,1187,o),
(789,1083,cs),
(789,947,o),
(720,857,o),
(632,857,cs)
);
},
{
closed = 1;
nodes = (
(1951,-20,o),
(2185,180,o),
(2185,472,cs),
(2185,690,o),
(2038,835,o),
(1817,835,cs),
(1545,835,o),
(1312,633,o),
(1312,341,cs),
(1312,123,o),
(1458,-20,o),
(1679,-20,cs)
);
},
{
closed = 1;
nodes = (
(1656,207,o),
(1610,277,o),
(1610,380,cs),
(1610,517,o),
(1678,608,o),
(1766,608,cs),
(1839,608,o),
(1886,537,o),
(1886,433,cs),
(1886,297,o),
(1817,207,o),
(1729,207,cs)
);
}
);
width = 2353;
},
{
layerId = "C0B66080-0851-4CAD-97C1-7E69A4280B0F";
shapes = (
{
closed = 1;
nodes = (
(397,0,l),
(572,0,l),
(1687,1464,l),
(1510,1464,l)
);
},
{
closed = 1;
nodes = (
(791,680,o),
(976,884,o),
(976,1148,cs),
(976,1334,o),
(874,1485,o),
(671,1485,cs),
(428,1485,o),
(237,1292,o),
(237,1019,cs),
(237,834,o),
(337,680,o),
(543,680,cs)
);
},
{
closed = 1;
nodes = (
(487,829,o),
(429,919,o),
(429,1048,cs),
(429,1229,o),
(523,1335,o),
(632,1335,cs),
(727,1335,o),
(783,1245,o),
(783,1119,cs),
(783,943,o),
(691,829,o),
(580,829,cs)
);
},
{
closed = 1;
nodes = (
(1663,-21,o),
(1848,183,o),
(1848,447,cs),
(1848,633,o),
(1746,784,o),
(1542,784,cs),
(1299,784,o),
(1108,591,o),
(1108,319,cs),
(1108,134,o),
(1208,-21,o),
(1414,-21,cs)
);
},
{
closed = 1;
nodes = (
(1358,128,o),
(1301,218,o),
(1301,347,cs),
(1301,528,o),
(1395,634,o),
(1504,634,cs),
(1599,634,o),
(1655,544,o),
(1655,418,cs),
(1655,242,o),
(1564,128,o),
(1451,128,cs)
);
}
);
width = 2039;
},
{
layerId = "D16C0853-6864-4717-842E-4EFABF578FF1";
shapes = (
{
closed = 1;
nodes = (
(339,0,l),
(430,0,l),
(1547,1464,l),
(1452,1464,l)
);
},
{
closed = 1;
nodes = (
(750,711,o),
(905,910,o),
(905,1158,cs),
(905,1324,o),
(832,1485,o),
(637,1485,cs),
(417,1485,o),
(250,1305,o),
(250,1041,cs),
(250,875,o),
(321,711,o),
(520,711,cs)
);
},
{
closed = 1;
nodes = (
(441,811,o),
(376,914,o),
(376,1059,cs),
(376,1268,o),
(486,1382,o),
(608,1382,cs),
(717,1382,o),
(778,1281,o),
(778,1141,cs),
(778,941,o),
(673,811,o),
(548,811,cs)
);
},
{
closed = 1;
nodes = (
(1479,-21,o),
(1635,177,o),
(1635,426,cs),
(1635,592,o),
(1562,753,o),
(1364,753,cs),
(1145,753,o),
(980,572,o),
(980,310,cs),
(980,145,o),
(1050,-21,o),
(1249,-21,cs)
);
},
{
closed = 1;
nodes = (
(1170,79,o),
(1105,181,o),
(1105,327,cs),
(1105,535,o),
(1216,650,o),
(1339,650,cs),
(1448,650,o),
(1508,549,o),
(1508,409,cs),
(1508,209,o),
(1403,79,o),
(1275,79,cs)
);
}
);
width = 1843;
}
);
unicode = 37;
},
{
glyphname = zero;
layers = (
{
layerId = "058F6230-00F9-460F-9C2D-4FC5E161CC93";
shapes = (
{
closed = 1;
nodes = (
(951,602,o),
(915,242,o),
(712,242,cs),
(609,242,o),
(575,382,o),
(575,580,cs),
(575,865,o),
(616,1223,o),
(815,1223,cs),
(918,1223,o),
(951,1081,o),
(951,883,cs)
);
},
{
closed = 1;
nodes = (
(1428,1292,o),
(1215,1485,o),
(877,1485,cs),
(452,1485,o),
(98,1206,o),
(98,584,cs),
(98,171,o),
(314,-20,o),
(651,-20,cs),
(1075,-20,o),
(1428,254,o),
(1428,879,cs)
);
}
);
width = 1479;
},
{
layerId = "797B86FC-FBE9-46CE-B0B3-DC44F7F86021";
shapes = (
{
closed = 1;
nodes = (
(992,561,o),
(922,219,o),
(708,219,cs),
(585,219,o),
(531,368,o),
(531,590,cs),
(531,907,o),
(605,1246,o),
(816,1246,cs),
(939,1246,o),
(992,1096,o),
(992,875,cs)
);
},
{
closed = 1;
nodes = (
(1411,1277,o),
(1203,1485,o),
(873,1485,cs),
(460,1485,o),
(112,1190,o),
(112,590,cs),
(112,187,o),
(321,-20,o),
(651,-20,cs),
(1064,-20,o),
(1411,273,o),
(1411,874,cs)
);
}
);
width = 1476;
},
{
layerId = "C0B66080-0851-4CAD-97C1-7E69A4280B0F";
shapes = (
{
closed = 1;
nodes = (
(1126,427,o),
(946,144,o),
(694,144,cs),
(505,144,o),
(386,323,o),
(386,622,cs),
(386,1045,o),
(568,1321,o),
(819,1321,cs),
(1008,1321,o),
(1126,1146,o),
(1126,848,cs)
);
},
{
closed = 1;
nodes = (
(1356,1229,o),
(1165,1485,o),
(860,1485,cs),
(485,1485,o),
(157,1136,o),
(157,609,cs),
(157,239,o),
(344,-20,o),
(651,-20,cs),
(1029,-20,o),
(1356,335,o),
(1356,857,cs)
);
}
);
width = 1465;
},
{
layerId = "D16C0853-6864-4717-842E-4EFABF578FF1";
shapes = (
{
closed = 1;
nodes = (
(1209,349,o),
(962,97,o),
(682,97,cs),
(456,97,o),
(295,298,o),
(295,623,cs),
(295,1124,o),
(541,1368,o),
(822,1368,cs),
(1049,1368,o),
(1209,1174,o),
(1209,850,cs)
);
},
{
closed = 1;
nodes = (
(1320,1212,o),
(1157,1485,o),
(855,1485,cs),
(474,1485,o),
(186,1147,o),
(186,619,cs),
(186,260,o),
(341,-20,o),
(647,-20,cs),
(1032,-20,o),
(1320,328,o),
(1320,848,cs)
);
}
);
width = 1459;
}
);
unicode = 48;
},
{
glyphname = one;
layers = (
{
layerId = "5171201B-12DC-4431-8FA8-A839D69F3129";
name = "#instance";
shapes = (
{
closed = 1;
nodes = (
(603,0,l),
(770,1465,l),
(726,1465,l),
(609,1358,o),
(414,1299,o),
(190,1299,c),
(182,1230,l),
(638,1230,l),
(498,0,l)
);
}
);
width = 926;
},
{
layerId = "058F6230-00F9-460F-9C2D-4FC5E161CC93";
shapes = (
{
closed = 1;
nodes = (
(775,0,l),
(942,1465,l),
(676,1465,l),
(561,1358,o),
(404,1299,o),
(140,1299,c),
(117,1092,l),
(437,1092,l),
(313,0,l)
);
}
);
width = 1000;
},
{
layerId = "797B86FC-FBE9-46CE-B0B3-DC44F7F86021";
shapes = (
{
closed = 1;
nodes = (
(748,0,l),
(915,1465,l),
(684,1465,l),
(569,1358,o),
(408,1299,o),
(148,1299,c),
(127,1114,l),
(469,1114,l),
(342,0,l)
);
}
);
width = 988;
},
{
layerId = "C0B66080-0851-4CAD-97C1-7E69A4280B0F";
shapes = (
{
closed = 1;
nodes = (
(658,0,l),
(825,1465,l),
(711,1465,l),
(595,1358,o),
(420,1299,o),
(175,1299,c),
(161,1186,l),
(574,1186,l),
(439,0,l)
);
}
);
width = 950;
},
{
layerId = "D16C0853-6864-4717-842E-4EFABF578FF1";
shapes = (
{
closed = 1;
nodes = (
(603,0,l),
(770,1465,l),
(726,1465,l),
(609,1358,o),
(414,1299,o),
(190,1299,c),
(182,1230,l),
(638,1230,l),
(498,0,l)
);
}
);
width = 926;
}
);
unicode = 49;
},
{
glyphname = two;
layers = (
{
layerId = "058F6230-00F9-460F-9C2D-4FC5E161CC93";
shapes = (
{
closed = 1;
nodes = (
(9,0,l),
(1073,0,l),
(1157,262,l),
(539,262,l),
(1008,667,o),
(1178,878,o),
(1178,1133,cs),
(1178,1365,o),
(1032,1485,o),
(757,1485,cs),
(552,1485,o),
(356,1418,o),
(231,1332,c),
(231,1146,l),
(287,1170,o),
(369,1201,o),
(463,1201,cs),
(584,1201,o),
(687,1149,o),
(687,1002,cs),
(687,810,o),
(508,613,o),
(22,110,c)
);
}
);
width = 1271;
},
{
layerId = "797B86FC-FBE9-46CE-B0B3-DC44F7F86021";
shapes = (
{
closed = 1;
nodes = (
(20,0,l),
(1052,0,l),
(1128,239,l),
(499,239,l),
(972,646,o),
(1158,880,o),
(1158,1135,cs),
(1158,1363,o),
(1009,1485,o),
(747,1485,cs),
(556,1485,o),
(369,1421,o),
(244,1334,c),
(244,1165,l),
(308,1195,o),
(401,1227,o),
(497,1227,cs),
(620,1227,o),
(727,1174,o),
(727,1022,cs),
(727,823,o),
(543,606,o),
(32,100,c)
);
}
);
width = 1261;
},
{
layerId = "C0B66080-0851-4CAD-97C1-7E69A4280B0F";
shapes = (
{
closed = 1;
nodes = (
(56,0,l),
(982,0,l),
(1031,164,l),
(368,164,l),
(854,576,o),
(1091,887,o),
(1091,1143,cs),
(1091,1358,o),
(932,1485,o),
(714,1485,cs),
(570,1485,o),
(412,1431,o),
(287,1340,c),
(287,1227,l),
(377,1278,o),
(507,1312,o),
(609,1312,cs),
(740,1312,o),
(858,1256,o),
(858,1089,cs),
(858,865,o),
(658,582,o),
(64,68,c)
);
}
);
width = 1227;
},
{
layerId = "D16C0853-6864-4717-842E-4EFABF578FF1";
shapes = (
{
closed = 1;
nodes = (
(72,0,l),
(937,0,l),
(969,117,l),
(296,117,l),
(780,524,o),
(1049,904,o),
(1049,1158,cs),
(1049,1382,o),
(898,1485,o),
(695,1485,cs),
(578,1485,o),
(440,1439,o),
(313,1348,c),
(313,1276,l),
(412,1333,o),
(567,1363,o),
(669,1363,cs),
(813,1363,o),
(938,1303,o),
(938,1134,cs),
(938,883,o),
(705,553,o),
(83,49,c)
);
}
);
width = 1205;
}
);
unicode = 50;
},
{
glyphname = three;
layers = (
{
layerId = "5171201B-12DC-4431-8FA8-A839D69F3129";
name = "#instance";
shapes = (
{
closed = 1;
nodes = (
(1036,1392,o),
(899,1485,o),
(686,1485,cs),
(542,1485,o),
(435,1436,o),
(302,1348,c),
(302,1274,l),
(395,1329,o),
(554,1363,o),
(657,1363,cs),
(816,1363,o),
(927,1290,o),
(927,1181,cs),
(927,1013,o),
(685,870,o),
(489,813,c),
(481,727,l),
(646,727,o),
(878,667,o),
(878,500,cs),
(878,289,o),
(589,117,o),
(149,117,c),
(136,0,l),
(760,0,o),
(988,266,o),
(988,507,cs),
(988,680,o),
(894,772,o),
(678,806,c),
(678,805,o),
(677,811,o),
(677,810,c),
(880,886,o),
(1036,1062,o),
(1036,1224,cs)
);
}
);
width = 1191;
},
{
layerId = "058F6230-00F9-460F-9C2D-4FC5E161CC93";
shapes = (
{
closed = 1;
nodes = (
(1152,1357,o),
(1023,1485,o),
(746,1485,cs),
(554,1485,o),
(335,1424,o),
(206,1332,c),
(206,1145,l),
(282,1175,o),
(372,1201,o),
(457,1201,cs),
(554,1201,o),
(660,1166,o),
(660,1069,cs),
(660,915,o),
(388,870,o),
(300,849,c),
(277,643,l),
(497,653,o),
(617,617,o),
(617,467,cs),
(617,414,o),
(627,262,o),
(63,262,c),
(34,0,l),
(888,0,o),
(1096,292,o),
(1096,524,cs),
(1096,698,o),
(980,802,o),
(795,845,c),
(796,853,o),
(796,859,o),
(797,867,c),
(1022,985,o),
(1152,1061,o),
(1152,1210,cs)
);
}
);
width = 1191;
},
{
layerId = "797B86FC-FBE9-46CE-B0B3-DC44F7F86021";
shapes = (
{
closed = 1;
nodes = (
(1134,1359,o),
(1001,1485,o),
(736,1485,cs),
(552,1485,o),
(350,1425,o),
(221,1334,c),
(221,1164,l),
(301,1199,o),
(401,1227,o),
(490,1227,cs),
(596,1227,o),
(702,1187,o),
(702,1088,cs),
(702,931,o),
(435,870,o),
(330,843,c),
(309,656,l),
(521,666,o),
(658,626,o),
(658,472,cs),
(658,392,o),
(621,239,o),
(77,239,c),
(50,0,l),
(868,0,o),
(1079,289,o),
(1079,521,cs),
(1079,691,o),
(965,798,o),
(776,839,c),
(777,846,o),
(777,852,o),
(778,859,c),
(1001,972,o),
(1134,1060,o),
(1134,1210,cs)
);
}
);
width = 1191;
},
{
layerId = "C0B66080-0851-4CAD-97C1-7E69A4280B0F";
shapes = (
{
closed = 1;
nodes = (
(1074,1366,o),
(930,1485,o),
(704,1485,cs),
(546,1485,o),
(399,1429,o),
(271,1340,c),
(271,1226,l),
(363,1278,o),
(496,1312,o),
(600,1312,cs),
(733,1312,o),
(842,1257,o),
(842,1150,cs),
(842,983,o),
(589,871,o),
(429,824,c),
(415,700,l),
(601,708,o),
(794,657,o),
(794,487,cs),
(794,318,o),
(601,164,o),
(122,164,c),
(104,0,l),
(801,0,o),
(1024,280,o),
(1024,510,cs),
(1024,668,o),
(916,786,o),
(714,820,c),
(715,823,o),
(715,828,o),
(715,831,c),
(932,930,o),
(1074,1056,o),
(1074,1211,cs)
);
}
);
width = 1191;
},
{
layerId = "D16C0853-6864-4717-842E-4EFABF578FF1";
shapes = (
{
closed = 1;
nodes = (
(1036,1392,o),
(899,1485,o),
(686,1485,cs),
(542,1485,o),
(435,1436,o),
(302,1348,c),
(302,1274,l),
(395,1329,o),
(554,1363,o),
(657,1363,cs),
(816,1363,o),
(927,1290,o),
(927,1181,cs),
(927,1013,o),
(685,870,o),
(489,813,c),
(481,727,l),
(646,727,o),
(878,667,o),
(878,500,cs),
(878,289,o),
(589,117,o),
(149,117,c),
(136,0,l),
(760,0,o),
(988,266,o),
(988,507,cs),
(988,680,o),
(894,772,o),
(678,806,c),
(678,805,o),
(677,811,o),
(677,810,c),
(880,886,o),
(1036,1062,o),
(1036,1224,cs)
);
}
);
width = 1191;
}
);
unicode = 51;
},
{
glyphname = four;
layers = (
{
layerId = "058F6230-00F9-460F-9C2D-4FC5E161CC93";
shapes = (
{
closed = 1;
nodes = (
(19,372,l),
(638,372,l),
(595,0,l),
(1059,0,l),
(1102,372,l),
(1276,372,l),
(1349,635,l),
(1131,635,l),
(1226,1465,l),
(629,1465,l),
(35,512,l)
);
},
{
closed = 1;
nodes = (
(392,635,l),
(480,775,o),
(519,852,o),
(607,993,c),
(721,1203,l),
(741,1203,l),
(710,1004,l),
(668,635,l)
);
}
);
width = 1377;
},
{
layerId = "797B86FC-FBE9-46CE-B0B3-DC44F7F86021";
shapes = (
{
closed = 1;
nodes = (
(34,382,l),
(664,382,l),
(620,0,l),
(1026,0,l),
(1070,382,l),
(1252,382,l),
(1321,621,l),
(1097,621,l),
(1193,1465,l),
(667,1465,l),
(49,514,l)
);
},
{
closed = 1;
nodes = (
(373,621,l),
(459,754,o),
(546,888,o),
(632,1021,c),
(749,1230,l),
(769,1230,l),
(737,1024,l),
(691,621,l)
);
}
);
width = 1360;
},
{
layerId = "C0B66080-0851-4CAD-97C1-7E69A4280B0F";
shapes = (
{
closed = 1;
nodes = (
(82,414,l),
(750,414,l),
(703,0,l),
(918,0,l),
(966,414,l),
(1172,414,l),
(1229,575,l),
(984,575,l),
(1085,1465,l),
(793,1465,l),
(94,520,l)
);
},
{
closed = 1;
nodes = (
(310,575,l),
(389,684,o),
(635,1006,o),
(715,1115,c),
(843,1318,l),
(863,1318,l),
(827,1091,l),
(768,575,l)
);
}
);
width = 1303;
},
{
layerId = "D16C0853-6864-4717-842E-4EFABF578FF1";
shapes = (
{
closed = 1;
nodes = (
(111,433,l),
(783,433,l),
(733,0,l),
(856,0,l),
(905,433,l),
(1126,433,l),
(1177,546,l),
(919,546,l),
(1023,1465,l),
(879,1465,l),
(121,520,l)
);
},
{
closed = 1;
nodes = (
(270,546,l),
(294,568,o),
(717,1132,o),
(743,1152,c),
(878,1350,l),
(898,1350,l),
(860,1110,l),
(796,546,l)
);
}
);
width = 1268;
}
);
unicode = 52;
},
{
glyphname = five;
layers = (
{
layerId = "058F6230-00F9-460F-9C2D-4FC5E161CC93";
shapes = (
{
closed = 1;
nodes = (
(113,719,l),
(258,719,ls),
(400,719,o),
(521,657,o),
(521,525,cs),
(521,385,o),
(407,262,o),
(62,262,c),
(32,0,l),
(831,0,o),
(1020,372,o),
(1020,598,cs),
(1020,830,o),
(815,980,o),
(457,980,c),
(503,1203,l),
(1035,1203,l),
(1110,1465,l),
(269,1465,l)
);
}
);
width = 1107;
},
{
layerId = "797B86FC-FBE9-46CE-B0B3-DC44F7F86021";
shapes = (
{
closed = 1;
nodes = (
(134,738,l),
(276,738,ls),
(437,738,o),
(568,671,o),
(568,528,cs),
(568,377,o),
(445,239,o),
(80,239,c),
(53,0,l),
(810,0,o),
(1004,364,o),
(1004,593,cs),
(1004,825,o),
(801,977,o),
(445,977,c),
(498,1226,l),
(1028,1226,l),
(1096,1465,l),
(287,1465,l)
);
}
);
width = 1108;
},
{
layerId = "C0B66080-0851-4CAD-97C1-7E69A4280B0F";
shapes = (
{
closed = 1;
nodes = (
(204,802,l),
(337,802,ls),
(559,802,o),
(724,718,o),
(724,537,cs),
(724,350,o),
(571,164,o),
(140,164,c),
(122,0,l),
(740,0,o),
(951,336,o),
(951,577,cs),
(951,808,o),
(756,966,o),
(406,966,c),
(482,1301,l),
(1005,1301,l),
(1051,1465,l),
(348,1465,l)
);
}
);
width = 1111;
},
{
layerId = "D16C0853-6864-4717-842E-4EFABF578FF1";
shapes = (
{
closed = 1;
nodes = (
(246,842,l),
(374,842,ls),
(617,842,o),
(820,745,o),
(820,546,cs),
(820,329,o),
(631,117,o),
(176,117,c),
(164,0,l),
(698,0,o),
(916,309,o),
(916,566,cs),
(916,819,o),
(751,960,o),
(381,960,c),
(471,1348,l),
(990,1348,l),
(1022,1465,l),
(385,1465,l)
);
}
);
width = 1113;
}
);
unicode = 53;
},
{
glyphname = six;
layers = (
{
layerId = "5171201B-12DC-4431-8FA8-A839D69F3129";
name = "#instance";
shapes = (
{
closed = 1;
nodes = (
(528,622,l),
(603,642,o),
(679,655,o),
(718,655,cs),
(792,655,o),
(819,609,o),
(819,504,cs),
(819,343,o),
(755,242,o),
(674,242,cs),
(585,242,o),
(554,362,o),
(554,537,cs),
(554,914,o),
(699,1223,o),
(1176,1223,cs),
(1244,1223,l),
(1273,1485,l),
(1191,1485,ls),
(452,1485,o),
(72,907,o),
(72,484,cs),
(72,217,o),
(224,-20,o),
(614,-20,cs),
(1042,-20,o),
(1300,266,o),
(1300,554,cs),
(1300,768,o),
(1158,893,o),
(934,893,cs),
(798,893,o),
(635,847,o),
(526,779,c)
);
}
);
width = 1373;
},
{
layerId = "058F6230-00F9-460F-9C2D-4FC5E161CC93";
shapes = (
{
closed = 1;
nodes = (
(528,622,l),
(603,642,o),
(679,655,o),
(718,655,cs),
(792,655,o),
(819,609,o),
(819,504,cs),
(819,343,o),
(755,242,o),
(674,242,cs),
(585,242,o),
(554,362,o),
(554,537,cs),
(554,914,o),
(699,1223,o),
(1176,1223,cs),
(1244,1223,l),
(1273,1485,l),
(1191,1485,ls),
(452,1485,o),
(72,907,o),
(72,484,cs),
(72,217,o),
(224,-20,o),
(614,-20,cs),
(1042,-20,o),
(1300,266,o),
(1300,554,cs),
(1300,768,o),
(1158,893,o),
(934,893,cs),
(798,893,o),
(635,847,o),
(526,779,c)
);
}
);
width = 1373;
},
{
layerId = "797B86FC-FBE9-46CE-B0B3-DC44F7F86021";
shapes = (
{
closed = 1;
nodes = (
(461,610,l),
(552,644,o),
(653,667,o),
(713,667,cs),
(811,667,o),
(847,607,o),
(847,496,cs),
(847,331,o),
(767,219,o),
(665,219,cs),
(556,219,o),
(511,348,o),
(511,539,cs),
(511,901,o),
(672,1246,o),
(1166,1246,cs),
(1224,1246,l),
(1251,1485,l),
(1181,1485,ls),
(468,1485,o),
(88,910,o),
(88,484,cs),
(88,218,o),
(237,-20,o),
(608,-20,cs),
(1012,-20,o),
(1270,262,o),
(1270,544,cs),
(1270,756,o),
(1124,886,o),
(880,886,cs),
(723,886,o),
(555,832,o),
(461,750,c)
);
}
);
width = 1360;
},
{
layerId = "C0B66080-0851-4CAD-97C1-7E69A4280B0F";
shapes = (
{
closed = 1;
nodes = (
(350,629,l),
(471,675,o),
(612,706,o),
(703,706,cs),
(873,706,o),
(940,599,o),
(940,471,cs),
(940,292,o),
(808,144,o),
(637,144,cs),
(460,144,o),
(370,303,o),
(370,522,cs),
(370,859,o),
(584,1321,o),
(1133,1321,cs),
(1159,1321,l),
(1177,1485,l),
(1149,1485,ls),
(520,1485,o),
(140,921,o),
(140,485,cs),
(140,222,o),
(279,-20,o),
(588,-20,cs),
(914,-20,o),
(1172,250,o),
(1172,511,cs),
(1172,717,o),
(1011,864,o),
(770,864,cs),
(627,864,o),
(462,812,o),
(357,733,c)
);
}
);
width = 1318;
},
{
layerId = "D16C0853-6864-4717-842E-4EFABF578FF1";
shapes = (
{
closed = 1;
nodes = (
(256,641,l),
(384,696,o),
(564,732,o),
(683,732,cs),
(917,732,o),
(997,594,o),
(997,460,cs),
(997,268,o),
(834,97,o),
(620,97,cs),
(401,97,o),
(281,275,o),
(281,502,cs),
(281,844,o),
(555,1368,o),
(1104,1368,cs),
(1117,1368,l),
(1129,1485,l),
(1128,1485,ls),
(524,1485,o),
(170,961,o),
(170,456,cs),
(170,194,o),
(293,-20,o),
(557,-20,cs),
(882,-20,o),
(1111,222,o),
(1111,513,cs),
(1111,716,o),
(956,850,o),
(700,850,cs),
(548,850,o),
(378,796,o),
(274,716,c)
);
}
);
width = 1291;
}
);
unicode = 54;
},
{
glyphname = seven;
layers = (
{
layerId = "058F6230-00F9-460F-9C2D-4FC5E161CC93";
shapes = (
{
closed = 1;
nodes = (
(752,1203,l),
(509,798,o),
(289,396,o),
(91,0,c),
(567,0,l),
(746,450,o),
(942,905,o),
(1163,1340,c),
(1178,1465,l),
(228,1465,l),
(152,1203,l)
);
}
);
width = 1152;
},
{
layerId = "797B86FC-FBE9-46CE-B0B3-DC44F7F86021";
shapes = (
{
closed = 1;
nodes = (
(780,1226,l),
(535,815,o),
(313,411,o),
(108,0,c),
(525,0,l),
(710,452,o),
(916,904,o),
(1148,1353,c),
(1161,1465,l),
(229,1465,l),
(160,1226,l)
);
}
);
width = 1134;
},
{
layerId = "C0B66080-0851-4CAD-97C1-7E69A4280B0F";
shapes = (
{
closed = 1;
nodes = (
(874,1301,l),
(620,870,o),
(393,459,o),
(163,0,c),
(387,0,l),
(591,460,o),
(831,900,o),
(1099,1395,c),
(1106,1465,l),
(233,1465,l),
(187,1301,l)
);
}
);
width = 1074;
},
{
layerId = "D16C0853-6864-4717-842E-4EFABF578FF1";
shapes = (
{
closed = 1;
nodes = (
(932,1348,l),
(672,903,o),
(442,489,o),
(196,0,c),
(299,0,l),
(515,465,o),
(786,897,o),
(1074,1422,c),
(1078,1465,l),
(234,1465,l),
(203,1348,l)
);
}
);
width = 1036;
}
);
unicode = 55;
},
{
glyphname = nine;
layers = (
{
layerId = "5171201B-12DC-4431-8FA8-A839D69F3129";
name = "#instance";
shapes = (
{
closed = 1;
nodes = (
(162,-20,l),
(163,-20,l),
(767,-20,o),
(1121,504,o),
(1121,1009,cs),
(1121,1271,o),
(998,1485,o),
(734,1485,cs),
(409,1485,o),
(180,1243,o),
(180,952,cs),
(180,749,o),
(335,615,o),
(591,615,cs),
(743,615,o),
(913,669,o),
(1017,749,c),
(1035,824,l),
(907,769,o),
(727,733,o),
(608,733,cs),
(374,733,o),
(294,871,o),
(294,1005,cs),
(294,1197,o),
(457,1368,o),
(671,1368,cs),
(890,1368,o),
(1010,1190,o),
(1010,963,cs),
(1010,621,o),
(736,97,o),
(187,97,cs),
(174,97,l)
);
}
);
width = 1291;
},
{
layerId = "058F6230-00F9-460F-9C2D-4FC5E161CC93";
shapes = (
{
closed = 1;
nodes = (
(100,-20,l),
(182,-20,ls),
(921,-20,o),
(1301,558,o),
(1301,981,cs),
(1301,1248,o),
(1149,1485,o),
(759,1485,cs),
(331,1485,o),
(73,1199,o),
(73,911,cs),
(73,697,o),
(215,572,o),
(439,572,cs),
(575,572,o),
(738,618,o),
(847,686,c),
(845,843,l),
(770,823,o),
(694,810,o),
(655,810,cs),
(581,810,o),
(554,856,o),
(554,961,cs),
(554,1122,o),
(618,1223,o),
(699,1223,cs),
(788,1223,o),
(819,1103,o),
(819,928,cs),
(819,551,o),
(674,242,o),
(197,242,cs),
(129,242,l)
);
}
);
width = 1373;
},
{
layerId = "797B86FC-FBE9-46CE-B0B3-DC44F7F86021";
shapes = (
{
closed = 1;
nodes = (
(109,-20,l),
(179,-20,ls),
(892,-20,o),
(1272,555,o),
(1272,981,cs),
(1272,1247,o),
(1123,1485,o),
(752,1485,cs),
(348,1485,o),
(90,1203,o),
(90,921,cs),
(90,709,o),
(236,579,o),
(480,579,cs),
(637,579,o),
(805,633,o),
(899,715,c),
(899,855,l),
(808,821,o),
(707,798,o),
(647,798,cs),
(549,798,o),
(513,858,o),
(513,969,cs),
(513,1134,o),
(593,1246,o),
(695,1246,cs),
(804,1246,o),
(849,1117,o),
(849,926,cs),
(849,564,o),
(688,219,o),
(194,219,cs),
(136,219,l)
);
}
);
width = 1360;
},
{
layerId = "C0B66080-0851-4CAD-97C1-7E69A4280B0F";
shapes = (
{
closed = 1;
nodes = (
(141,-20,l),
(169,-20,ls),
(798,-20,o),
(1178,544,o),
(1178,980,cs),
(1178,1243,o),
(1039,1485,o),
(730,1485,cs),
(404,1485,o),
(146,1215,o),
(146,954,cs),
(146,748,o),
(307,601,o),
(548,601,cs),
(691,601,o),
(856,653,o),
(961,732,c),
(968,836,l),
(847,790,o),
(706,759,o),
(615,759,cs),
(445,759,o),
(378,866,o),
(378,994,cs),
(378,1173,o),
(510,1321,o),
(681,1321,cs),
(858,1321,o),
(948,1162,o),
(948,943,cs),
(948,606,o),
(734,144,o),
(185,144,cs),
(159,144,l)
);
}
);
width = 1318;
},
{
layerId = "D16C0853-6864-4717-842E-4EFABF578FF1";
shapes = (
{
closed = 1;
nodes = (
(162,-20,l),
(163,-20,ls),
(767,-20,o),
(1121,504,o),
(1121,1009,cs),
(1121,1271,o),
(998,1485,o),
(734,1485,cs),
(409,1485,o),
(180,1243,o),
(180,952,cs),
(180,749,o),
(335,615,o),
(591,615,cs),
(743,615,o),
(913,669,o),
(1017,749,c),
(1035,824,l),
(907,769,o),
(727,733,o),
(608,733,cs),
(374,733,o),
(294,871,o),
(294,1005,cs),
(294,1197,o),
(457,1368,o),
(671,1368,cs),
(890,1368,o),
(1010,1190,o),
(1010,963,cs),
(1010,621,o),
(736,97,o),
(187,97,cs),
(174,97,l)
);
}
);
width = 1291;
}
);
unicode = 57;
},
{
glyphname = eight;
layers = (
{
layerId = "5171201B-12DC-4431-8FA8-A839D69F3129";
name = "#instance";
shapes = (
{
closed = 1;
nodes = (
(385,690,o),
(180,542,o),
(180,341,cs),
(180,163,o),
(277,-20,o),
(556,-20,cs),
(917,-20,o),
(1113,244,o),
(1113,440,cs),
(1113,596,o),
(953,692,o),
(811,778,c),
(952,866,o),
(1148,1016,o),
(1148,1177,cs),
(1148,1336,o),
(1035,1485,o),
(816,1485,cs),
(559,1485,o),
(342,1307,o),
(342,1080,cs),
(342,951,o),
(434,873,o),
(576,791,c)
);
},
{
closed = 1;
nodes = (
(792,668,o),
(986,561,o),
(986,394,cs),
(986,237,o),
(829,97,o),
(617,97,cs),
(414,97,o),
(264,229,o),
(305,417,c),
(340,557,o),
(470,662,o),
(647,755,c)
);
},
{
closed = 1;
nodes = (
(608,896,o),
(466,999,o),
(466,1129,cs),
(466,1275,o),
(620,1368,o),
(777,1368,cs),
(961,1368,o),
(1068,1237,o),
(1022,1100,c),
(988,993,o),
(876,888,o),
(752,809,c)
);
}
);
width = 1324;
},
{
layerId = "058F6230-00F9-460F-9C2D-4FC5E161CC93";
shapes = (
{
closed = 1;
nodes = (
(215,617,o),
(59,515,o),
(59,333,cs),
(59,131,o),
(253,-20,o),
(601,-20,cs),
(986,-20,o),
(1265,166,o),
(1265,448,cs),
(1265,630,o),
(1149,722,o),
(996,803,c),
(1163,888,o),
(1294,987,o),
(1294,1157,cs),
(1294,1346,o),
(1123,1485,o),
(813,1485,cs),
(456,1485,o),
(196,1297,o),
(196,1029,cs),
(196,872,o),
(285,778,o),
(391,717,c)
);
},
{
closed = 1;
nodes = (
(767,549,o),
(859,508,o),
(859,408,cs),
(859,311,o),
(769,242,o),
(661,242,cs),
(548,242,o),
(480,314,o),
(475,403,cs),
(471,478,o),
(514,565,o),
(598,620,c)
);
},
{
closed = 1;
nodes = (
(657,947,o),
(588,993,o),
(588,1078,cs),
(588,1167,o),
(667,1223,o),
(753,1223,cs),
(825,1223,o),
(892,1182,o),
(897,1099,cs),
(901,1033,o),
(867,960,o),
(769,897,c)
);
}
);
width = 1356;
},
{
layerId = "797B86FC-FBE9-46CE-B0B3-DC44F7F86021";
shapes = (
{
closed = 1;
nodes = (
(242,628,o),
(78,518,o),
(78,333,cs),
(78,139,o),
(259,-20,o),
(595,-20,cs),
(973,-20,o),
(1241,181,o),
(1241,446,cs),
(1241,624,o),
(1119,717,o),
(966,799,c),
(1130,885,o),
(1271,991,o),
(1271,1160,cs),
(1271,1342,o),
(1106,1485,o),
(812,1485,cs),
(475,1485,o),
(219,1296,o),
(219,1039,cs),
(219,885,o),
(311,792,o),
(421,728,c)
);
},
{
closed = 1;
nodes = (
(774,566,o),
(879,516,o),
(879,406,cs),
(879,299,o),
(779,219,o),
(654,219,cs),
(528,219,o),
(448,299,o),
(448,402,cs),
(448,489,o),
(505,578,o),
(606,640,c)
);
},
{
closed = 1;
nodes = (
(648,940,o),
(569,993,o),
(569,1086,cs),
(569,1185,o),
(660,1246,o),
(756,1246,cs),
(843,1246,o),
(917,1195,o),
(917,1102,cs),
(917,1029,o),
(872,952,o),
(766,884,c)
);
}
);
width = 1351;
},
{
layerId = "C0B66080-0851-4CAD-97C1-7E69A4280B0F";
shapes = (
{
closed = 1;
nodes = (
(331,665,o),
(141,527,o),
(141,334,cs),
(141,165,o),
(279,-20,o),
(576,-20,cs),
(929,-20,o),
(1162,232,o),
(1162,440,cs),
(1162,603,o),
(1021,700,o),
(866,787,c),
(1021,874,o),
(1196,1005,o),
(1196,1171,cs),
(1196,1329,o),
(1051,1485,o),
(810,1485,cs),
(537,1485,o),
(295,1294,o),
(295,1071,cs),
(295,928,o),
(398,837,o),
(520,765,c)
);
},
{
closed = 1;
nodes = (
(797,621,o),
(946,543,o),
(946,400,cs),
(946,260,o),
(811,144,o),
(632,144,cs),
(463,144,o),
(343,250,o),
(360,400,cs),
(373,525,o),
(476,620,o),
(633,707,c)
);
},
{
closed = 1;
nodes = (
(619,916,o),
(506,993,o),
(506,1112,cs),
(506,1243,o),
(636,1321,o),
(767,1321,cs),
(901,1321,o),
(1001,1237,o),
(983,1112,cs),
(969,1015,o),
(890,924,o),
(755,842,c)
);
}
);
width = 1335;
},
{
layerId = "D16C0853-6864-4717-842E-4EFABF578FF1";
shapes = (
{
closed = 1;
nodes = (
(385,690,o),
(180,542,o),
(180,341,cs),
(180,163,o),
(277,-20,o),
(556,-20,cs),
(917,-20,o),
(1113,244,o),
(1113,440,cs),
(1113,596,o),
(953,692,o),
(811,778,c),
(952,866,o),
(1148,1016,o),
(1148,1177,cs),
(1148,1336,o),
(1035,1485,o),
(816,1485,cs),
(559,1485,o),
(342,1307,o),
(342,1080,cs),
(342,951,o),
(434,873,o),
(576,791,c)
);
},
{
closed = 1;
nodes = (
(792,668,o),
(986,561,o),
(986,394,cs),
(986,237,o),
(829,97,o),
(617,97,cs),
(414,97,o),
(264,229,o),
(305,417,c),
(340,557,o),
(470,662,o),
(647,755,c)
);
},
{
closed = 1;
nodes = (
(608,896,o),
(466,999,o),
(466,1129,cs),
(466,1275,o),
(620,1368,o),
(777,1368,cs),
(961,1368,o),
(1068,1237,o),
(1022,1100,cs),
(988,993,o),
(876,888,o),
(752,809,c)
);
}
);
width = 1324;
}
);
unicode = 56;
},
{
glyphname = at;
layers = (
{
layerId = "058F6230-00F9-460F-9C2D-4FC5E161CC93";
shapes = (
{
closed = 1;
nodes = (
(1354,-52,l),
(1945,76,o),
(2314,402,o),
(2314,840,cs),
(2314,1320,o),
(1868,1497,o),
(1456,1497,cs),
(782,1497,o),
(147,1005,o),
(147,272,cs),
(147,-360,o),
(614,-593,o),
(1050,-593,cs),
(1270,-593,o),
(1558,-532,o),
(1794,-350,c),
(1816,-158,l),
(1605,-272,o),
(1351,-306,o),
(1178,-306,cs),
(728,-306,o),
(511,-74,o),
(511,315,cs),
(511,806,o),
(868,1209,o),
(1392,1209,cs),
(1684,1209,o),
(1971,1088,o),
(1971,776,cs),
(1971,618,o),
(1896,386,o),
(1717,299,c),
(1780,853,l),
(1620,908,o),
(1490,921,o),
(1397,921,cs),
(964,921,o),
(723,615,o),
(723,348,cs),
(723,175,o),
(824,-20,o),
(1016,-20,cs),
(1138,-20,o),
(1224,57,o),
(1336,157,c)
);
},
{
closed = 1;
nodes = (
(1360,367,l),
(1320,323,o),
(1249,264,o),
(1195,264,cs),
(1129,264,o),
(1095,348,o),
(1095,423,cs),
(1095,535,o),
(1173,662,o),
(1288,662,cs),
(1325,662,o),
(1377,650,o),
(1390,638,c)
);
}
);
width = 2455;
},
{
layerId = "797B86FC-FBE9-46CE-B0B3-DC44F7F86021";
shapes = (
{
closed = 1;
nodes = (
(1344,-48,l),
(1917,66,o),
(2261,409,o),
(2261,822,cs),
(2261,1276,o),
(1846,1470,o),
(1431,1470,cs),
(777,1470,o),
(153,988,o),
(153,274,cs),
(153,-320,o),
(586,-570,o),
(1032,-570,cs),
(1254,-570,o),
(1541,-508,o),
(1765,-339,c),
(1785,-165,l),
(1579,-277,o),
(1326,-315,o),
(1147,-315,cs),
(697,-315,o),
(478,-74,o),
(478,313,cs),
(478,823,o),
(857,1215,o),
(1374,1215,cs),
(1678,1215,o),
(1960,1080,o),
(1960,764,cs),
(1960,586,o),
(1870,351,o),
(1666,262,c),
(1734,859,l),
(1589,909,o),
(1467,924,o),
(1375,924,cs),
(959,924,o),
(713,621,o),
(713,346,cs),
(713,168,o),
(816,-20,o),
(1004,-20,cs),
(1120,-20,o),
(1211,51,o),
(1329,168,c)
);
},
{
closed = 1;
nodes = (
(1352,369,l),
(1300,303,o),
(1219,238,o),
(1158,238,cs),
(1086,238,o),
(1048,328,o),
(1048,414,cs),
(1048,545,o),
(1137,688,o),
(1275,688,cs),
(1315,688,o),
(1366,676,o),
(1385,663,c)
);
}
);
width = 2410;
},
{
layerId = "C0B66080-0851-4CAD-97C1-7E69A4280B0F";
shapes = (
{
closed = 1;
nodes = (
(1311,-34,l),
(1824,34,o),
(2087,432,o),
(2087,761,cs),
(2087,1130,o),
(1775,1382,o),
(1349,1382,cs),
(760,1382,o),
(173,932,o),
(173,282,cs),
(173,-188,o),
(495,-494,o),
(974,-494,cs),
(1200,-494,o),
(1486,-428,o),
(1669,-303,c),
(1682,-189,l),
(1492,-295,o),
(1243,-346,o),
(1044,-346,cs),
(594,-346,o),
(370,-75,o),
(370,306,cs),
(370,878,o),
(820,1234,o),
(1314,1234,cs),
(1659,1234,o),
(1925,1052,o),
(1925,725,cs),
(1925,479,o),
(1785,237,o),
(1499,141,c),
(1583,878,l),
(1487,913,o),
(1392,933,o),
(1301,933,cs),
(944,933,o),
(679,640,o),
(679,340,cs),
(679,146,o),
(790,-20,o),
(963,-20,cs),
(1060,-20,o),
(1168,30,o),
(1305,205,c)
);
},
{
closed = 1;
nodes = (
(1325,377,l),
(1233,236,o),
(1120,153,o),
(1037,153,cs),
(945,153,o),
(892,261,o),
(892,385,cs),
(892,579,o),
(1018,773,o),
(1231,773,cs),
(1281,773,o),
(1329,762,o),
(1367,747,c)
);
}
);
width = 2261;
},
{
layerId = "D16C0853-6864-4717-842E-4EFABF578FF1";
shapes = (
{
closed = 1;
nodes = (
(1288,-25,l),
(1764,14,o),
(1976,456,o),
(1976,727,cs),
(1976,1048,o),
(1727,1327,o),
(1305,1327,cs),
(740,1327,o),
(184,890,o),
(184,277,cs),
(184,-111,o),
(437,-447,o),
(935,-447,cs),
(1167,-447,o),
(1449,-378,o),
(1608,-281,c),
(1616,-204,l),
(1437,-306,o),
(1190,-365,o),
(981,-365,cs),
(537,-365,o),
(303,-70,o),
(303,296,cs),
(303,920,o),
(811,1246,o),
(1282,1246,cs),
(1644,1246,o),
(1901,1031,o),
(1901,703,cs),
(1901,408,o),
(1724,150,o),
(1388,51,c),
(1484,889,l),
(1419,918,o),
(1344,940,o),
(1251,938,cs),
(927,928,o),
(659,650,o),
(659,333,cs),
(659,129,o),
(773,-20,o),
(935,-20,cs),
(1021,-20,o),
(1140,17,o),
(1288,228,c)
);
},
{
closed = 1;
nodes = (
(1308,382,l),
(1189,192,o),
(1057,94,o),
(957,94,cs),
(855,94,o),
(793,211,o),
(793,360,cs),
(793,604,o),
(949,827,o),
(1210,827,cs),
(1266,827,o),
(1308,816,o),
(1354,799,c)
);
}
);
width = 2168;
}
);
unicode = 64;
},
{
glyphname = underscore;
layers = (
{
layerId = "058F6230-00F9-460F-9C2D-4FC5E161CC93";
shapes = (
{
closed = 1;
nodes = (
(-35,0,l),
(-68,-288,l),
(919,-288,l),
(952,0,l)
);
}
);
width = 1036;
},
{
layerId = "797B86FC-FBE9-46CE-B0B3-DC44F7F86021";
shapes = (
{
closed = 1;
nodes = (
(-30,0,l),
(-59,-255,l),
(928,-255,l),
(957,0,l)
);
}
);
width = 1047;
},
{
layerId = "C0B66080-0851-4CAD-97C1-7E69A4280B0F";
shapes = (
{
closed = 1;
nodes = (
(-12,0,l),
(-29,-147,l),
(958,-147,l),
(975,0,l)
);
}
);
width = 1083;
},
{
layerId = "D16C0853-6864-4717-842E-4EFABF578FF1";
shapes = (
{
closed = 1;
nodes = (
(-2,0,l),
(-11,-80,l),
(976,-80,l),
(985,0,l)
);
}
);
width = 1105;
}
);
unicode = 95;
},
{
glyphname = braceleft;
layers = (
{
layerId = "058F6230-00F9-460F-9C2D-4FC5E161CC93";
shapes = (
{
closed = 1;
nodes = (
(99,523,l),
(202,486,o),
(277,428,o),
(258,264,cs),
(244,148,l),
(201,-178,o),
(410,-358,o),
(748,-358,cs),
(842,-358,l),
(875,-70,l),
(783,-70,ls),
(613,-70,o),
(546,37,o),
(560,163,cs),
(572,270,ls),
(593,457,o),
(541,561,o),
(389,622,c),
(554,682,o),
(632,785,o),
(652,974,cs),
(664,1081,ls),
(678,1207,o),
(771,1314,o),
(941,1314,cs),
(1032,1314,l),
(1065,1602,l),
(971,1602,ls),
(613,1602,o),
(388,1412,o),
(353,1098,cs),
(340,980,ls),
(322,816,o),
(233,758,o),
(122,721,c)
);
}
);
width = 1047;
},
{
layerId = "797B86FC-FBE9-46CE-B0B3-DC44F7F86021";
shapes = (
{
closed = 1;
nodes = (
(100,531,l),
(208,493,o),
(292,434,o),
(274,276,cs),
(256,123,ls),
(215,-192,o),
(412,-358,o),
(724,-358,cs),
(826,-358,l),
(855,-103,l),
(753,-103,ls),
(590,-103,o),
(518,-3,o),
(533,133,cs),
(549,276,ls),
(569,456,o),
(514,564,o),
(362,622,c),
(527,679,o),
(608,787,o),
(628,968,cs),
(644,1111,ls),
(659,1247,o),
(755,1347,o),
(918,1347,cs),
(1020,1347,l),
(1049,1602,l),
(947,1602,ls),
(619,1602,o),
(404,1426,o),
(370,1121,cs),
(353,968,ls),
(335,810,o),
(238,751,o),
(121,713,c)
);
}
);
width = 1037;
},
{
layerId = "C0B66080-0851-4CAD-97C1-7E69A4280B0F";
shapes = (
{
closed = 1;
nodes = (
(104,558,l),
(229,515,o),
(342,455,o),
(326,316,cs),
(294,41,l),
(261,-237,o),
(418,-358,o),
(645,-358,cs),
(774,-358,l),
(790,-211,l),
(653,-211,ls),
(513,-211,o),
(424,-136,o),
(443,35,cs),
(473,295,ls),
(491,452,o),
(426,573,o),
(274,622,c),
(437,670,o),
(530,792,o),
(548,949,cs),
(577,1209,ls),
(596,1380,o),
(703,1455,o),
(843,1455,cs),
(981,1455,l),
(997,1602,l),
(869,1602,ls),
(638,1602,o),
(457,1471,o),
(426,1196,cs),
(395,928,ls),
(379,789,o),
(253,729,o),
(118,686,c)
);
}
);
width = 1003;
},
{
layerId = "D16C0853-6864-4717-842E-4EFABF578FF1";
shapes = (
{
closed = 1;
nodes = (
(105,574,l),
(241,528,o),
(371,468,o),
(357,341,cs),
(307,-94,l),
(280,-361,o),
(513,-358,o),
(595,-358,cs),
(740,-358,l),
(749,-278,l),
(588,-278,ls),
(463,-278,o),
(365,-218,o),
(387,-25,cs),
(425,306,ls),
(442,449,o),
(371,578,o),
(219,622,c),
(342,653,o),
(474,760,o),
(489,863,c),
(534,1269,ls),
(555,1462,o),
(670,1522,o),
(795,1522,cs),
(955,1522,l),
(964,1602,l),
(819,1602,ls),
(692,1602,o),
(489,1524,o),
(469,1320,c),
(421,903,ls),
(406,776,o),
(261,716,o),
(115,668,c)
);
}
);
width = 981;
}
);
rightKerningGroup = _parenleft_Left;
unicode = 123;
},
{
glyphname = braceright;
layers = (
{
layerId = "058F6230-00F9-460F-9C2D-4FC5E161CC93";
shapes = (
{
closed = 1;
nodes = (
(969,721,l),
(865,758,o),
(790,816,o),
(810,980,cs),
(824,1096,ls),
(862,1421,o),
(666,1602,o),
(321,1602,cs),
(227,1602,l),
(194,1314,l),
(285,1314,ls),
(455,1314,o),
(522,1207,o),
(508,1081,cs),
(496,974,ls),
(476,787,o),
(527,683,o),
(680,622,c),
(514,561,o),
(437,457,o),
(416,270,cs),
(404,163,ls),
(390,37,o),
(297,-70,o),
(127,-70,cs),
(36,-70,l),
(4,-358,l),
(98,-358,ls),
(455,-358,o),
(680,-167,o),
(715,146,cs),
(728,264,ls),
(745,428,o),
(835,486,o),
(946,523,c)
);
}
);
width = 1047;
},
{
layerId = "797B86FC-FBE9-46CE-B0B3-DC44F7F86021";
shapes = (
{
closed = 1;
nodes = (
(958,713,l),
(849,751,o),
(765,810,o),
(784,968,cs),
(802,1121,ls),
(839,1435,o),
(652,1602,o),
(334,1602,cs),
(232,1602,l),
(203,1347,l),
(305,1347,ls),
(468,1347,o),
(540,1247,o),
(525,1111,cs),
(509,968,ls),
(489,788,o),
(544,680,o),
(696,622,c),
(531,564,o),
(450,456,o),
(430,276,cs),
(414,133,ls),
(399,-3,o),
(303,-103,o),
(140,-103,cs),
(38,-103,l),
(9,-358,l),
(111,-358,ls),
(439,-358,o),
(654,-181,o),
(688,123,cs),
(705,276,ls),
(722,434,o),
(820,493,o),
(937,531,c)
);
}
);
width = 1037;
},
{
layerId = "C0B66080-0851-4CAD-97C1-7E69A4280B0F";
shapes = (
{
closed = 1;
nodes = (
(921,686,l),
(796,729,o),
(683,789,o),
(699,928,cs),
(730,1204,ls),
(762,1481,o),
(607,1602,o),
(378,1602,cs),
(250,1602,l),
(233,1455,l),
(371,1455,ls),
(512,1455,o),
(600,1380,o),
(581,1209,cs),
(551,949,ls),
(533,792,o),
(599,671,o),
(750,622,c),
(587,573,o),
(494,452,o),
(477,295,cs),
(447,35,ls),
(428,-136,o),
(322,-211,o),
(182,-211,cs),
(44,-211,l),
(27,-358,l),
(155,-358,ls),
(387,-358,o),
(567,-227,o),
(598,48,cs),
(629,316,ls),
(645,455,o),
(771,515,o),
(906,558,c)
);
}
);
width = 1003;
},
{
layerId = "D16C0853-6864-4717-842E-4EFABF578FF1";
shapes = (
{
closed = 1;
nodes = (
(896,668,l),
(762,716,o),
(630,776,o),
(645,903,cs),
(695,1338,l),
(722,1605,o),
(487,1602,o),
(405,1602,cs),
(260,1602,l),
(251,1522,l),
(411,1522,ls),
(538,1522,o),
(636,1462,o),
(614,1269,cs),
(576,938,ls),
(560,795,o),
(631,665,o),
(782,622,c),
(658,589,o),
(527,484,o),
(512,381,c),
(466,-25,ls),
(444,-218,o),
(334,-278,o),
(207,-278,cs),
(47,-278,l),
(37,-358,l),
(182,-358,ls),
(310,-358,o),
(513,-280,o),
(533,-76,c),
(581,341,ls),
(595,468,o),
(740,528,o),
(886,574,c)
);
}
);
width = 981;
}
);
leftKerningGroup = _parenright_Right;
unicode = 125;
},
{
glyphname = less;
layers = (
{
layerId = "058F6230-00F9-460F-9C2D-4FC5E161CC93";
shapes = (
{
closed = 1;
nodes = (
(140,446,l),
(903,19,l),
(940,344,l),
(479,602,l),
(999,860,l),
(1036,1185,l),
(175,758,l)
);
}
);
width = 1174;
},
{
layerId = "797B86FC-FBE9-46CE-B0B3-DC44F7F86021";
shapes = (
{
closed = 1;
nodes = (
(143,469,l),
(905,30,l),
(938,319,l),
(449,602,l),
(1002,885,l),
(1035,1174,l),
(173,735,l)
);
}
);
width = 1172;
},
{
layerId = "C0B66080-0851-4CAD-97C1-7E69A4280B0F";
shapes = (
{
closed = 1;
nodes = (
(152,545,l),
(911,66,l),
(930,236,l),
(350,602,l),
(1013,968,l),
(1033,1138,l),
(165,659,l)
);
}
);
width = 1164;
},
{
layerId = "D16C0853-6864-4717-842E-4EFABF578FF1";
shapes = (
{
closed = 1;
nodes = (
(158,592,l),
(914,88,l),
(925,184,l),
(288,602,l),
(1020,1020,l),
(1031,1116,l),
(160,612,l)
);
}
);
width = 1159;
}
);
unicode = 60;
},
{
glyphname = euro;
layers = (
{
layerId = "058F6230-00F9-460F-9C2D-4FC5E161CC93";
shapes = (
{
closed = 1;
nodes = (
(1286,792,l),
(1393,1029,l),
(854,1029,l),
(940,1157,o),
(1071,1223,o),
(1208,1223,cs),
(1287,1223,o),
(1358,1205,o),
(1432,1161,c),
(1453,1169,l),
(1575,1439,l),
(1471,1473,o),
(1312,1485,o),
(1228,1485,cs),
(920,1485,o),
(567,1327,o),
(392,1029,c),
(194,1029,l),
(167,792,l)
);
},
{
closed = 1;
nodes = (
(153,670,l),
(126,433,l),
(316,433,l),
(378,151,o),
(597,-20,o),
(898,-20,cs),
(1074,-20,o),
(1263,33,o),
(1393,127,c),
(1415,319,l),
(1345,291,o),
(1255,265,o),
(1141,265,cs),
(988,265,o),
(846,312,o),
(793,433,c),
(1126,433,l),
(1232,670,l)
);
}
);
width = 1579;
},
{
layerId = "797B86FC-FBE9-46CE-B0B3-DC44F7F86021";
shapes = (
{
closed = 1;
nodes = (
(1284,800,l),
(1382,1015,l),
(811,1015,l),
(899,1162,o),
(1043,1246,o),
(1200,1246,cs),
(1280,1246,o),
(1363,1228,o),
(1442,1183,c),
(1463,1191,l),
(1575,1436,l),
(1468,1472,o),
(1314,1485,o),
(1228,1485,cs),
(919,1485,o),
(573,1320,o),
(405,1015,c),
(206,1015,l),
(181,800,l)
);
},
{
closed = 1;
nodes = (
(165,660,l),
(141,445,l),
(330,445,l),
(387,156,o),
(608,-20,o),
(908,-20,cs),
(1075,-20,o),
(1269,30,o),
(1402,128,c),
(1422,303,l),
(1332,262,o),
(1230,238,o),
(1122,238,cs),
(946,238,o),
(805,308,o),
(753,445,c),
(1124,445,l),
(1221,660,l)
);
}
);
width = 1601;
},
{
layerId = "C0B66080-0851-4CAD-97C1-7E69A4280B0F";
shapes = (
{
closed = 1;
nodes = (
(1279,827,l),
(1345,970,l),
(669,970,l),
(765,1177,o),
(952,1321,o),
(1175,1321,cs),
(1258,1321,o),
(1381,1303,o),
(1476,1255,c),
(1497,1265,l),
(1576,1425,l),
(1459,1468,o),
(1322,1485,o),
(1227,1485,cs),
(915,1485,o),
(592,1298,o),
(447,970,c),
(245,970,l),
(228,827,l)
);
},
{
closed = 1;
nodes = (
(206,628,l),
(190,485,l),
(377,485,l),
(416,172,o),
(643,-20,o),
(942,-20,cs),
(1079,-20,o),
(1289,19,o),
(1431,130,c),
(1445,250,l),
(1290,167,o),
(1148,150,o),
(1058,150,cs),
(808,150,o),
(669,294,o),
(620,485,c),
(1119,485,l),
(1185,628,l)
);
}
);
width = 1672;
},
{
layerId = "D16C0853-6864-4717-842E-4EFABF578FF1";
shapes = (
{
closed = 1;
nodes = (
(1275,843,l),
(1320,941,l),
(579,941,l),
(680,1186,o),
(895,1368,o),
(1157,1368,cs),
(1243,1368,o),
(1397,1348,o),
(1500,1305,c),
(1521,1317,l),
(1573,1416,l),
(1454,1462,o),
(1327,1485,o),
(1221,1485,cs),
(917,1485,o),
(603,1286,o),
(471,941,c),
(267,941,l),
(256,843,l)
);
},
{
closed = 1;
nodes = (
(230,609,l),
(219,510,l),
(405,510,l),
(434,180,o),
(668,-20,o),
(958,-20,cs),
(1087,-20,o),
(1317,19,o),
(1448,123,c),
(1456,205,l),
(1270,103,o),
(1092,95,o),
(1022,95,cs),
(717,95,o),
(585,286,o),
(537,510,c),
(1115,510,l),
(1162,609,l)
);
}
);
width = 1716;
}
);
unicode = 8364;
},
{
glyphname = dagger;
layers = (
{
layerId = "058F6230-00F9-460F-9C2D-4FC5E161CC93";
shapes = (
{
closed = 1;
nodes = (
(265,1098,l),
(232,811,l),
(612,811,l),
(459,-536,l),
(760,-536,l),
(913,811,l),
(1293,811,l),
(1325,1098,l),
(945,1098,l),
(988,1465,l),
(687,1465,l),
(645,1098,l)
);
}
);
width = 1461;
},
{
layerId = "797B86FC-FBE9-46CE-B0B3-DC44F7F86021";
shapes = (
{
closed = 1;
nodes = (
(263,1082,l),
(234,827,l),
(625,827,l),
(470,-536,l),
(735,-536,l),
(890,827,l),
(1281,827,l),
(1310,1082,l),
(919,1082,l),
(963,1465,l),
(698,1465,l),
(654,1082,l)
);
}
);
width = 1447;
},
{
layerId = "C0B66080-0851-4CAD-97C1-7E69A4280B0F";
shapes = (
{
closed = 1;
nodes = (
(257,1028,l),
(240,881,l),
(667,881,l),
(506,-536,l),
(654,-536,l),
(815,881,l),
(1242,881,l),
(1259,1028,l),
(832,1028,l),
(882,1465,l),
(734,1465,l),
(684,1028,l)
);
}
);
width = 1402;
},
{
layerId = "D16C0853-6864-4717-842E-4EFABF578FF1";
shapes = (
{
closed = 1;
nodes = (
(253,995,l),
(244,914,l),
(693,914,l),
(527,-536,l),
(602,-536,l),
(768,914,l),
(1217,914,l),
(1227,995,l),
(778,995,l),
(830,1465,l),
(755,1465,l),
(703,995,l)
);
}
);
width = 1373;
}
);
unicode = 8224;
},
{
glyphname = daggerdbl;
layers = (
{
layerId = "058F6230-00F9-460F-9C2D-4FC5E161CC93";
shapes = (
{
closed = 1;
nodes = (
(316,1098,l),
(283,811,l),
(663,811,l),
(585,128,l),
(205,128,l),
(172,-159,l),
(552,-159,l),
(509,-536,l),
(810,-536,l),
(853,-159,l),
(1233,-159,l),
(1266,128,l),
(886,128,l),
(964,811,l),
(1344,811,l),
(1377,1098,l),
(997,1098,l),
(1038,1465,l),
(737,1465,l),
(696,1098,l)
);
}
);
width = 1561;
},
{
layerId = "797B86FC-FBE9-46CE-B0B3-DC44F7F86021";
shapes = (
{
closed = 1;
nodes = (
(314,1082,l),
(285,827,l),
(676,827,l),
(594,112,l),
(203,112,l),
(174,-143,l),
(565,-143,l),
(520,-536,l),
(785,-536,l),
(830,-143,l),
(1221,-143,l),
(1250,112,l),
(859,112,l),
(941,827,l),
(1332,827,l),
(1361,1082,l),
(970,1082,l),
(1013,1465,l),
(748,1465,l),
(705,1082,l)
);
}
);
width = 1547;
},
{
layerId = "C0B66080-0851-4CAD-97C1-7E69A4280B0F";
shapes = (
{
closed = 1;
nodes = (
(307,1028,l),
(291,881,l),
(718,881,l),
(623,58,l),
(197,58,l),
(180,-89,l),
(607,-89,l),
(556,-536,l),
(704,-536,l),
(755,-89,l),
(1182,-89,l),
(1198,58,l),
(771,58,l),
(866,881,l),
(1293,881,l),
(1309,1028,l),
(882,1028,l),
(932,1465,l),
(784,1465,l),
(734,1028,l)
);
}
);
width = 1502;
},
{
layerId = "D16C0853-6864-4717-842E-4EFABF578FF1";
shapes = (
{
closed = 1;
nodes = (
(301,995,l),
(293,914,l),
(742,914,l),
(641,25,l),
(192,25,l),
(182,-56,l),
(631,-56,l),
(577,-536,l),
(652,-536,l),
(706,-56,l),
(1155,-56,l),
(1165,25,l),
(716,25,l),
(817,914,l),
(1266,914,l),
(1274,995,l),
(825,995,l),
(880,1465,l),
(805,1465,l),
(750,995,l)
);
}
);
width = 1473;
}
);
unicode = 8225;
},
{
glyphname = florin;
layers = (
{
layerId = "058F6230-00F9-460F-9C2D-4FC5E161CC93";
shapes = (
{
closed = 1;
nodes = (
(139,-536,l),
(596,-536,l),
(733,664,l),
(988,664,l),
(1073,923,l),
(762,923,l),
(767,960,ls),
(788,1137,o),
(837,1226,o),
(936,1226,cs),
(974,1226,o),
(1015,1214,o),
(1040,1194,c),
(1060,1204,l),
(1142,1453,l),
(1072,1475,o),
(986,1485,o),
(912,1485,cs),
(557,1485,o),
(341,1250,o),
(309,944,cs),
(307,923,l),
(111,843,l),
(64,664,l),
(275,664,l)
);
}
);
width = 1137;
},
{
layerId = "797B86FC-FBE9-46CE-B0B3-DC44F7F86021";
shapes = (
{
closed = 1;
nodes = (
(141,-536,l),
(541,-536,l),
(680,687,l),
(950,687,l),
(1029,923,l),
(707,923,l),
(713,973,ls),
(734,1149,o),
(790,1249,o),
(906,1249,cs),
(946,1249,o),
(989,1237,o),
(1018,1217,c),
(1038,1227,l),
(1114,1454,l),
(1047,1475,o),
(965,1485,o),
(895,1485,cs),
(554,1485,o),
(344,1250,o),
(312,951,cs),
(309,923,l),
(111,851,l),
(68,687,l),
(280,687,l)
);
}
);
width = 1109;
},
{
layerId = "C0B66080-0851-4CAD-97C1-7E69A4280B0F";
shapes = (
{
closed = 1;
nodes = (
(147,-536,l),
(359,-536,l),
(506,762,l),
(823,762,l),
(883,923,l),
(524,923,l),
(535,1016,ls),
(555,1189,o),
(636,1324,o),
(807,1324,cs),
(852,1324,o),
(904,1314,o),
(945,1292,c),
(966,1302,l),
(1021,1458,l),
(966,1476,o),
(895,1485,o),
(838,1485,cs),
(543,1485,o),
(355,1250,o),
(323,973,cs),
(317,923,l),
(111,876,l),
(81,762,l),
(295,762,l)
);
}
);
width = 1016;
},
{
layerId = "D16C0853-6864-4717-842E-4EFABF578FF1";
shapes = (
{
closed = 1;
nodes = (
(151,-536,l),
(244,-536,l),
(397,809,l),
(743,809,l),
(791,923,l),
(409,923,l),
(423,1043,ls),
(447,1248,o),
(570,1371,o),
(753,1371,cs),
(791,1371,o),
(852,1367,o),
(900,1344,c),
(922,1354,l),
(963,1461,l),
(914,1477,o),
(843,1485,o),
(795,1485,cs),
(514,1485,o),
(373,1335,o),
(329,986,cs),
(321,923,l),
(110,892,l),
(88,809,l),
(303,809,l)
);
}
);
width = 958;
}
);
unicode = 402;
},
{
glyphname = guilsinglleft;
layers = (
{
layerId = "058F6230-00F9-460F-9C2D-4FC5E161CC93";
shapes = (
{
closed = 1;
nodes = (
(86,506,l),
(370,109,l),
(602,300,l),
(391,574,l),
(665,848,l),
(476,1039,l),
(101,642,l)
);
}
);
width = 737;
},
{
layerId = "797B86FC-FBE9-46CE-B0B3-DC44F7F86021";
shapes = (
{
closed = 1;
nodes = (
(89,514,l),
(372,118,l),
(581,293,l),
(367,574,l),
(645,855,l),
(476,1030,l),
(103,634,l)
);
}
);
width = 727;
},
{
layerId = "C0B66080-0851-4CAD-97C1-7E69A4280B0F";
shapes = (
{
closed = 1;
nodes = (
(100,541,l),
(378,148,l),
(511,269,l),
(289,574,l),
(580,878,l),
(476,999,l),
(108,607,l)
);
}
);
width = 695;
},
{
layerId = "D16C0853-6864-4717-842E-4EFABF578FF1";
shapes = (
{
closed = 1;
nodes = (
(107,557,l),
(382,167,l),
(461,254,l),
(233,574,l),
(533,892,l),
(476,980,l),
(110,589,l)
);
}
);
width = 675;
}
);
unicode = 8249;
},
{
glyphname = guillemetleft;
layers = (
{
layerId = "058F6230-00F9-460F-9C2D-4FC5E161CC93";
shapes = (
{
closed = 1;
nodes = (
(86,506,l),
(370,109,l),
(602,300,l),
(391,574,l),
(665,848,l),
(476,1039,l),
(101,642,l)
);
},
{
closed = 1;
nodes = (
(622,506,l),
(907,109,l),
(1139,300,l),
(927,574,l),
(1201,848,l),
(1013,1039,l),
(638,642,l)
);
}
);
width = 1273;
},
{
layerId = "797B86FC-FBE9-46CE-B0B3-DC44F7F86021";
shapes = (
{
closed = 1;
nodes = (
(89,514,l),
(372,118,l),
(581,293,l),
(367,574,l),
(645,855,l),
(476,1030,l),
(103,634,l)
);
},
{
closed = 1;
nodes = (
(612,514,l),
(895,118,l),
(1104,293,l),
(890,574,l),
(1168,855,l),
(999,1030,l),
(626,634,l)
);
}
);
width = 1250;
},
{
layerId = "C0B66080-0851-4CAD-97C1-7E69A4280B0F";
shapes = (
{
closed = 1;
nodes = (
(100,541,l),
(378,148,l),
(511,269,l),
(289,574,l),
(580,878,l),
(476,999,l),
(108,607,l)
);
},
{
closed = 1;
nodes = (
(579,541,l),
(856,148,l),
(990,269,l),
(767,574,l),
(1059,878,l),
(954,999,l),
(587,607,l)
);
}
);
width = 1173;
},
{
layerId = "D16C0853-6864-4717-842E-4EFABF578FF1";
shapes = (
{
closed = 1;
nodes = (
(107,557,l),
(382,167,l),
(461,254,l),
(233,574,l),
(533,892,l),
(476,980,l),
(110,589,l)
);
},
{
closed = 1;
nodes = (
(558,557,l),
(831,167,l),
(912,254,l),
(685,574,l),
(984,892,l),
(925,980,l),
(561,589,l)
);
}
);
width = 1124;
}
);
unicode = 171;
},
{
glyphname = guilsinglright;
layers = (
{
layerId = "058F6230-00F9-460F-9C2D-4FC5E161CC93";
shapes = (
{
closed = 1;
nodes = (
(662,642,l),
(378,1039,l),
(146,848,l),
(357,574,l),
(83,300,l),
(272,109,l),
(647,506,l)
);
}
);
width = 737;
},
{
layerId = "797B86FC-FBE9-46CE-B0B3-DC44F7F86021";
shapes = (
{
closed = 1;
nodes = (
(649,634,l),
(366,1030,l),
(157,855,l),
(371,574,l),
(93,293,l),
(262,118,l),
(635,514,l)
);
}
);
width = 727;
},
{
layerId = "C0B66080-0851-4CAD-97C1-7E69A4280B0F";
shapes = (
{
closed = 1;
nodes = (
(605,607,l),
(327,999,l),
(194,878,l),
(418,574,l),
(125,269,l),
(230,148,l),
(597,541,l)
);
}
);
width = 695;
},
{
layerId = "D16C0853-6864-4717-842E-4EFABF578FF1";
shapes = (
{
closed = 1;
nodes = (
(576,589,l),
(303,980,l),
(222,892,l),
(453,574,l),
(150,254,l),
(211,167,l),
(572,557,l)
);
}
);
width = 675;
}
);
unicode = 8250;
},
{
glyphname = guillemetright;
layers = (
{
layerId = "058F6230-00F9-460F-9C2D-4FC5E161CC93";
shapes = (
{
closed = 1;
nodes = (
(662,642,l),
(378,1039,l),
(146,848,l),
(357,574,l),
(83,300,l),
(272,109,l),
(647,506,l)
);
},
{
closed = 1;
nodes = (
(1199,642,l),
(914,1039,l),
(682,848,l),
(894,574,l),
(620,300,l),
(808,109,l),
(1183,506,l)
);
}
);
width = 1273;
},
{
layerId = "797B86FC-FBE9-46CE-B0B3-DC44F7F86021";
shapes = (
{
closed = 1;
nodes = (
(649,634,l),
(366,1030,l),
(157,855,l),
(371,574,l),
(93,293,l),
(262,118,l),
(635,514,l)
);
},
{
closed = 1;
nodes = (
(1172,634,l),
(889,1030,l),
(680,855,l),
(894,574,l),
(616,293,l),
(785,118,l),
(1158,514,l)
);
}
);
width = 1250;
},
{
layerId = "C0B66080-0851-4CAD-97C1-7E69A4280B0F";
shapes = (
{
closed = 1;
nodes = (
(605,607,l),
(327,999,l),
(194,878,l),
(418,574,l),
(125,269,l),
(230,148,l),
(597,541,l)
);
},
{
closed = 1;
nodes = (
(1083,607,l),
(805,999,l),
(672,878,l),
(895,574,l),
(603,269,l),
(708,148,l),
(1076,541,l)
);
}
);
width = 1173;
},
{
layerId = "D16C0853-6864-4717-842E-4EFABF578FF1";
shapes = (
{
closed = 1;
nodes = (
(576,589,l),
(303,980,l),
(222,892,l),
(453,574,l),
(150,254,l),
(211,167,l),
(572,557,l)
);
},
{
closed = 1;
nodes = (
(1028,589,l),
(752,980,l),
(673,892,l),
(903,574,l),
(601,254,l),
(660,167,l),
(1023,557,l)
);
}
);
width = 1124;
}
);
unicode = 187;
},
{
glyphname = germandbls;
layers = (
{
layerId = "058F6230-00F9-460F-9C2D-4FC5E161CC93";
shapes = (
{
closed = 1;
nodes = (
(1031,261,o),
(978,239,o),
(933,239,cs),
(881,239,o),
(807,269,o),
(727,321,c),
(700,306,l),
(616,23,l),
(720,-5,o),
(842,-20,o),
(934,-20,cs),
(1249,-20,o),
(1450,168,o),
(1450,418,cs),
(1450,694,o),
(1210,724,o),
(1210,875,cs),
(1210,1027,o),
(1458,1046,o),
(1458,1281,cs),
(1458,1517,o),
(1209,1622,o),
(926,1622,cs),
(502,1622,o),
(227,1377,o),
(190,1049,cs),
(71,0,l),
(527,0,l),
(650,1085,ls),
(677,1324,o),
(813,1363,o),
(870,1363,cs),
(932,1363,o),
(1009,1317,o),
(1009,1203,cs),
(1009,1007,o),
(776,1053,o),
(776,781,cs),
(776,497,o),
(1031,479,o),
(1031,330,cs)
);
}
);
width = 1504;
},
{
layerId = "797B86FC-FBE9-46CE-B0B3-DC44F7F86021";
shapes = (
{
closed = 1;
nodes = (
(1014,251,o),
(955,216,o),
(895,216,cs),
(841,216,o),
(760,244,o),
(681,292,c),
(656,278,l),
(580,26,l),
(681,-4,o),
(800,-20,o),
(888,-20,cs),
(1184,-20,o),
(1383,163,o),
(1383,401,cs),
(1383,673,o),
(1122,707,o),
(1122,862,cs),
(1122,1017,o),
(1386,1041,o),
(1386,1284,cs),
(1386,1508,o),
(1160,1622,o),
(891,1622,cs),
(499,1622,o),
(237,1380,o),
(201,1062,cs),
(80,0,l),
(480,0,l),
(605,1100,ls),
(631,1326,o),
(759,1386,o),
(840,1386,cs),
(915,1386,o),
(994,1334,o),
(994,1219,cs),
(994,1014,o),
(741,1048,o),
(741,781,cs),
(741,503,o),
(1014,483,o),
(1014,325,cs)
);
}
);
width = 1447;
},
{
layerId = "C0B66080-0851-4CAD-97C1-7E69A4280B0F";
shapes = (
{
closed = 1;
nodes = (
(957,218,o),
(880,141,o),
(768,141,cs),
(710,141,o),
(604,162,o),
(530,197,c),
(510,185,l),
(462,37,l),
(553,-2,o),
(661,-20,o),
(737,-20,cs),
(970,-20,o),
(1161,148,o),
(1161,346,cs),
(1161,604,o),
(831,650,o),
(831,818,cs),
(831,983,o),
(1149,1024,o),
(1149,1295,cs),
(1149,1479,o),
(997,1622,o),
(776,1622,cs),
(488,1622,o),
(269,1390,o),
(236,1106,cs),
(110,0,l),
(326,0,l),
(458,1150,ls),
(479,1332,o),
(582,1461,o),
(742,1461,cs),
(859,1461,o),
(944,1391,o),
(944,1271,cs),
(944,1038,o),
(626,1033,o),
(626,781,cs),
(626,523,o),
(957,497,o),
(957,309,cs)
);
}
);
width = 1258;
},
{
layerId = "D16C0853-6864-4717-842E-4EFABF578FF1";
shapes = (
{
closed = 1;
nodes = (
(922,208,o),
(833,94,o),
(688,94,cs),
(629,94,o),
(505,113,o),
(433,140,c),
(418,129,l),
(393,53,l),
(481,8,o),
(581,-20,o),
(666,-20,cs),
(843,-20,o),
(1022,139,o),
(1022,311,cs),
(1022,564,o),
(650,624,o),
(650,791,cs),
(650,953,o),
(1002,1019,o),
(1002,1292,cs),
(1002,1462,o),
(866,1622,o),
(685,1622,cs),
(472,1622,o),
(285,1396,o),
(255,1134,cs),
(126,0,l),
(232,0,l),
(368,1180,ls),
(386,1336,o),
(474,1508,o),
(681,1508,cs),
(824,1508,o),
(913,1427,o),
(913,1302,cs),
(913,1052,o),
(555,1008,o),
(555,776,cs),
(555,542,o),
(922,487,o),
(922,301,cs)
);
}
);
width = 1140;
}
);
leftKerningGroup = _f_Right;
unicode = 223;
},
{
glyphname = bullet;
layers = (
{
layerId = "058F6230-00F9-460F-9C2D-4FC5E161CC93";
shapes = (
{
closed = 1;
nodes = (
(203,390,o),
(311,277,o),
(457,277,cs),
(626,277,o),
(800,418,o),
(800,601,cs),
(800,753,o),
(690,869,o),
(540,869,cs),
(368,869,o),
(203,725,o),
(203,543,cs)
);
}
);
width = 992;
},
{
layerId = "797B86FC-FBE9-46CE-B0B3-DC44F7F86021";
shapes = (
{
closed = 1;
nodes = (
(203,406,o),
(303,301,o),
(438,301,cs),
(594,301,o),
(751,431,o),
(751,599,cs),
(751,738,o),
(650,845,o),
(512,845,cs),
(354,845,o),
(203,712,o),
(203,546,cs)
);
}
);
width = 944;
},
{
layerId = "C0B66080-0851-4CAD-97C1-7E69A4280B0F";
shapes = (
{
closed = 1;
nodes = (
(204,458,o),
(276,381,o),
(375,381,cs),
(487,381,o),
(590,475,o),
(590,591,cs),
(590,688,o),
(519,765,o),
(420,765,cs),
(307,765,o),
(204,670,o),
(204,555,cs)
);
}
);
width = 784;
},
{
layerId = "D16C0853-6864-4717-842E-4EFABF578FF1";
shapes = (
{
closed = 1;
nodes = (
(203,489,o),
(259,430,o),
(335,430,cs),
(420,430,o),
(489,503,o),
(489,586,cs),
(489,657,o),
(437,716,o),
(363,716,cs),
(277,716,o),
(203,643,o),
(203,560,cs)
);
}
);
width = 684;
}
);
unicode = 8226;
},
{
glyphname = exclamdown;
layers = (
{
layerId = "058F6230-00F9-460F-9C2D-4FC5E161CC93";
shapes = (
{
closed = 1;
nodes = (
(253,425,l),
(62,-405,l),
(556,-405,l),
(552,425,l)
);
},
{
closed = 1;
nodes = (
(551,576,o),
(698,691,o),
(696,858,cs),
(694,987,o),
(598,1080,o),
(475,1080,cs),
(334,1080,o),
(185,966,o),
(185,800,cs),
(185,670,o),
(281,576,o),
(405,576,cs)
);
}
);
width = 812;
},
{
layerId = "797B86FC-FBE9-46CE-B0B3-DC44F7F86021";
shapes = (
{
closed = 1;
nodes = (
(255,456,l),
(74,-405,l),
(507,-405,l),
(521,456,l)
);
},
{
closed = 1;
nodes = (
(526,624,o),
(657,728,o),
(657,877,cs),
(657,994,o),
(570,1080,o),
(457,1080,cs),
(329,1080,o),
(195,976,o),
(195,827,cs),
(195,710,o),
(282,624,o),
(395,624,cs)
);
}
);
width = 778;
},
{
layerId = "C0B66080-0851-4CAD-97C1-7E69A4280B0F";
shapes = (
{
closed = 1;
nodes = (
(260,559,l),
(112,-405,l),
(346,-405,l),
(418,559,l)
);
},
{
closed = 1;
nodes = (
(445,783,o),
(523,850,o),
(529,939,cs),
(534,1018,o),
(476,1080,o),
(397,1080,cs),
(311,1080,o),
(229,1009,o),
(229,917,cs),
(229,841,o),
(286,783,o),
(361,783,cs)
);
}
);
width = 666;
},
{
layerId = "D16C0853-6864-4717-842E-4EFABF578FF1";
shapes = (
{
closed = 1;
nodes = (
(264,637,l),
(134,-405,l),
(246,-405,l),
(355,637,l)
);
},
{
closed = 1;
nodes = (
(385,900,o),
(427,931,o),
(441,980,c),
(454,1038,o),
(414,1080,o),
(360,1080,cs),
(306,1080,o),
(258,1040,o),
(258,982,cs),
(258,934,o),
(295,900,o),
(341,900,cs)
);
}
);
width = 597;
}
);
unicode = 161;
},
{
glyphname = questiondown;
layers = (
{
layerId = "058F6230-00F9-460F-9C2D-4FC5E161CC93";
shapes = (
{
closed = 1;
nodes = (
(484,-167,o),
(439,-135,o),
(439,-83,cs),
(439,55,o),
(732,111,o),
(732,372,cs),
(732,389,o),
(731,409,o),
(730,425,c),
(431,425,l),
(426,390,ls),
(392,163,o),
(-35,161,o),
(-35,-142,cs),
(-35,-380,o),
(227,-425,o),
(399,-425,cs),
(541,-425,o),
(726,-399,o),
(913,-304,c),
(869,-84,l),
(851,-73,l),
(760,-126,o),
(625,-167,o),
(548,-167,cs)
);
},
{
closed = 1;
nodes = (
(716,576,o),
(864,691,o),
(863,858,cs),
(861,987,o),
(765,1080,o),
(642,1080,cs),
(501,1080,o),
(351,966,o),
(351,800,cs),
(351,670,o),
(446,576,o),
(573,576,cs)
);
}
);
width = 1020;
},
{
layerId = "797B86FC-FBE9-46CE-B0B3-DC44F7F86021";
shapes = (
{
closed = 1;
nodes = (
(443,-189,o),
(391,-152,o),
(391,-92,cs),
(391,60,o),
(708,125,o),
(708,403,cs),
(708,420,o),
(707,440,o),
(706,456,c),
(440,456,l),
(436,424,ls),
(408,171,o),
(-26,157,o),
(-26,-147,cs),
(-26,-367,o),
(207,-425,o),
(388,-425,cs),
(525,-425,o),
(701,-398,o),
(881,-307,c),
(841,-105,l),
(824,-95,l),
(726,-153,o),
(591,-189,o),
(517,-189,cs)
);
},
{
closed = 1;
nodes = (
(700,624,o),
(832,728,o),
(832,877,cs),
(832,994,o),
(745,1080,o),
(632,1080,cs),
(504,1080,o),
(370,976,o),
(370,827,cs),
(370,710,o),
(456,624,o),
(571,624,cs)
);
}
);
width = 1006;
},
{
layerId = "C0B66080-0851-4CAD-97C1-7E69A4280B0F";
shapes = (
{
closed = 1;
nodes = (
(308,-262,o),
(234,-209,o),
(234,-123,cs),
(234,77,o),
(628,171,o),
(628,505,cs),
(628,522,o),
(627,543,o),
(626,559,c),
(469,559,l),
(468,537,l),
(460,197,o),
(3,144,o),
(3,-164,cs),
(3,-324,o),
(141,-425,o),
(352,-425,cs),
(473,-425,o),
(620,-396,o),
(776,-316,c),
(750,-175,l),
(734,-167,l),
(613,-241,o),
(479,-262,o),
(414,-262,cs)
);
},
{
closed = 1;
nodes = (
(647,783,o),
(726,850,o),
(731,939,cs),
(736,1018,o),
(678,1080,o),
(600,1080,cs),
(513,1080,o),
(432,1009,o),
(432,917,cs),
(432,841,o),
(488,783,o),
(564,783,cs)
);
}
);
width = 961;
},
{
layerId = "D16C0853-6864-4717-842E-4EFABF578FF1";
shapes = (
{
closed = 1;
nodes = (
(226,-307,o),
(145,-243,o),
(145,-142,cs),
(145,86,o),
(583,214,o),
(583,581,cs),
(583,598,o),
(582,619,o),
(581,637,c),
(491,637,l),
(491,612,ls),
(491,223,o),
(26,136,o),
(26,-160,cs),
(26,-291,o),
(122,-425,o),
(342,-425,cs),
(440,-425,o),
(572,-398,o),
(714,-325,c),
(695,-238,l),
(680,-232,l),
(552,-300,o),
(411,-307,o),
(357,-307,cs)
);
},
{
closed = 1;
nodes = (
(606,900,o),
(650,931,o),
(662,980,c),
(675,1038,o),
(635,1080,o),
(580,1080,cs),
(527,1080,o),
(478,1040,o),
(478,982,cs),
(478,934,o),
(516,900,o),
(561,900,cs)
);
}
);
width = 932;
}
);
unicode = 191;
},
{
glyphname = cent;
layers = (
{
layerId = "058F6230-00F9-460F-9C2D-4FC5E161CC93";
shapes = (
{
closed = 1;
nodes = (
(515,-163,l),
(803,-163,l),
(844,199,l),
(902,222,o),
(968,256,o),
(1047,318,c),
(1068,494,l),
(985,465,o),
(948,457,o),
(890,457,cs),
(736,457,o),
(640,519,o),
(640,687,cs),
(640,882,o),
(735,1013,o),
(888,1013,cs),
(965,1013,o),
(1032,980,o),
(1068,959,c),
(1085,969,l),
(1174,1240,l),
(1094,1261,o),
(1008,1271,o),
(978,1271,cs),
(975,1271,o),
(970,1271,o),
(967,1271,c),
(1005,1606,l),
(717,1606,l),
(676,1249,l),
(383,1163,o),
(164,917,o),
(164,605,cs),
(164,375,o),
(297,206,o),
(554,177,c)
);
}
);
width = 1263;
},
{
layerId = "797B86FC-FBE9-46CE-B0B3-DC44F7F86021";
shapes = (
{
closed = 1;
nodes = (
(515,-163,l),
(770,-163,l),
(811,194,l),
(881,214,o),
(955,250,o),
(1033,310,c),
(1052,472,l),
(966,440,o),
(917,430,o),
(857,430,cs),
(697,430,o),
(590,503,o),
(590,683,cs),
(590,897,o),
(707,1036,o),
(870,1036,cs),
(947,1036,o),
(1018,1004,o),
(1056,980,c),
(1075,990,l),
(1157,1236,l),
(1082,1259,o),
(993,1271,o),
(953,1271,cs),
(947,1271,o),
(940,1271,o),
(934,1271,c),
(972,1606,l),
(717,1606,l),
(676,1249,l),
(389,1165,o),
(172,920,o),
(172,609,cs),
(172,378,o),
(305,207,o),
(554,177,c)
);
}
);
width = 1251;
},
{
layerId = "C0B66080-0851-4CAD-97C1-7E69A4280B0F";
shapes = (
{
closed = 1;
nodes = (
(515,-163,l),
(662,-163,l),
(701,178,l),
(811,187,o),
(911,231,o),
(986,283,c),
(999,398,l),
(904,357,o),
(816,342,o),
(747,342,cs),
(567,342,o),
(426,450,o),
(426,669,cs),
(426,946,o),
(616,1111,o),
(810,1111,cs),
(888,1111,o),
(971,1083,o),
(1018,1049,c),
(1041,1059,l),
(1100,1224,l),
(1044,1254,o),
(944,1272,o),
(870,1272,cs),
(855,1272,o),
(840,1271,o),
(826,1270,c),
(864,1607,l),
(717,1607,l),
(676,1249,l),
(409,1172,o),
(197,931,o),
(197,623,cs),
(197,387,o),
(332,211,o),
(554,178,c)
);
}
);
width = 1212;
},
{
layerId = "D16C0853-6864-4717-842E-4EFABF578FF1";
shapes = (
{
closed = 1;
nodes = (
(513,-163,l),
(594,-163,l),
(632,170,l),
(769,170,o),
(886,222,o),
(956,264,c),
(965,352,l),
(869,308,o),
(755,287,o),
(675,287,cs),
(487,287,o),
(313,409,o),
(313,657,cs),
(313,975,o),
(563,1158,o),
(777,1158,cs),
(857,1158,o),
(946,1134,o),
(1000,1097,c),
(1025,1107,l),
(1067,1213,l),
(1027,1248,o),
(920,1272,o),
(823,1272,cs),
(801,1272,o),
(779,1271,o),
(757,1268,c),
(797,1607,l),
(716,1607,l),
(675,1252,l),
(419,1182,o),
(201,945,o),
(201,640,cs),
(201,397,o),
(345,215,o),
(553,178,c)
);
}
);
width = 1188;
}
);
unicode = 162;
},
{
glyphname = yen;
layers = (
{
layerId = "058F6230-00F9-460F-9C2D-4FC5E161CC93";
shapes = (
{
closed = 1;
nodes = (
(284,616,l),
(1472,616,l),
(1500,853,l),
(1263,853,l),
(1695,1465,l),
(1288,1465,l),
(1092,1124,l),
(982,915,l),
(962,915,l),
(900,1126,l),
(781,1465,l),
(251,1465,l),
(540,853,l),
(311,853,l)
);
},
{
closed = 1;
nodes = (
(242,243,l),
(604,243,l),
(577,0,l),
(1039,0,l),
(1067,243,l),
(1430,243,l),
(1457,480,l),
(268,480,l)
);
}
);
width = 1729;
},
{
layerId = "797B86FC-FBE9-46CE-B0B3-DC44F7F86021";
shapes = (
{
closed = 1;
nodes = (
(286,621,l),
(1426,621,l),
(1451,836,l),
(1202,836,l),
(1648,1465,l),
(1287,1465,l),
(1051,1078,l),
(947,883,l),
(927,883,l),
(867,1081,l),
(722,1465,l),
(257,1465,l),
(554,836,l),
(311,836,l)
);
},
{
closed = 1;
nodes = (
(246,266,l),
(613,266,l),
(583,0,l),
(989,0,l),
(1019,266,l),
(1386,266,l),
(1410,481,l),
(270,481,l)
);
}
);
width = 1691;
},
{
layerId = "C0B66080-0851-4CAD-97C1-7E69A4280B0F";
shapes = (
{
closed = 1;
nodes = (
(293,638,l),
(1274,638,l),
(1290,781,l),
(1001,781,l),
(1494,1465,l),
(1284,1465,l),
(915,926,l),
(831,779,l),
(811,779,l),
(759,933,l),
(528,1465,l),
(276,1465,l),
(599,781,l),
(310,781,l)
);
},
{
closed = 1;
nodes = (
(260,341,l),
(642,341,l),
(603,0,l),
(823,0,l),
(861,341,l),
(1240,341,l),
(1256,484,l),
(276,484,l)
);
}
);
width = 1566;
},
{
layerId = "D16C0853-6864-4717-842E-4EFABF578FF1";
shapes = (
{
closed = 1;
nodes = (
(296,649,l),
(1178,649,l),
(1189,748,l),
(880,748,l),
(1395,1465,l),
(1282,1465,l),
(801,810,l),
(756,736,l),
(736,736,l),
(702,824,l),
(401,1465,l),
(279,1465,l),
(619,748,l),
(307,748,l)
);
},
{
closed = 1;
nodes = (
(267,387,l),
(659,387,l),
(615,0,l),
(720,0,l),
(764,387,l),
(1149,387,l),
(1160,486,l),
(278,486,l)
);
}
);
width = 1488;
}
);
unicode = 165;
},
{
glyphname = plusminus;
layers = (
{
layerId = "058F6230-00F9-460F-9C2D-4FC5E161CC93";
shapes = (
{
closed = 1;
nodes = (
(949,1350,l),
(649,1350,l),
(614,1047,l),
(259,1047,l),
(227,759,l),
(581,759,l),
(547,456,l),
(847,456,l),
(882,759,l),
(1237,759,l),
(1269,1047,l),
(915,1047,l)
);
},
{
closed = 1;
nodes = (
(173,288,l),
(140,0,l),
(1150,0,l),
(1183,288,l)
);
}
);
width = 1410;
},
{
layerId = "797B86FC-FBE9-46CE-B0B3-DC44F7F86021";
shapes = (
{
closed = 1;
nodes = (
(930,1350,l),
(665,1350,l),
(627,1017,l),
(256,1017,l),
(227,762,l),
(598,762,l),
(560,429,l),
(825,429,l),
(863,762,l),
(1234,762,l),
(1263,1017,l),
(892,1017,l)
);
},
{
closed = 1;
nodes = (
(169,255,l),
(140,0,l),
(1147,0,l),
(1176,255,l)
);
}
);
width = 1407;
},
{
layerId = "C0B66080-0851-4CAD-97C1-7E69A4280B0F";
shapes = (
{
closed = 1;
nodes = (
(867,1350,l),
(719,1350,l),
(669,918,l),
(245,918,l),
(228,771,l),
(653,771,l),
(604,339,l),
(752,339,l),
(801,771,l),
(1225,771,l),
(1242,918,l),
(817,918,l)
);
},
{
closed = 1;
nodes = (
(157,147,l),
(140,0,l),
(1138,0,l),
(1154,147,l)
);
}
);
width = 1398;
},
{
layerId = "D16C0853-6864-4717-842E-4EFABF578FF1";
shapes = (
{
closed = 1;
nodes = (
(826,1350,l),
(751,1350,l),
(695,856,l),
(237,856,l),
(227,776,l),
(685,776,l),
(631,284,l),
(706,284,l),
(760,776,l),
(1219,776,l),
(1228,856,l),
(770,856,l)
);
},
{
closed = 1;
nodes = (
(149,80,l),
(139,0,l),
(1131,0,l),
(1140,80,l)
);
}
);
width = 1392;
}
);
unicode = 177;
},
{
glyphname = brokenbar;
layers = (
{
layerId = "058F6230-00F9-460F-9C2D-4FC5E161CC93";
shapes = (
{
closed = 1;
nodes = (
(545,702,l),
(648,1602,l),
(335,1602,l),
(232,702,l)
);
},
{
closed = 1;
nodes = (
(194,364,l),
(91,-537,l),
(404,-537,l),
(507,364,l)
);
}
);
width = 737;
},
{
layerId = "797B86FC-FBE9-46CE-B0B3-DC44F7F86021";
shapes = (
{
closed = 1;
nodes = (
(515,702,l),
(618,1602,l),
(343,1602,l),
(240,702,l)
);
},
{
closed = 1;
nodes = (
(202,364,l),
(99,-537,l),
(374,-537,l),
(477,364,l)
);
}
);
width = 715;
},
{
layerId = "C0B66080-0851-4CAD-97C1-7E69A4280B0F";
shapes = (
{
closed = 1;
nodes = (
(416,702,l),
(519,1602,l),
(370,1602,l),
(267,702,l)
);
},
{
closed = 1;
nodes = (
(229,364,l),
(126,-536,l),
(275,-536,l),
(378,364,l)
);
}
);
width = 643;
},
{
layerId = "D16C0853-6864-4717-842E-4EFABF578FF1";
shapes = (
{
closed = 1;
nodes = (
(353,702,l),
(456,1602,l),
(385,1602,l),
(282,702,l)
);
},
{
closed = 1;
nodes = (
(244,364,l),
(141,-536,l),
(212,-536,l),
(315,364,l)
);
}
);
width = 599;
}
);
unicode = 166;
},
{
glyphname = sterling;
layers = (
{
layerId = "058F6230-00F9-460F-9C2D-4FC5E161CC93";
shapes = (
{
closed = 1;
nodes = (
(243,850,l),
(187,613,l),
(367,613,l),
(357,516,ls),
(341,378,o),
(292,220,o),
(119,76,c),
(110,0,l),
(1189,0,l),
(1261,263,l),
(867,263,l),
(664,257,l),
(666,277,l),
(737,355,o),
(811,444,o),
(826,576,cs),
(830,613,l),
(1163,613,l),
(1230,850,l),
(856,850,l),
(869,957,ls),
(890,1138,o),
(973,1222,o),
(1106,1222,cs),
(1154,1222,o),
(1214,1204,o),
(1269,1168,c),
(1292,1178,l),
(1389,1457,l),
(1296,1478,o),
(1178,1485,o),
(1115,1485,cs),
(739,1485,o),
(443,1271,o),
(403,920,cs),
(395,850,l)
);
}
);
width = 1491;
},
{
layerId = "797B86FC-FBE9-46CE-B0B3-DC44F7F86021";
shapes = (
{
closed = 1;
nodes = (
(248,838,l),
(193,623,l),
(377,623,l),
(362,488,l),
(347,354,o),
(300,209,o),
(129,76,c),
(120,0,l),
(1157,0,l),
(1226,239,l),
(817,239,l),
(616,233,l),
(618,253,l),
(694,333,o),
(761,430,o),
(776,560,cs),
(783,623,l),
(1131,623,l),
(1195,838,l),
(807,838,l),
(822,968,ls),
(844,1156,o),
(933,1246,o),
(1073,1246,cs),
(1127,1246,o),
(1193,1227,o),
(1247,1192,c),
(1270,1202,l),
(1357,1451,l),
(1270,1475,o),
(1158,1485,o),
(1090,1485,cs),
(738,1485,o),
(452,1280,o),
(413,936,c),
(402,838,l)
);
}
);
width = 1459;
},
{
layerId = "C0B66080-0851-4CAD-97C1-7E69A4280B0F";
shapes = (
{
closed = 1;
nodes = (
(263,799,l),
(212,655,l),
(409,655,l),
(379,396,ls),
(366,274,o),
(327,172,o),
(162,76,c),
(153,0,l),
(1053,0,l),
(1111,161,l),
(651,161,l),
(457,153,l),
(459,173,l),
(551,260,o),
(597,385,o),
(611,506,cs),
(628,655,l),
(1027,655,l),
(1079,799,l),
(644,799,l),
(668,1005,ls),
(692,1216,o),
(800,1324,o),
(965,1324,cs),
(1037,1324,o),
(1125,1302,o),
(1173,1270,c),
(1196,1280,l),
(1251,1432,l),
(1184,1466,o),
(1091,1485,o),
(1009,1485,cs),
(736,1485,o),
(483,1309,o),
(447,990,cs),
(425,799,l)
);
}
);
width = 1352;
},
{
layerId = "D16C0853-6864-4717-842E-4EFABF578FF1";
shapes = (
{
closed = 1;
nodes = (
(271,774,l),
(223,675,l),
(428,675,l),
(381,264,l),
(371,188,o),
(311,130,o),
(182,76,c),
(173,0,l),
(987,0,l),
(1038,112,l),
(478,112,l),
(368,104,l),
(369,124,l),
(453,206,o),
(497,356,o),
(509,473,c),
(533,675,l),
(961,675,l),
(1006,774,l),
(544,774,l),
(573,1028,ls),
(598,1253,o),
(714,1373,o),
(900,1373,cs),
(978,1373,o),
(1086,1356,o),
(1130,1332,c),
(1153,1342,l),
(1181,1412,l),
(1121,1456,o),
(1049,1485,o),
(952,1485,cs),
(764,1485,o),
(497,1348,o),
(474,1078,c),
(439,774,l)
);
}
);
width = 1285;
}
);
unicode = 163;
},
{
glyphname = currency;
layers = (
{
layerId = "058F6230-00F9-460F-9C2D-4FC5E161CC93";
shapes = (
{
closed = 1;
nodes = (
(359,640,o),
(374,568,o),
(398,511,c),
(191,326,l),
(371,121,l),
(580,308,l),
(650,267,o),
(731,245,o),
(814,245,cs),
(902,245,o),
(994,268,o),
(1078,311,c),
(1245,121,l),
(1473,326,l),
(1306,513,l),
(1365,602,o),
(1404,699,o),
(1404,814,cs),
(1404,885,o),
(1391,958,o),
(1367,1014,c),
(1572,1199,l),
(1392,1404,l),
(1184,1218,l),
(1114,1258,o),
(1033,1281,o),
(950,1281,cs),
(860,1281,o),
(769,1257,o),
(686,1214,c),
(518,1404,l),
(290,1199,l),
(457,1011,l),
(395,922,o),
(359,824,o),
(359,711,cs)
);
},
{
closed = 1;
nodes = (
(659,893,o),
(793,993,o),
(908,993,cs),
(1008,993,o),
(1104,912,o),
(1104,788,cs),
(1104,633,o),
(971,533,o),
(856,533,cs),
(756,533,o),
(659,614,o),
(659,739,cs)
);
}
);
width = 1709;
},
{
layerId = "797B86FC-FBE9-46CE-B0B3-DC44F7F86021";
shapes = (
{
closed = 1;
nodes = (
(345,637,o),
(361,562,o),
(388,504,c),
(176,314,l),
(336,133,l),
(549,324,l),
(619,280,o),
(702,256,o),
(790,256,cs),
(882,256,o),
(976,281,o),
(1061,328,c),
(1233,133,l),
(1435,314,l),
(1263,507,l),
(1327,596,o),
(1368,696,o),
(1368,814,cs),
(1368,888,o),
(1353,963,o),
(1326,1021,c),
(1537,1211,l),
(1377,1392,l),
(1164,1201,l),
(1094,1245,o),
(1011,1270,o),
(923,1270,cs),
(830,1270,o),
(736,1244,o),
(652,1197,c),
(480,1392,l),
(278,1211,l),
(449,1018,l),
(384,928,o),
(345,828,o),
(345,711,cs)
);
},
{
closed = 1;
nodes = (
(612,903,o),
(752,1015,o),
(885,1015,cs),
(1000,1015,o),
(1101,925,o),
(1101,790,cs),
(1101,623,o),
(961,511,o),
(828,511,cs),
(713,511,o),
(612,601,o),
(612,736,cs)
);
}
);
width = 1659;
},
{
layerId = "C0B66080-0851-4CAD-97C1-7E69A4280B0F";
shapes = (
{
closed = 1;
nodes = (
(298,626,o),
(319,543,o),
(356,482,c),
(127,276,l),
(220,172,l),
(448,377,l),
(517,322,o),
(607,291,o),
(710,291,cs),
(815,291,o),
(918,324,o),
(1006,383,c),
(1193,172,l),
(1309,276,l),
(1122,486,l),
(1200,577,o),
(1249,685,o),
(1249,813,cs),
(1249,897,o),
(1227,980,o),
(1190,1043,c),
(1420,1250,l),
(1329,1353,l),
(1097,1146,l),
(1028,1202,o),
(938,1234,o),
(835,1234,cs),
(730,1234,o),
(628,1200,o),
(541,1142,c),
(354,1353,l),
(237,1250,l),
(424,1040,l),
(347,949,o),
(298,841,o),
(298,711,cs)
);
},
{
closed = 1;
nodes = (
(456,935,o),
(618,1087,o),
(810,1087,cs),
(973,1087,o),
(1090,967,o),
(1090,797,cs),
(1090,589,o),
(927,439,o),
(735,439,cs),
(572,439,o),
(456,557,o),
(456,727,cs)
);
}
);
width = 1493;
},
{
layerId = "D16C0853-6864-4717-842E-4EFABF578FF1";
shapes = (
{
closed = 1;
nodes = (
(268,619,o),
(292,532,o),
(335,468,c),
(95,252,l),
(147,197,l),
(384,410,l),
(453,349,o),
(546,313,o),
(658,313,cs),
(773,313,o),
(881,351,o),
(971,416,c),
(1167,197,l),
(1231,252,l),
(1034,473,l),
(1121,566,o),
(1174,677,o),
(1174,812,cs),
(1174,903,o),
(1149,991,o),
(1104,1056,c),
(1346,1274,l),
(1299,1329,l),
(1055,1113,l),
(986,1175,o),
(892,1212,o),
(781,1212,cs),
(666,1212,o),
(560,1173,o),
(472,1109,c),
(275,1329,l),
(210,1274,l),
(407,1053,l),
(323,961,o),
(268,848,o),
(268,710,cs)
);
},
{
closed = 1;
nodes = (
(359,954,o),
(534,1131,o),
(762,1131,cs),
(956,1131,o),
(1084,992,o),
(1084,802,cs),
(1084,568,o),
(905,394,o),
(677,394,cs),
(483,394,o),
(359,530,o),
(359,721,cs)
);
}
);
width = 1390;
}
);
unicode = 164;
},
{
glyphname = periodcentered;
layers = (
{
layerId = "058F6230-00F9-460F-9C2D-4FC5E161CC93";
shapes = (
{
closed = 1;
nodes = (
(473,303,o),
(623,417,o),
(623,583,cs),
(623,713,o),
(527,807,o),
(402,807,cs),
(258,807,o),
(112,693,o),
(112,527,cs),
(112,398,o),
(208,303,o),
(333,303,cs)
);
}
);
width = 715;
},
{
layerId = "797B86FC-FBE9-46CE-B0B3-DC44F7F86021";
shapes = (
{
closed = 1;
nodes = (
(449,327,o),
(583,431,o),
(583,580,cs),
(583,697,o),
(496,783,o),
(383,783,cs),
(252,783,o),
(121,679,o),
(121,530,cs),
(121,413,o),
(208,327,o),
(321,327,cs)
);
}
);
width = 694;
},
{
layerId = "C0B66080-0851-4CAD-97C1-7E69A4280B0F";
shapes = (
{
closed = 1;
nodes = (
(369,406,o),
(451,477,o),
(451,569,cs),
(451,645,o),
(394,703,o),
(319,703,cs),
(232,703,o),
(151,632,o),
(151,539,cs),
(151,464,o),
(207,406,o),
(283,406,cs)
);
}
);
width = 626;
},
{
layerId = "D16C0853-6864-4717-842E-4EFABF578FF1";
shapes = (
{
closed = 1;
nodes = (
(298,463,o),
(348,505,o),
(348,563,cs),
(348,610,o),
(311,643,o),
(265,643,cs),
(212,643,o),
(163,603,o),
(163,545,cs),
(163,497,o),
(199,463,o),
(246,463,cs)
);
}
);
width = 583;
}
);
unicode = 183;
},
{
glyphname = s;
layers = (
{
layerId = "058F6230-00F9-460F-9C2D-4FC5E161CC93";
shapes = (
{
closed = 1;
nodes = (
(9,54,l),
(110,2,o),
(260,-20,o),
(395,-20,cs),
(800,-20,o),
(950,189,o),
(950,362,cs),
(950,652,o),
(531,654,o),
(531,760,cs),
(531,783,o),
(552,821,o),
(651,821,cs),
(722,821,o),
(796,801,o),
(880,757,c),
(899,767,l),
(989,1042,l),
(922,1064,o),
(818,1080,o),
(699,1080,cs),
(317,1080,o),
(112,918,o),
(112,705,cs),
(112,399,o),
(533,390,o),
(533,290,cs),
(533,264,o),
(502,239,o),
(421,239,cs),
(324,239,o),
(220,277,o),
(118,339,c),
(99,330,l)
);
}
);
width = 1028;
},
{
layerId = "797B86FC-FBE9-46CE-B0B3-DC44F7F86021";
shapes = (
{
closed = 1;
nodes = (
(21,56,l),
(123,4,o),
(266,-20,o),
(395,-20,cs),
(767,-20,o),
(926,178,o),
(926,353,cs),
(926,643,o),
(492,640,o),
(492,765,cs),
(492,800,o),
(526,844,o),
(630,844,cs),
(702,844,o),
(782,823,o),
(863,780,c),
(883,790,l),
(965,1038,l),
(894,1064,o),
(789,1080,o),
(678,1080,cs),
(324,1080,o),
(123,919,o),
(123,713,cs),
(123,411,o),
(558,409,o),
(558,288,cs),
(558,250,o),
(516,216,o),
(424,216,cs),
(329,216,o),
(222,252,o),
(122,314,c),
(103,304,l)
);
}
);
width = 1015;
},
{
layerId = "C0B66080-0851-4CAD-97C1-7E69A4280B0F";
shapes = (
{
closed = 1;
nodes = (
(60,61,l),
(165,10,o),
(285,-20,o),
(394,-20,cs),
(657,-20,o),
(846,143,o),
(846,324,cs),
(846,614,o),
(364,593,o),
(364,782,cs),
(364,857,o),
(440,919,o),
(561,919,cs),
(635,919,o),
(736,897,o),
(807,855,c),
(829,867,l),
(886,1026,l),
(800,1063,o),
(694,1080,o),
(608,1080,cs),
(346,1080,o),
(160,923,o),
(160,741,cs),
(160,450,o),
(642,472,o),
(642,283,cs),
(642,204,o),
(561,141,o),
(435,141,cs),
(346,141,o),
(230,171,o),
(135,230,c),
(116,219,l)
);
}
);
width = 973;
},
{
layerId = "D16C0853-6864-4717-842E-4EFABF578FF1";
shapes = (
{
closed = 1;
nodes = (
(85,67,l),
(192,14,o),
(296,-20,o),
(394,-20,cs),
(589,-20,o),
(797,121,o),
(797,306,cs),
(797,596,o),
(285,565,o),
(285,793,cs),
(285,893,o),
(386,966,o),
(519,966,cs),
(592,966,o),
(711,945,o),
(776,906,c),
(797,918,l),
(835,1014,l),
(740,1061,o),
(636,1080,o),
(561,1080,cs),
(362,1080,o),
(176,938,o),
(176,764,cs),
(176,476,o),
(694,521,o),
(694,282,cs),
(694,175,o),
(590,94,o),
(438,94,cs),
(358,94,o),
(231,114,o),
(139,170,c),
(121,160,l)
);
}
);
width = 947;
}
);
unicode = 115;
},
{
glyphname = quotedblleft;
layers = (
{
layerId = "058F6230-00F9-460F-9C2D-4FC5E161CC93";
shapes = (
{
closed = 1;
nodes = (
(631,1633,l),
(262,1343,o),
(177,1095,o),
(177,938,cs),
(177,771,o),
(285,690,o),
(399,690,cs),
(534,690,o),
(688,796,o),
(688,972,cs),
(688,999,o),
(686,1029,o),
(681,1053,c),
(616,1069,o),
(546,1111,o),
(509,1159,c),
(556,1296,o),
(645,1413,o),
(772,1542,c)
);
},
{
closed = 1;
nodes = (
(1308,1633,l),
(939,1343,o),
(854,1095,o),
(854,938,cs),
(854,771,o),
(962,690,o),
(1077,690,cs),
(1211,690,o),
(1365,796,o),
(1365,972,cs),
(1365,999,o),
(1363,1029,o),
(1358,1053,c),
(1293,1069,o),
(1223,1111,o),
(1186,1159,c),
(1233,1296,o),
(1322,1413,o),
(1449,1542,c)
);
}
);
width = 1451;
},
{
layerId = "797B86FC-FBE9-46CE-B0B3-DC44F7F86021";
shapes = (
{
closed = 1;
nodes = (
(608,1632,l),
(271,1368,o),
(184,1136,o),
(184,985,cs),
(184,830,o),
(283,757,o),
(387,757,cs),
(514,757,o),
(648,859,o),
(648,1012,cs),
(648,1037,o),
(646,1065,o),
(641,1086,c),
(580,1101,o),
(513,1141,o),
(478,1185,c),
(521,1311,o),
(610,1430,o),
(731,1551,c)
);
},
{
closed = 1;
nodes = (
(1231,1632,l),
(894,1368,o),
(807,1136,o),
(807,985,cs),
(807,830,o),
(906,757,o),
(1010,757,cs),
(1137,757,o),
(1271,859,o),
(1271,1012,cs),
(1271,1037,o),
(1269,1065,o),
(1264,1086,c),
(1203,1101,o),
(1136,1141,o),
(1101,1185,c),
(1144,1311,o),
(1233,1430,o),
(1354,1551,c)
);
}
);
width = 1357;
},
{
layerId = "C0B66080-0851-4CAD-97C1-7E69A4280B0F";
shapes = (
{
closed = 1;
nodes = (
(531,1628,l),
(300,1451,o),
(208,1272,o),
(208,1141,cs),
(208,1024,o),
(277,977,o),
(346,977,cs),
(448,977,o),
(515,1068,o),
(515,1145,cs),
(515,1161,o),
(513,1183,o),
(508,1196,c),
(462,1206,o),
(405,1241,o),
(377,1270,c),
(406,1361,o),
(495,1485,o),
(595,1582,c)
);
},
{
closed = 1;
nodes = (
(976,1628,l),
(745,1451,o),
(653,1272,o),
(653,1141,cs),
(653,1024,o),
(722,977,o),
(790,977,cs),
(892,977,o),
(960,1068,o),
(960,1145,cs),
(960,1161,o),
(958,1183,o),
(953,1196,c),
(906,1206,o),
(849,1241,o),
(821,1270,c),
(851,1361,o),
(939,1485,o),
(1039,1582,c)
);
}
);
width = 1046;
},
{
layerId = "D16C0853-6864-4717-842E-4EFABF578FF1";
shapes = (
{
closed = 1;
nodes = (
(473,1623,l),
(315,1503,o),
(222,1363,o),
(222,1248,cs),
(222,1158,o),
(271,1128,o),
(316,1128,cs),
(399,1128,o),
(424,1210,o),
(424,1239,cs),
(424,1248,o),
(422,1267,o),
(417,1273,c),
(381,1281,o),
(332,1311,o),
(308,1330,c),
(329,1397,o),
(415,1519,o),
(499,1599,c)
);
},
{
closed = 1;
nodes = (
(800,1623,l),
(642,1503,o),
(549,1363,o),
(549,1248,cs),
(549,1158,o),
(597,1128,o),
(643,1128,cs),
(726,1128,o),
(750,1210,o),
(750,1239,cs),
(750,1248,o),
(748,1267,o),
(743,1273,c),
(707,1281,o),
(658,1311,o),
(635,1330,c),
(656,1397,o),
(741,1519,o),
(826,1599,c)
);
}
);
width = 834;
}
);
unicode = 8220;
},
{
glyphname = ampersand;
layers = (
{
layerId = "058F6230-00F9-460F-9C2D-4FC5E161CC93";
shapes = (
{
closed = 1;
nodes = (
(1272,1374,o),
(1127,1485,o),
(880,1485,cs),
(570,1485,o),
(316,1319,o),
(316,1054,cs),
(316,946,o),
(360,840,o),
(441,750,c),
(267,658,o),
(91,528,o),
(91,311,cs),
(91,114,o),
(254,-20,o),
(575,-20,cs),
(789,-20,o),
(925,38,o),
(1047,141,c),
(1115,88,o),
(1201,22,o),
(1276,-30,c),
(1520,291,l),
(1443,336,o),
(1378,380,o),
(1297,437,c),
(1386,555,o),
(1445,664,o),
(1498,786,c),
(1184,786,l),
(1151,675,o),
(1155,682,o),
(1097,586,c),
(1031,634,o),
(975,686,o),
(920,741,c),
(1053,817,o),
(1272,983,o),
(1272,1196,cs)
);
},
{
closed = 1;
nodes = (
(822,255,o),
(752,242,o),
(698,242,cs),
(582,242,o),
(521,309,o),
(521,394,cs),
(521,469,o),
(568,528,o),
(607,552,c),
(690,455,o),
(779,378,o),
(869,301,c)
);
},
{
closed = 1;
nodes = (
(690,1169,o),
(746,1223,o),
(825,1223,cs),
(889,1223,o),
(928,1185,o),
(928,1128,cs),
(928,1043,o),
(844,972,o),
(771,923,c),
(728,987,o),
(690,1026,o),
(690,1088,cs)
);
}
);
width = 1596;
},
{
layerId = "797B86FC-FBE9-46CE-B0B3-DC44F7F86021";
shapes = (
{
closed = 1;
nodes = (
(1234,1375,o),
(1093,1485,o),
(861,1485,cs),
(567,1485,o),
(324,1317,o),
(324,1066,cs),
(324,955,o),
(373,848,o),
(453,756,c),
(273,659,o),
(97,528,o),
(97,315,cs),
(97,120,o),
(261,-20,o),
(568,-20,cs),
(774,-20,o),
(914,41,o),
(1038,150,c),
(1109,91,o),
(1194,26,o),
(1273,-28,c),
(1488,253,l),
(1408,303,o),
(1340,350,o),
(1259,412,c),
(1350,532,o),
(1415,650,o),
(1471,784,c),
(1191,784,l),
(1156,673,o),
(1144,645,o),
(1079,546,c),
(1002,612,o),
(940,675,o),
(876,744,c),
(1035,834,o),
(1234,1002,o),
(1234,1202,cs)
);
},
{
closed = 1;
nodes = (
(821,237,o),
(744,219,o),
(679,219,cs),
(552,219,o),
(478,290,o),
(478,388,cs),
(478,471,o),
(529,538,o),
(598,579,c),
(687,470,o),
(779,383,o),
(877,293,c)
);
},
{
closed = 1;
nodes = (
(656,1183,o),
(719,1246,o),
(808,1246,cs),
(881,1246,o),
(926,1202,o),
(926,1137,cs),
(926,1046,o),
(837,964,o),
(745,908,c),
(700,973,o),
(656,1028,o),
(656,1098,cs)
);
}
);
width = 1579;
},
{
layerId = "C0B66080-0851-4CAD-97C1-7E69A4280B0F";
shapes = (
{
closed = 1;
nodes = (
(1108,1378,o),
(981,1485,o),
(797,1485,cs),
(556,1485,o),
(349,1310,o),
(349,1105,cs),
(349,985,o),
(417,875,o),
(493,775,c),
(292,663,o),
(116,527,o),
(116,328,cs),
(116,139,o),
(284,-20,o),
(545,-20,cs),
(723,-20,o),
(877,52,o),
(1007,180,c),
(1090,100,o),
(1170,40,o),
(1262,-21,c),
(1383,129,l),
(1291,193,o),
(1214,251,o),
(1133,329,c),
(1232,457,o),
(1315,605,o),
(1382,777,c),
(1213,777,l),
(1174,666,o),
(1108,524,o),
(1021,413,c),
(905,541,o),
(825,638,o),
(730,753,c),
(976,891,o),
(1108,1065,o),
(1108,1221,cs)
);
},
{
closed = 1;
nodes = (
(818,176,o),
(717,144,o),
(615,144,cs),
(454,144,o),
(336,227,o),
(336,367,cs),
(336,478,o),
(399,572,o),
(569,667,c),
(678,521,o),
(780,400,o),
(904,266,c)
);
},
{
closed = 1;
nodes = (
(545,1230,o),
(630,1321,o),
(753,1321,cs),
(853,1321,o),
(920,1257,o),
(920,1168,cs),
(920,1057,o),
(813,939,o),
(660,858,c),
(608,928,o),
(545,1035,o),
(545,1130,cs)
);
}
);
width = 1524;
},
{
layerId = "D16C0853-6864-4717-842E-4EFABF578FF1";
shapes = (
{
closed = 1;
nodes = (
(1028,1380,o),
(896,1485,o),
(757,1485,cs),
(547,1485,o),
(363,1285,o),
(363,1110,cs),
(363,983,o),
(442,885,o),
(513,784,c),
(306,668,o),
(128,518,o),
(128,333,cs),
(128,156,o),
(300,-20,o),
(531,-20,cs),
(687,-20,o),
(853,59,o),
(987,199,c),
(1076,105,o),
(1154,48,o),
(1255,-16,c),
(1317,51,l),
(1217,124,o),
(1136,189,o),
(1054,277,c),
(1165,414,o),
(1253,570,o),
(1326,772,c),
(1225,772,l),
(1183,661,o),
(1085,449,o),
(984,331,c),
(845,497,o),
(751,624,o),
(639,758,c),
(928,928,o),
(1028,1112,o),
(1028,1233,cs)
);
},
{
closed = 1;
nodes = (
(815,138,o),
(699,97,o),
(576,97,cs),
(392,97,o),
(246,195,o),
(246,353,cs),
(246,484,o),
(318,592,o),
(550,721,c),
(668,572,o),
(780,411,o),
(920,248,c)
);
},
{
closed = 1;
nodes = (
(475,1255,o),
(573,1368,o),
(720,1368,cs),
(833,1368,o),
(914,1290,o),
(914,1187,cs),
(914,1060,o),
(780,919,o),
(602,824,c),
(547,895,o),
(475,1033,o),
(475,1147,cs)
);
}
);
width = 1491;
}
);
unicode = 38;
},
